<?xml version="1.0"?>
<!DOCTYPE svg PUBLIC "-//W3C//DTD SVG 1.1//EN" "http://www.w3.org/Graphics/SVG/1.1/DTD/svg11.dtd">
<svg xmlns="http://www.w3.org/2000/svg" xmlns:xlink="http://www.w3.org/1999/xlink" width="1065" height="1384">
<g style="font-family: Times New Roman;">
<text font-size="36" text-anchor="middle" x="532.5" y="36">Equal Division Temperaments</text>
<g transform="translate(100 138)">
<g fill="transparent" stroke="black" stroke-width="1">
<path d="M0 0 H20 V1200 H0"/>
<path d="M0 100 H20"/>
<path d="M0 200 H20"/>
<path d="M0 300 H20"/>
<path d="M0 400 H20"/>
<path d="M0 500 H20"/>
<path d="M0 600 H20"/>
<path d="M0 700 H20"/>
<path d="M0 800 H20"/>
<path d="M0 900 H20"/>
<path d="M0 1000 H20"/>
<path d="M0 1100 H20"/>
<g transform="translate(7 0)">
<path d="M0 10 H13"/>
<path d="M0 20 H13"/>
<path d="M0 30 H13"/>
<path d="M0 40 H13"/>
<path d="M0 50 H13"/>
<path d="M0 60 H13"/>
<path d="M0 70 H13"/>
<path d="M0 80 H13"/>
<path d="M0 90 H13"/>
<path d="M0 110 H13"/>
<path d="M0 120 H13"/>
<path d="M0 130 H13"/>
<path d="M0 140 H13"/>
<path d="M0 150 H13"/>
<path d="M0 160 H13"/>
<path d="M0 170 H13"/>
<path d="M0 180 H13"/>
<path d="M0 190 H13"/>
<path d="M0 210 H13"/>
<path d="M0 220 H13"/>
<path d="M0 230 H13"/>
<path d="M0 240 H13"/>
<path d="M0 250 H13"/>
<path d="M0 260 H13"/>
<path d="M0 270 H13"/>
<path d="M0 280 H13"/>
<path d="M0 290 H13"/>
<path d="M0 310 H13"/>
<path d="M0 320 H13"/>
<path d="M0 330 H13"/>
<path d="M0 340 H13"/>
<path d="M0 350 H13"/>
<path d="M0 360 H13"/>
<path d="M0 370 H13"/>
<path d="M0 380 H13"/>
<path d="M0 390 H13"/>
<path d="M0 410 H13"/>
<path d="M0 420 H13"/>
<path d="M0 430 H13"/>
<path d="M0 440 H13"/>
<path d="M0 450 H13"/>
<path d="M0 460 H13"/>
<path d="M0 470 H13"/>
<path d="M0 480 H13"/>
<path d="M0 490 H13"/>
<path d="M0 510 H13"/>
<path d="M0 520 H13"/>
<path d="M0 530 H13"/>
<path d="M0 540 H13"/>
<path d="M0 550 H13"/>
<path d="M0 560 H13"/>
<path d="M0 570 H13"/>
<path d="M0 580 H13"/>
<path d="M0 590 H13"/>
<path d="M0 610 H13"/>
<path d="M0 620 H13"/>
<path d="M0 630 H13"/>
<path d="M0 640 H13"/>
<path d="M0 650 H13"/>
<path d="M0 660 H13"/>
<path d="M0 670 H13"/>
<path d="M0 680 H13"/>
<path d="M0 690 H13"/>
<path d="M0 710 H13"/>
<path d="M0 720 H13"/>
<path d="M0 730 H13"/>
<path d="M0 740 H13"/>
<path d="M0 750 H13"/>
<path d="M0 760 H13"/>
<path d="M0 770 H13"/>
<path d="M0 780 H13"/>
<path d="M0 790 H13"/>
<path d="M0 810 H13"/>
<path d="M0 820 H13"/>
<path d="M0 830 H13"/>
<path d="M0 840 H13"/>
<path d="M0 850 H13"/>
<path d="M0 860 H13"/>
<path d="M0 870 H13"/>
<path d="M0 880 H13"/>
<path d="M0 890 H13"/>
<path d="M0 910 H13"/>
<path d="M0 920 H13"/>
<path d="M0 930 H13"/>
<path d="M0 940 H13"/>
<path d="M0 950 H13"/>
<path d="M0 960 H13"/>
<path d="M0 970 H13"/>
<path d="M0 980 H13"/>
<path d="M0 990 H13"/>
<path d="M0 1010 H13"/>
<path d="M0 1020 H13"/>
<path d="M0 1030 H13"/>
<path d="M0 1040 H13"/>
<path d="M0 1050 H13"/>
<path d="M0 1060 H13"/>
<path d="M0 1070 H13"/>
<path d="M0 1080 H13"/>
<path d="M0 1090 H13"/>
<path d="M0 1110 H13"/>
<path d="M0 1120 H13"/>
<path d="M0 1130 H13"/>
<path d="M0 1140 H13"/>
<path d="M0 1150 H13"/>
<path d="M0 1160 H13"/>
<path d="M0 1170 H13"/>
<path d="M0 1180 H13"/>
<path d="M0 1190 H13"/>
</g>
<g transform="translate(13 0)">
<path d="M0 5 H7"/>
<path d="M0 15 H7"/>
<path d="M0 25 H7"/>
<path d="M0 35 H7"/>
<path d="M0 45 H7"/>
<path d="M0 55 H7"/>
<path d="M0 65 H7"/>
<path d="M0 75 H7"/>
<path d="M0 85 H7"/>
<path d="M0 95 H7"/>
<path d="M0 105 H7"/>
<path d="M0 115 H7"/>
<path d="M0 125 H7"/>
<path d="M0 135 H7"/>
<path d="M0 145 H7"/>
<path d="M0 155 H7"/>
<path d="M0 165 H7"/>
<path d="M0 175 H7"/>
<path d="M0 185 H7"/>
<path d="M0 195 H7"/>
<path d="M0 205 H7"/>
<path d="M0 215 H7"/>
<path d="M0 225 H7"/>
<path d="M0 235 H7"/>
<path d="M0 245 H7"/>
<path d="M0 255 H7"/>
<path d="M0 265 H7"/>
<path d="M0 275 H7"/>
<path d="M0 285 H7"/>
<path d="M0 295 H7"/>
<path d="M0 305 H7"/>
<path d="M0 315 H7"/>
<path d="M0 325 H7"/>
<path d="M0 335 H7"/>
<path d="M0 345 H7"/>
<path d="M0 355 H7"/>
<path d="M0 365 H7"/>
<path d="M0 375 H7"/>
<path d="M0 385 H7"/>
<path d="M0 395 H7"/>
<path d="M0 405 H7"/>
<path d="M0 415 H7"/>
<path d="M0 425 H7"/>
<path d="M0 435 H7"/>
<path d="M0 445 H7"/>
<path d="M0 455 H7"/>
<path d="M0 465 H7"/>
<path d="M0 475 H7"/>
<path d="M0 485 H7"/>
<path d="M0 495 H7"/>
<path d="M0 505 H7"/>
<path d="M0 515 H7"/>
<path d="M0 525 H7"/>
<path d="M0 535 H7"/>
<path d="M0 545 H7"/>
<path d="M0 555 H7"/>
<path d="M0 565 H7"/>
<path d="M0 575 H7"/>
<path d="M0 585 H7"/>
<path d="M0 595 H7"/>
<path d="M0 605 H7"/>
<path d="M0 615 H7"/>
<path d="M0 625 H7"/>
<path d="M0 635 H7"/>
<path d="M0 645 H7"/>
<path d="M0 655 H7"/>
<path d="M0 665 H7"/>
<path d="M0 675 H7"/>
<path d="M0 685 H7"/>
<path d="M0 695 H7"/>
<path d="M0 705 H7"/>
<path d="M0 715 H7"/>
<path d="M0 725 H7"/>
<path d="M0 735 H7"/>
<path d="M0 745 H7"/>
<path d="M0 755 H7"/>
<path d="M0 765 H7"/>
<path d="M0 775 H7"/>
<path d="M0 785 H7"/>
<path d="M0 795 H7"/>
<path d="M0 805 H7"/>
<path d="M0 815 H7"/>
<path d="M0 825 H7"/>
<path d="M0 835 H7"/>
<path d="M0 845 H7"/>
<path d="M0 855 H7"/>
<path d="M0 865 H7"/>
<path d="M0 875 H7"/>
<path d="M0 885 H7"/>
<path d="M0 895 H7"/>
<path d="M0 905 H7"/>
<path d="M0 915 H7"/>
<path d="M0 925 H7"/>
<path d="M0 935 H7"/>
<path d="M0 945 H7"/>
<path d="M0 955 H7"/>
<path d="M0 965 H7"/>
<path d="M0 975 H7"/>
<path d="M0 985 H7"/>
<path d="M0 995 H7"/>
<path d="M0 1005 H7"/>
<path d="M0 1015 H7"/>
<path d="M0 1025 H7"/>
<path d="M0 1035 H7"/>
<path d="M0 1045 H7"/>
<path d="M0 1055 H7"/>
<path d="M0 1065 H7"/>
<path d="M0 1075 H7"/>
<path d="M0 1085 H7"/>
<path d="M0 1095 H7"/>
<path d="M0 1105 H7"/>
<path d="M0 1115 H7"/>
<path d="M0 1125 H7"/>
<path d="M0 1135 H7"/>
<path d="M0 1145 H7"/>
<path d="M0 1155 H7"/>
<path d="M0 1165 H7"/>
<path d="M0 1175 H7"/>
<path d="M0 1185 H7"/>
<path d="M0 1195 H7"/>
</g>
</g>
<g fill="black" font-size="20" text-anchor="end" transform="translate(-5 6.7)">
<text y="0">0</text>
<text y="100">100</text>
<text y="200">200</text>
<text y="300">300</text>
<text y="400">400</text>
<text y="500">500</text>
<text y="600">600</text>
<text y="700">700</text>
<text y="800">800</text>
<text y="900">900</text>
<text y="1000">1000</text>
<text y="1100">1100</text>
<text y="1200">1200</text>
</g>
<g fill="black" font-size="13" text-anchor="end" transform="translate(2 4.3)">
<text y="20">20</text>
<text y="40">40</text>
<text y="60">60</text>
<text y="80">80</text>
<text y="120">120</text>
<text y="140">140</text>
<text y="160">160</text>
<text y="180">180</text>
<text y="220">220</text>
<text y="240">240</text>
<text y="260">260</text>
<text y="280">280</text>
<text y="320">320</text>
<text y="340">340</text>
<text y="360">360</text>
<text y="380">380</text>
<text y="420">420</text>
<text y="440">440</text>
<text y="460">460</text>
<text y="480">480</text>
<text y="520">520</text>
<text y="540">540</text>
<text y="560">560</text>
<text y="580">580</text>
<text y="620">620</text>
<text y="640">640</text>
<text y="660">660</text>
<text y="680">680</text>
<text y="720">720</text>
<text y="740">740</text>
<text y="760">760</text>
<text y="780">780</text>
<text y="820">820</text>
<text y="840">840</text>
<text y="860">860</text>
<text y="880">880</text>
<text y="920">920</text>
<text y="940">940</text>
<text y="960">960</text>
<text y="980">980</text>
<text y="1020">1020</text>
<text y="1040">1040</text>
<text y="1060">1060</text>
<text y="1080">1080</text>
<text y="1120">1120</text>
<text y="1140">1140</text>
<text y="1160">1160</text>
<text y="1180">1180</text>
</g>
</g>
<g transform="translate(125 138)">
<g fill="transparent" stroke="black">
<g stroke-width="1">
<path d="M0 21.51 H715"/>
<path d="M0 41.06 H715"/>
<path d="M0 70.67 H715"/>
<path d="M0 92.18 H715"/>
<path d="M0 111.73 H715"/>
<path d="M0 133.24 H715"/>
<path d="M0 294.13 H715"/>
<path d="M0 407.82 H713.58 L715 404.98"/>
<path d="M0 427.37 H711.8 L715 420.98"/>
<path d="M0 456.99 H715"/>
<path d="M0 519.55 H715"/>
<path d="M0 568.72 H708 L715 554.72"/>
<path d="M0 590.22 H715"/>
<path d="M0 609.78 H715"/>
<path d="M0 631.28 H708.09 L715 645.11"/>
<path d="M0 680.45 H715"/>
<path d="M0 743.01 H715"/>
<path d="M0 772.63 H715"/>
<path d="M0 792.18 H715"/>
<path d="M0 840.53 H715"/>
<path d="M0 905.87 H715"/>
<path d="M0 1049.36 H715"/>
<path d="M0 1066.76 H715"/>
<path d="M0 1088.27 H715"/>
<path d="M0 1109.78 H715"/>
<path d="M0 1137.04 H715"/>
<path d="M0 1158.94 H715"/>
<path d="M0 1178.49 H715"/>
</g>
<g stroke-width="2">
<path d="M0 182.4 H715"/>
<path d="M0 203.91 H715"/>
<path d="M0 231.17 H715"/>
<path d="M0 266.87 H715"/>
<path d="M0 435.08 H713.55 L715 437.98"/>
<path d="M0 582.51 H709.94 L715 572.38"/>
<path d="M0 617.49 H710.02 L715 627.44"/>
<path d="M0 933.13 H715"/>
<path d="M0 968.83 H715"/>
<path d="M0 996.09 H715"/>
<path d="M0 1017.6 H715"/>
</g>
<g stroke-width="3">
<path d="M0 0 H715"/>
<path d="M0 315.64 H715"/>
<path d="M0 386.31 H715"/>
<path d="M0 498.04 H715"/>
<path d="M0 701.96 H715"/>
<path d="M0 813.69 H715"/>
<path d="M0 884.36 H715"/>
<path d="M0 1200 H715"/>
</g>
</g>
<g transform="translate(719 0)">
<g font-size="12">
<text y="25.51">81/80 syntonic comma</text>
<text y="45.06">128/125 diminished 2nd</text>
<text y="74.67">25/24 chromatic semitone</text>
<text y="96.18">135/128</text>
<text y="115.73">16/15 diatonic semitone</text>
<text y="137.24">27/25</text>
<text y="298.13">32/27 Pythagorean minor 3rd</text>
<text y="408.98">81/64 ditone</text>
<text y="424.98">32/25 diminished 4th</text>
<text y="460.99">125/96 augmented 3rd</text>
<text y="523.55">27/20</text>
<text y="558.72">25/18 augmented 4th </text>
<text y="594.22">45/32 high / diatonic tritone</text>
<text y="613.78">64/45 low tritone</text>
<text y="649.11">36/25 diminished 5th</text>
<text y="684.45">40/27 dissonant "wolf" 5th</text>
<text y="747.01">192/125 diminished 6th</text>
<text y="776.63">25/16 augmented 5th</text>
<text y="796.18">128/81 Pythagorean minor 6th</text>
<text y="844.53">13/8 overtone 6th</text>
<text y="909.87">27/16 Pythagorean major 6th</text>
<text y="1053.36">11/6 undecimal "median" 7th</text>
<text y="1070.76">50/27</text>
<text y="1092.27">15/8 major 7th</text>
<text y="1113.78">243/128 Pythagorean major 7th</text>
<text y="1141.04">27/14 septimal major 7th</text>
<text y="1162.94">125/64 augmented 7th</text>
<text y="1182.49">160/81</text>
</g>
<g font-size="15">
<text y="187.4">10/9 minor 2nd</text>
<text y="208.91">9/8 major 2nd</text>
<text y="442.98">9/7 septimal major 3rd</text>
<text y="1001.09">16/9 Pythagorean small min. 7th</text>
<text y="1022.6">9/5 minor 7th</text>
</g>
<g font-size="17">
<text y="236.84">8/7 septimal major 2nd</text>
<text y="272.54">7/6 septimal minor 3rd</text>
<text y="578.05">7/5 septimal tritone</text>
<text y="633.11">10/7 septimal tritone</text>
<text y="938.8">12/7 septimal major 6th</text>
<text y="974.49">7/4 harmonic 7th</text>
</g>
<g font-size="20">
<text y="6.67">1/1 tonic</text>
<text y="322.31">6/5 minor 3rd</text>
<text y="392.98">5/4 major 3rd</text>
<text y="504.71">4/3 major 4th</text>
<text y="708.62">3/2 perfect 5th</text>
<text y="820.35">8/5 minor 6th</text>
<text y="891.03">5/3 major 6th</text>
<text y="1206.67">2/1 octave</text>
</g>
</g>
<g stroke="lightgrey" stroke-dasharray="3 3">
<path d="M0 100 H715"/>
<path d="M0 200 H715"/>
<path d="M0 300 H715"/>
<path d="M0 400 H715"/>
<path d="M0 500 H715"/>
<path d="M0 600 H715"/>
<path d="M0 700 H715"/>
<path d="M0 800 H715"/>
<path d="M0 900 H715"/>
<path d="M0 1000 H715"/>
<path d="M0 1100 H715"/>
</g>
</g>
<g font-size="20" text-anchor="left" transform="translate(150 118) rotate(270)">
<text y="0">5-TET</text>
<text y="30">10-TET</text>
<text y="75">7-TET</text>
<text y="120">11-TET</text>
<text y="150">22-TET</text>
<text y="195">16-TET</text>
<text y="240">17-TET</text>
<text y="270">34-TET</text>
<text y="315">19-TET</text>
<text y="345">50-TET</text>
<text y="375">31-TET</text>
<text y="405">43-TET</text>
<text y="435">55-TET</text>
<text y="480">12-TET</text>
<text y="510">24-TET</text>
<text y="540">36-TET</text>
<text y="585">26-TET</text>
<text y="630">41-TET</text>
<text y="675">53-TET</text>
</g>
<g transform="translate(145 138)">
<g stroke="grey">
<path d="M0 0 V1200"/>
<path d="M30 0 V1200"/>
<path d="M75 0 V1200"/>
<path d="M120 0 V1200"/>
<path d="M150 0 V1200"/>
<path d="M195 0 V1200"/>
<path d="M240 0 V1200"/>
<path d="M270 0 V1200"/>
<path d="M315 0 V1200"/>
<path d="M345 0 V1200"/>
<path d="M375 0 V1200"/>
<path d="M405 0 V1200"/>
<path d="M435 0 V1200"/>
<path d="M480 0 V1200"/>
<path d="M510 0 V1200"/>
<path d="M540 0 V1200"/>
<path d="M585 0 V1200"/>
<path d="M630 0 V1200"/>
<path d="M675 0 V1200"/>
</g>
<g fill="#2020ff">
<circle cy="0" r="11.5"/>
<circle cy="1200" r="11.5"/>
<circle cy="240" r="11.5"/>
<circle cy="480" r="11.5"/>
<circle cy="720" r="11.5"/>
<circle cy="960" r="11.5"/>
</g>
<g transform="translate(30 0)">
<g fill="#2020ff">
<circle cy="0" r="11.5"/>
<circle cy="1200" r="11.5"/>
<circle cy="120" r="11.5"/>
<circle cy="240" r="11.5"/>
<circle cy="360" r="11.5"/>
<circle cy="480" r="11.5"/>
<circle cy="600" r="11.5"/>
<circle cy="720" r="11.5"/>
<circle cy="840" r="11.5"/>
<circle cy="960" r="11.5"/>
<circle cy="1080" r="11.5"/>
</g>
</g>
<g transform="translate(75 0)">
<g fill="#2020ff">
<circle cy="0" r="11.5"/>
<circle cy="1200" r="11.5"/>
<circle cy="171.43" r="11.5"/>
<circle cy="342.86" r="11.5"/>
<circle cy="514.29" r="11.5"/>
<circle cy="685.71" r="11.5"/>
<circle cy="857.14" r="11.5"/>
<circle cy="1028.57" r="11.5"/>
</g>
</g>
<g transform="translate(120 0)">
<g fill="#2020ff">
<circle cy="0" r="11.5"/>
<circle cy="1200" r="11.5"/>
<circle cy="109.09" r="11.5"/>
<circle cy="218.18" r="11.5"/>
<circle cy="327.27" r="11.5"/>
<circle cy="436.36" r="11.5"/>
<circle cy="545.45" r="11.5"/>
<circle cy="654.55" r="11.5"/>
<circle cy="763.64" r="11.5"/>
<circle cy="872.73" r="11.5"/>
<circle cy="981.82" r="11.5"/>
<circle cy="1090.91" r="11.5"/>
</g>
</g>
<g transform="translate(150 0)">
<g fill="#2020ff">
<circle cy="0" r="11.5"/>
<circle cy="1200" r="11.5"/>
<circle cy="54.55" r="11.5"/>
<circle cy="109.09" r="11.5"/>
<circle cy="163.64" r="11.5"/>
<circle cy="218.18" r="11.5"/>
<circle cy="272.73" r="11.5"/>
<circle cy="327.27" r="11.5"/>
<circle cy="381.82" r="11.5"/>
<circle cy="436.36" r="11.5"/>
<circle cy="490.91" r="11.5"/>
<circle cy="545.45" r="11.5"/>
<circle cy="600" r="11.5"/>
<circle cy="654.55" r="11.5"/>
<circle cy="709.09" r="11.5"/>
<circle cy="763.64" r="11.5"/>
<circle cy="818.18" r="11.5"/>
<circle cy="872.73" r="11.5"/>
<circle cy="927.27" r="11.5"/>
<circle cy="981.82" r="11.5"/>
<circle cy="1036.36" r="11.5"/>
<circle cy="1090.91" r="11.5"/>
<circle cy="1145.45" r="11.5"/>
</g>
</g>
<g transform="translate(195 0)">
<g fill="#2020ff">
<circle cy="0" r="11.5"/>
<circle cy="1200" r="11.5"/>
<circle cy="75" r="11.5"/>
<circle cy="150" r="11.5"/>
<circle cy="225" r="11.5"/>
<circle cy="300" r="11.5"/>
<circle cy="375" r="11.5"/>
<circle cy="450" r="11.5"/>
<circle cy="525" r="11.5"/>
<circle cy="600" r="11.5"/>
<circle cy="675" r="11.5"/>
<circle cy="750" r="11.5"/>
<circle cy="825" r="11.5"/>
<circle cy="900" r="11.5"/>
<circle cy="975" r="11.5"/>
<circle cy="1050" r="11.5"/>
<circle cy="1125" r="11.5"/>
</g>
</g>
<g transform="translate(240 0)">
<g fill="#2020ff">
<circle cy="0" r="11.5"/>
<circle cy="1200" r="11.5"/>
<circle cy="70.59" r="11.5"/>
<circle cy="141.18" r="11.5"/>
<circle cy="211.76" r="11.5"/>
<circle cy="282.35" r="11.5"/>
<circle cy="352.94" r="11.5"/>
<circle cy="423.53" r="11.5"/>
<circle cy="494.12" r="11.5"/>
<circle cy="564.71" r="11.5"/>
<circle cy="635.29" r="11.5"/>
<circle cy="705.88" r="11.5"/>
<circle cy="776.47" r="11.5"/>
<circle cy="847.06" r="11.5"/>
<circle cy="917.65" r="11.5"/>
<circle cy="988.24" r="11.5"/>
<circle cy="1058.82" r="11.5"/>
<circle cy="1129.41" r="11.5"/>
</g>
</g>
<g transform="translate(270 0)">
<g fill="#2020ff">
<circle cy="0" r="11.5"/>
<circle cy="1200" r="11.5"/>
<circle cy="35.29" r="11.5"/>
<circle cy="70.59" r="11.5"/>
<circle cy="105.88" r="11.5"/>
<circle cy="141.18" r="11.5"/>
<circle cy="176.47" r="11.5"/>
<circle cy="211.76" r="11.5"/>
<circle cy="247.06" r="11.5"/>
<circle cy="282.35" r="11.5"/>
<circle cy="317.65" r="11.5"/>
<circle cy="352.94" r="11.5"/>
<circle cy="388.24" r="11.5"/>
<circle cy="423.53" r="11.5"/>
<circle cy="458.82" r="11.5"/>
<circle cy="494.12" r="11.5"/>
<circle cy="529.41" r="11.5"/>
<circle cy="564.71" r="11.5"/>
<circle cy="600" r="11.5"/>
<circle cy="635.29" r="11.5"/>
<circle cy="670.59" r="11.5"/>
<circle cy="705.88" r="11.5"/>
<circle cy="741.18" r="11.5"/>
<circle cy="776.47" r="11.5"/>
<circle cy="811.76" r="11.5"/>
<circle cy="847.06" r="11.5"/>
<circle cy="882.35" r="11.5"/>
<circle cy="917.65" r="11.5"/>
<circle cy="952.94" r="11.5"/>
<circle cy="988.24" r="11.5"/>
<circle cy="1023.53" r="11.5"/>
<circle cy="1058.82" r="11.5"/>
<circle cy="1094.12" r="11.5"/>
<circle cy="1129.41" r="11.5"/>
<circle cy="1164.71" r="11.5"/>
</g>
</g>
<g transform="translate(315 0)">
<g fill="#404040">
<circle cy="63.16" r="11.5"/>
<circle cy="126.32" r="11.5"/>
<circle cy="252.63" r="11.5"/>
<circle cy="315.79" r="11.5"/>
<circle cy="442.11" r="11.5"/>
<circle cy="568.42" r="11.5"/>
<circle cy="631.58" r="11.5"/>
<circle cy="757.89" r="11.5"/>
<circle cy="821.05" r="11.5"/>
<circle cy="947.37" r="11.5"/>
<circle cy="1010.53" r="11.5"/>
<circle cy="1136.84" r="11.5"/>
</g>
<g fill="#2020ff">
<circle cy="0" r="11.5"/>
<circle cy="1200" r="11.5"/>
<circle cy="189.47" r="11.5"/>
<circle cy="378.95" r="11.5"/>
<circle cy="505.26" r="11.5"/>
<circle cy="694.74" r="11.5"/>
<circle cy="884.21" r="11.5"/>
<circle cy="1073.68" r="11.5"/>
</g>
</g>
<g transform="translate(345 0)">
<g fill="#c0c0c0">
<circle cy="96" r="11.5"/>
<circle cy="168" r="11.5"/>
<circle cy="216" r="11.5"/>
<circle cy="288" r="11.5"/>
<circle cy="408" r="11.5"/>
<circle cy="480" r="11.5"/>
<circle cy="600" r="11.5"/>
<circle cy="672" r="11.5"/>
<circle cy="720" r="11.5"/>
<circle cy="792" r="11.5"/>
<circle cy="864" r="11.5"/>
<circle cy="912" r="11.5"/>
<circle cy="984" r="11.5"/>
<circle cy="1104" r="11.5"/>
<circle cy="1176" r="11.5"/>
</g>
<g fill="#808080">
<circle cy="24" r="11.5"/>
<circle cy="48" r="11.5"/>
<circle cy="144" r="11.5"/>
<circle cy="240" r="11.5"/>
<circle cy="336" r="11.5"/>
<circle cy="360" r="11.5"/>
<circle cy="528" r="11.5"/>
<circle cy="552" r="11.5"/>
<circle cy="648" r="11.5"/>
<circle cy="744" r="11.5"/>
<circle cy="840" r="11.5"/>
<circle cy="936" r="11.5"/>
<circle cy="1032" r="11.5"/>
<circle cy="1056" r="11.5"/>
</g>
<g fill="#404040">
<circle cy="72" r="11.5"/>
<circle cy="120" r="11.5"/>
<circle cy="264" r="11.5"/>
<circle cy="312" r="11.5"/>
<circle cy="432" r="11.5"/>
<circle cy="456" r="11.5"/>
<circle cy="576" r="11.5"/>
<circle cy="624" r="11.5"/>
<circle cy="768" r="11.5"/>
<circle cy="816" r="11.5"/>
<circle cy="960" r="11.5"/>
<circle cy="1008" r="11.5"/>
<circle cy="1128" r="11.5"/>
<circle cy="1152" r="11.5"/>
</g>
<g fill="#2020ff">
<circle cy="0" r="11.5"/>
<circle cy="1200" r="11.5"/>
<circle cy="192" r="11.5"/>
<circle cy="384" r="11.5"/>
<circle cy="504" r="11.5"/>
<circle cy="696" r="11.5"/>
<circle cy="888" r="11.5"/>
<circle cy="1080" r="11.5"/>
</g>
</g>
<g transform="translate(375 0)">
<g fill="#808080">
<circle cy="38.71" r="11.5"/>
<circle cy="154.84" r="11.5"/>
<circle cy="232.26" r="11.5"/>
<circle cy="348.39" r="11.5"/>
<circle cy="541.94" r="11.5"/>
<circle cy="658.06" r="11.5"/>
<circle cy="735.48" r="11.5"/>
<circle cy="851.61" r="11.5"/>
<circle cy="929.03" r="11.5"/>
<circle cy="1045.16" r="11.5"/>
</g>
<g fill="#404040">
<circle cy="77.42" r="11.5"/>
<circle cy="116.13" r="11.5"/>
<circle cy="270.97" r="11.5"/>
<circle cy="309.68" r="11.5"/>
<circle cy="425.81" r="11.5"/>
<circle cy="464.52" r="11.5"/>
<circle cy="580.65" r="11.5"/>
<circle cy="619.35" r="11.5"/>
<circle cy="774.19" r="11.5"/>
<circle cy="812.9" r="11.5"/>
<circle cy="967.74" r="11.5"/>
<circle cy="1006.45" r="11.5"/>
<circle cy="1122.58" r="11.5"/>
<circle cy="1161.29" r="11.5"/>
</g>
<g fill="#2020ff">
<circle cy="0" r="11.5"/>
<circle cy="1200" r="11.5"/>
<circle cy="193.55" r="11.5"/>
<circle cy="387.1" r="11.5"/>
<circle cy="503.23" r="11.5"/>
<circle cy="696.77" r="11.5"/>
<circle cy="890.32" r="11.5"/>
<circle cy="1083.87" r="11.5"/>
</g>
</g>
<g transform="translate(405 0)">
<g fill="#c0c0c0">
<circle cy="139.53" r="11.5"/>
<circle cy="251.16" r="11.5"/>
<circle cy="446.51" r="11.5"/>
<circle cy="641.86" r="11.5"/>
<circle cy="753.49" r="11.5"/>
<circle cy="837.21" r="11.5"/>
<circle cy="948.84" r="11.5"/>
<circle cy="1144.19" r="11.5"/>
</g>
<g fill="#808080">
<circle cy="27.91" r="11.5"/>
<circle cy="55.81" r="11.5"/>
<circle cy="167.44" r="11.5"/>
<circle cy="223.26" r="11.5"/>
<circle cy="334.88" r="11.5"/>
<circle cy="362.79" r="11.5"/>
<circle cy="530.23" r="11.5"/>
<circle cy="558.14" r="11.5"/>
<circle cy="669.77" r="11.5"/>
<circle cy="725.58" r="11.5"/>
<circle cy="865.12" r="11.5"/>
<circle cy="920.93" r="11.5"/>
<circle cy="1032.56" r="11.5"/>
<circle cy="1060.47" r="11.5"/>
</g>
<g fill="#404040">
<circle cy="83.72" r="11.5"/>
<circle cy="111.63" r="11.5"/>
<circle cy="279.07" r="11.5"/>
<circle cy="306.98" r="11.5"/>
<circle cy="418.6" r="11.5"/>
<circle cy="474.42" r="11.5"/>
<circle cy="586.05" r="11.5"/>
<circle cy="613.95" r="11.5"/>
<circle cy="781.4" r="11.5"/>
<circle cy="809.3" r="11.5"/>
<circle cy="976.74" r="11.5"/>
<circle cy="1004.65" r="11.5"/>
<circle cy="1116.28" r="11.5"/>
<circle cy="1172.09" r="11.5"/>
</g>
<g fill="#2020ff">
<circle cy="0" r="11.5"/>
<circle cy="1200" r="11.5"/>
<circle cy="195.35" r="11.5"/>
<circle cy="390.7" r="11.5"/>
<circle cy="502.33" r="11.5"/>
<circle cy="697.67" r="11.5"/>
<circle cy="893.02" r="11.5"/>
<circle cy="1088.37" r="11.5"/>
</g>
</g>
<g transform="translate(435 0)">
<g fill="#c0c0c0">
<circle cy="43.64" r="11.5"/>
<circle cy="130.91" r="11.5"/>
<circle cy="152.73" r="11.5"/>
<circle cy="240" r="11.5"/>
<circle cy="261.82" r="11.5"/>
<circle cy="349.09" r="11.5"/>
<circle cy="436.36" r="11.5"/>
<circle cy="458.18" r="11.5"/>
<circle cy="545.45" r="11.5"/>
<circle cy="632.73" r="11.5"/>
<circle cy="654.55" r="11.5"/>
<circle cy="741.82" r="11.5"/>
<circle cy="763.64" r="11.5"/>
<circle cy="829.09" r="11.5"/>
<circle cy="850.91" r="11.5"/>
<circle cy="938.18" r="11.5"/>
<circle cy="960" r="11.5"/>
<circle cy="1047.27" r="11.5"/>
<circle cy="1134.55" r="11.5"/>
<circle cy="1156.36" r="11.5"/>
</g>
<g fill="#808080">
<circle cy="21.82" r="11.5"/>
<circle cy="65.45" r="11.5"/>
<circle cy="174.55" r="11.5"/>
<circle cy="218.18" r="11.5"/>
<circle cy="327.27" r="11.5"/>
<circle cy="370.91" r="11.5"/>
<circle cy="523.64" r="11.5"/>
<circle cy="567.27" r="11.5"/>
<circle cy="676.36" r="11.5"/>
<circle cy="720" r="11.5"/>
<circle cy="872.73" r="11.5"/>
<circle cy="916.36" r="11.5"/>
<circle cy="1025.45" r="11.5"/>
<circle cy="1069.09" r="11.5"/>
</g>
<g fill="#404040">
<circle cy="87.27" r="11.5"/>
<circle cy="109.09" r="11.5"/>
<circle cy="283.64" r="11.5"/>
<circle cy="305.45" r="11.5"/>
<circle cy="414.55" r="11.5"/>
<circle cy="480" r="11.5"/>
<circle cy="589.09" r="11.5"/>
<circle cy="610.91" r="11.5"/>
<circle cy="785.45" r="11.5"/>
<circle cy="807.27" r="11.5"/>
<circle cy="981.82" r="11.5"/>
<circle cy="1003.64" r="11.5"/>
<circle cy="1112.73" r="11.5"/>
<circle cy="1178.18" r="11.5"/>
</g>
<g fill="#2020ff">
<circle cy="0" r="11.5"/>
<circle cy="1200" r="11.5"/>
<circle cy="196.36" r="11.5"/>
<circle cy="392.73" r="11.5"/>
<circle cy="501.82" r="11.5"/>
<circle cy="698.18" r="11.5"/>
<circle cy="894.55" r="11.5"/>
<circle cy="1090.91" r="11.5"/>
</g>
</g>
<g transform="translate(480 0)">
<g fill="#404040">
<circle cy="100" r="11.5"/>
<circle cy="300" r="11.5"/>
<circle cy="600" r="11.5"/>
<circle cy="800" r="11.5"/>
<circle cy="1000" r="11.5"/>
</g>
<g fill="#2020ff">
<circle cy="0" r="11.5"/>
<circle cy="1200" r="11.5"/>
<circle cy="200" r="11.5"/>
<circle cy="400" r="11.5"/>
<circle cy="500" r="11.5"/>
<circle cy="700" r="11.5"/>
<circle cy="900" r="11.5"/>
<circle cy="1100" r="11.5"/>
</g>
</g>
<g transform="translate(510 0)">
<g fill="#2020ff">
<circle cy="0" r="11.5"/>
<circle cy="1200" r="11.5"/>
<circle cy="50" r="11.5"/>
<circle cy="100" r="11.5"/>
<circle cy="150" r="11.5"/>
<circle cy="200" r="11.5"/>
<circle cy="250" r="11.5"/>
<circle cy="300" r="11.5"/>
<circle cy="350" r="11.5"/>
<circle cy="400" r="11.5"/>
<circle cy="450" r="11.5"/>
<circle cy="500" r="11.5"/>
<circle cy="550" r="11.5"/>
<circle cy="600" r="11.5"/>
<circle cy="650" r="11.5"/>
<circle cy="700" r="11.5"/>
<circle cy="750" r="11.5"/>
<circle cy="800" r="11.5"/>
<circle cy="850" r="11.5"/>
<circle cy="900" r="11.5"/>
<circle cy="950" r="11.5"/>
<circle cy="1000" r="11.5"/>
<circle cy="1050" r="11.5"/>
<circle cy="1100" r="11.5"/>
<circle cy="1150" r="11.5"/>
</g>
</g>
<g transform="translate(540 0)">
<g fill="#2020ff">
<circle cy="0" r="11.5"/>
<circle cy="1200" r="11.5"/>
<circle cy="33.33" r="11.5"/>
<circle cy="66.67" r="11.5"/>
<circle cy="100" r="11.5"/>
<circle cy="133.33" r="11.5"/>
<circle cy="166.67" r="11.5"/>
<circle cy="200" r="11.5"/>
<circle cy="233.33" r="11.5"/>
<circle cy="266.67" r="11.5"/>
<circle cy="300" r="11.5"/>
<circle cy="333.33" r="11.5"/>
<circle cy="366.67" r="11.5"/>
<circle cy="400" r="11.5"/>
<circle cy="433.33" r="11.5"/>
<circle cy="466.67" r="11.5"/>
<circle cy="500" r="11.5"/>
<circle cy="533.33" r="11.5"/>
<circle cy="566.67" r="11.5"/>
<circle cy="600" r="11.5"/>
<circle cy="633.33" r="11.5"/>
<circle cy="666.67" r="11.5"/>
<circle cy="700" r="11.5"/>
<circle cy="733.33" r="11.5"/>
<circle cy="766.67" r="11.5"/>
<circle cy="800" r="11.5"/>
<circle cy="833.33" r="11.5"/>
<circle cy="866.67" r="11.5"/>
<circle cy="900" r="11.5"/>
<circle cy="933.33" r="11.5"/>
<circle cy="966.67" r="11.5"/>
<circle cy="1000" r="11.5"/>
<circle cy="1033.33" r="11.5"/>
<circle cy="1066.67" r="11.5"/>
<circle cy="1100" r="11.5"/>
<circle cy="1133.33" r="11.5"/>
<circle cy="1166.67" r="11.5"/>
</g>
</g>
<g transform="translate(585 0)">
<g fill="#2020ff">
<circle cy="0" r="11.5"/>
<circle cy="1200" r="11.5"/>
<circle cy="46.15" r="11.5"/>
<circle cy="92.31" r="11.5"/>
<circle cy="138.46" r="11.5"/>
<circle cy="184.62" r="11.5"/>
<circle cy="230.77" r="11.5"/>
<circle cy="276.92" r="11.5"/>
<circle cy="323.08" r="11.5"/>
<circle cy="369.23" r="11.5"/>
<circle cy="415.38" r="11.5"/>
<circle cy="461.54" r="11.5"/>
<circle cy="507.69" r="11.5"/>
<circle cy="553.85" r="11.5"/>
<circle cy="600" r="11.5"/>
<circle cy="646.15" r="11.5"/>
<circle cy="692.31" r="11.5"/>
<circle cy="738.46" r="11.5"/>
<circle cy="784.62" r="11.5"/>
<circle cy="830.77" r="11.5"/>
<circle cy="876.92" r="11.5"/>
<circle cy="923.08" r="11.5"/>
<circle cy="969.23" r="11.5"/>
<circle cy="1015.38" r="11.5"/>
<circle cy="1061.54" r="11.5"/>
<circle cy="1107.69" r="11.5"/>
<circle cy="1153.85" r="11.5"/>
</g>
</g>
<g transform="translate(630 0)">
<g fill="#2020ff">
<circle cy="0" r="11.5"/>
<circle cy="1200" r="11.5"/>
<circle cy="29.27" r="11.5"/>
<circle cy="58.54" r="11.5"/>
<circle cy="87.8" r="11.5"/>
<circle cy="117.07" r="11.5"/>
<circle cy="146.34" r="11.5"/>
<circle cy="175.61" r="11.5"/>
<circle cy="204.88" r="11.5"/>
<circle cy="234.15" r="11.5"/>
<circle cy="263.41" r="11.5"/>
<circle cy="292.68" r="11.5"/>
<circle cy="321.95" r="11.5"/>
<circle cy="351.22" r="11.5"/>
<circle cy="380.49" r="11.5"/>
<circle cy="409.76" r="11.5"/>
<circle cy="439.02" r="11.5"/>
<circle cy="468.29" r="11.5"/>
<circle cy="497.56" r="11.5"/>
<circle cy="526.83" r="11.5"/>
<circle cy="556.1" r="11.5"/>
<circle cy="585.37" r="11.5"/>
<circle cy="614.63" r="11.5"/>
<circle cy="643.9" r="11.5"/>
<circle cy="673.17" r="11.5"/>
<circle cy="702.44" r="11.5"/>
<circle cy="731.71" r="11.5"/>
<circle cy="760.98" r="11.5"/>
<circle cy="790.24" r="11.5"/>
<circle cy="819.51" r="11.5"/>
<circle cy="848.78" r="11.5"/>
<circle cy="878.05" r="11.5"/>
<circle cy="907.32" r="11.5"/>
<circle cy="936.59" r="11.5"/>
<circle cy="965.85" r="11.5"/>
<circle cy="995.12" r="11.5"/>
<circle cy="1024.39" r="11.5"/>
<circle cy="1053.66" r="11.5"/>
<circle cy="1082.93" r="11.5"/>
<circle cy="1112.2" r="11.5"/>
<circle cy="1141.46" r="11.5"/>
<circle cy="1170.73" r="11.5"/>
</g>
</g>
<g transform="translate(675 0)">
<g fill="#2020ff">
<circle cy="0" r="11.5"/>
<circle cy="1200" r="11.5"/>
<circle cy="22.64" r="11.5"/>
<circle cy="45.28" r="11.5"/>
<circle cy="67.92" r="11.5"/>
<circle cy="90.57" r="11.5"/>
<circle cy="113.21" r="11.5"/>
<circle cy="135.85" r="11.5"/>
<circle cy="158.49" r="11.5"/>
<circle cy="181.13" r="11.5"/>
<circle cy="203.77" r="11.5"/>
<circle cy="226.42" r="11.5"/>
<circle cy="249.06" r="11.5"/>
<circle cy="271.7" r="11.5"/>
<circle cy="294.34" r="11.5"/>
<circle cy="316.98" r="11.5"/>
<circle cy="339.62" r="11.5"/>
<circle cy="362.26" r="11.5"/>
<circle cy="384.91" r="11.5"/>
<circle cy="407.55" r="11.5"/>
<circle cy="430.19" r="11.5"/>
<circle cy="452.83" r="11.5"/>
<circle cy="475.47" r="11.5"/>
<circle cy="498.11" r="11.5"/>
<circle cy="520.75" r="11.5"/>
<circle cy="543.4" r="11.5"/>
<circle cy="566.04" r="11.5"/>
<circle cy="588.68" r="11.5"/>
<circle cy="611.32" r="11.5"/>
<circle cy="633.96" r="11.5"/>
<circle cy="656.6" r="11.5"/>
<circle cy="679.25" r="11.5"/>
<circle cy="701.89" r="11.5"/>
<circle cy="724.53" r="11.5"/>
<circle cy="747.17" r="11.5"/>
<circle cy="769.81" r="11.5"/>
<circle cy="792.45" r="11.5"/>
<circle cy="815.09" r="11.5"/>
<circle cy="837.74" r="11.5"/>
<circle cy="860.38" r="11.5"/>
<circle cy="883.02" r="11.5"/>
<circle cy="905.66" r="11.5"/>
<circle cy="928.3" r="11.5"/>
<circle cy="950.94" r="11.5"/>
<circle cy="973.58" r="11.5"/>
<circle cy="996.23" r="11.5"/>
<circle cy="1018.87" r="11.5"/>
<circle cy="1041.51" r="11.5"/>
<circle cy="1064.15" r="11.5"/>
<circle cy="1086.79" r="11.5"/>
<circle cy="1109.43" r="11.5"/>
<circle cy="1132.08" r="11.5"/>
<circle cy="1154.72" r="11.5"/>
<circle cy="1177.36" r="11.5"/>
</g>
</g>
<g fill="white" text-anchor="middle">
<g font-size="14">
<text y="4.67">1</text>
<text y="1204.67">1</text>
<text y="244.67">2</text>
<text y="484.67">3</text>
<text y="724.67">4</text>
<text y="964.67">5</text>
</g>
<g transform="translate(30 0)">
<g font-size="12">
<text y="1084">10</text>
</g>
<g font-size="14">
<text y="4.67">1</text>
<text y="1204.67">1</text>
<text y="124.67">2</text>
<text y="244.67">3</text>
<text y="364.67">4</text>
<text y="484.67">5</text>
<text y="604.67">6</text>
<text y="724.67">7</text>
<text y="844.67">8</text>
<text y="964.67">9</text>
</g>
</g>
<g transform="translate(75 0)">
<g font-size="14">
<text y="4.67">1</text>
<text y="1204.67">1</text>
<text y="176.1">2</text>
<text y="347.52">3</text>
<text y="518.95">4</text>
<text y="690.38">5</text>
<text y="861.81">6</text>
<text y="1033.24">7</text>
</g>
</g>
<g transform="translate(120 0)">
<g font-size="12">
<text y="985.82">10</text>
<text y="1094.91">11</text>
</g>
<g font-size="14">
<text y="4.67">1</text>
<text y="1204.67">1</text>
<text y="113.76">2</text>
<text y="222.85">3</text>
<text y="331.94">4</text>
<text y="441.03">5</text>
<text y="550.12">6</text>
<text y="659.21">7</text>
<text y="768.3">8</text>
<text y="877.39">9</text>
</g>
</g>
<g transform="translate(150 0)">
<g font-size="12">
<text y="494.91">10</text>
<text y="549.45">11</text>
<text y="604">12</text>
<text y="658.55">13</text>
<text y="713.09">14</text>
<text y="767.64">15</text>
<text y="822.18">16</text>
<text y="876.73">17</text>
<text y="931.27">18</text>
<text y="985.82">19</text>
<text y="1040.36">20</text>
<text y="1094.91">21</text>
<text y="1149.45">22</text>
</g>
<g font-size="14">
<text y="4.67">1</text>
<text y="1204.67">1</text>
<text y="59.21">2</text>
<text y="113.76">3</text>
<text y="168.3">4</text>
<text y="222.85">5</text>
<text y="277.39">6</text>
<text y="331.94">7</text>
<text y="386.48">8</text>
<text y="441.03">9</text>
</g>
</g>
<g transform="translate(195 0)">
<g font-size="12">
<text y="679">10</text>
<text y="754">11</text>
<text y="829">12</text>
<text y="904">13</text>
<text y="979">14</text>
<text y="1054">15</text>
<text y="1129">16</text>
</g>
<g font-size="14">
<text y="4.67">1</text>
<text y="1204.67">1</text>
<text y="79.67">2</text>
<text y="154.67">3</text>
<text y="229.67">4</text>
<text y="304.67">5</text>
<text y="379.67">6</text>
<text y="454.67">7</text>
<text y="529.67">8</text>
<text y="604.67">9</text>
</g>
</g>
<g transform="translate(240 0)">
<g font-size="12">
<text y="639.29">10</text>
<text y="709.88">11</text>
<text y="780.47">12</text>
<text y="851.06">13</text>
<text y="921.65">14</text>
<text y="992.24">15</text>
<text y="1062.82">16</text>
<text y="1133.41">17</text>
</g>
<g font-size="14">
<text y="4.67">1</text>
<text y="1204.67">1</text>
<text y="75.25">2</text>
<text y="145.84">3</text>
<text y="216.43">4</text>
<text y="287.02">5</text>
<text y="357.61">6</text>
<text y="428.2">7</text>
<text y="498.78">8</text>
<text y="569.37">9</text>
</g>
</g>
<g transform="translate(270 0)">
<g font-size="12">
<text y="321.65">10</text>
<text y="356.94">11</text>
<text y="392.24">12</text>
<text y="427.53">13</text>
<text y="462.82">14</text>
<text y="498.12">15</text>
<text y="533.41">16</text>
<text y="568.71">17</text>
<text y="604">18</text>
<text y="639.29">19</text>
<text y="674.59">20</text>
<text y="709.88">21</text>
<text y="745.18">22</text>
<text y="780.47">23</text>
<text y="815.76">24</text>
<text y="851.06">25</text>
<text y="886.35">26</text>
<text y="921.65">27</text>
<text y="956.94">28</text>
<text y="992.24">29</text>
<text y="1027.53">30</text>
<text y="1062.82">31</text>
<text y="1098.12">32</text>
<text y="1133.41">33</text>
<text y="1168.71">34</text>
</g>
<g font-size="14">
<text y="4.67">1</text>
<text y="1204.67">1</text>
<text y="39.96">2</text>
<text y="75.25">3</text>
<text y="110.55">4</text>
<text y="145.84">5</text>
<text y="181.14">6</text>
<text y="216.43">7</text>
<text y="251.73">8</text>
<text y="287.02">9</text>
</g>
</g>
<g transform="translate(315 0)">
<g font-size="10">
<text y="440.44">Eâ™¯</text>
<text y="450.44">Fâ™­</text>
<text y="1135.18">Bâ™¯</text>
<text y="1145.18">Câ™­</text>
</g>
<g font-size="12">
<text y="67.16">Câ™¯</text>
<text y="130.32">Dâ™­</text>
<text y="256.63">Dâ™¯</text>
<text y="319.79">Eâ™­</text>
<text y="572.42">Fâ™¯</text>
<text y="635.58">Gâ™­</text>
<text y="761.89">Gâ™¯</text>
<text y="825.05">Aâ™­</text>
<text y="951.37">Aâ™¯</text>
<text y="1014.53">Bâ™­</text>
</g>
<g font-size="14">
<text y="4.67">C</text>
<text y="1204.67">C</text>
<text y="194.14">D</text>
<text y="383.61">E</text>
<text y="509.93">F</text>
<text y="699.4">G</text>
<text y="888.88">A</text>
<text y="1078.35">B</text>
</g>
</g>
<g transform="translate(345 0)">
<g font-size="10">
<text y="27.33">Bğ„ª</text>
<text y="51.33">Dğ„«</text>
<text y="147.33">Cğ„ª</text>
<text y="243.33">Eğ„«</text>
<text y="339.33">Dğ„ª</text>
<text y="363.33">Fğ„«</text>
<text y="531.33">Eğ„ª</text>
<text y="555.33">Gğ„«</text>
<text y="651.33">Fğ„ª</text>
<text y="747.33">Ağ„«</text>
<text y="843.33">Gğ„ª</text>
<text y="939.33">Bğ„«</text>
<text y="1035.33">Ağ„ª</text>
<text y="1059.33">Cğ„«</text>
</g>
<g font-size="12">
<text y="76">Câ™¯</text>
<text y="124">Dâ™­</text>
<text y="268">Dâ™¯</text>
<text y="316">Eâ™­</text>
<text y="436">Fâ™­</text>
<text y="460">Eâ™¯</text>
<text y="580">Fâ™¯</text>
<text y="628">Gâ™­</text>
<text y="772">Gâ™¯</text>
<text y="820">Aâ™­</text>
<text y="964">Aâ™¯</text>
<text y="1012">Bâ™­</text>
<text y="1132">Câ™­</text>
<text y="1156">Bâ™¯</text>
</g>
<g font-size="14">
<text y="4.67">C</text>
<text y="1204.67">C</text>
<text y="196.67">D</text>
<text y="388.67">E</text>
<text y="508.67">F</text>
<text y="700.67">G</text>
<text y="892.67">A</text>
<text y="1084.67">B</text>
</g>
</g>
<g transform="translate(375 0)">
<g font-size="10">
<text y="37.04">Bğ„ª</text>
<text y="47.04">Dğ„«</text>
<text y="158.17">Cğ„ª</text>
<text y="235.59">Eğ„«</text>
<text y="346.72">Dğ„ª</text>
<text y="356.72">Fğ„«</text>
<text y="540.27">Eğ„ª</text>
<text y="550.27">Gğ„«</text>
<text y="661.4">Fğ„ª</text>
<text y="738.82">Ağ„«</text>
<text y="854.95">Gğ„ª</text>
<text y="932.37">Bğ„«</text>
<text y="1043.49">Ağ„ª</text>
<text y="1053.49">Cğ„«</text>
</g>
<g font-size="12">
<text y="81.42">Câ™¯</text>
<text y="120.13">Dâ™­</text>
<text y="274.97">Dâ™¯</text>
<text y="313.68">Eâ™­</text>
<text y="429.81">Fâ™­</text>
<text y="468.52">Eâ™¯</text>
<text y="584.65">Fâ™¯</text>
<text y="623.35">Gâ™­</text>
<text y="778.19">Gâ™¯</text>
<text y="816.9">Aâ™­</text>
<text y="971.74">Aâ™¯</text>
<text y="1010.45">Bâ™­</text>
<text y="1126.58">Câ™­</text>
<text y="1165.29">Bâ™¯</text>
</g>
<g font-size="14">
<text y="4.67">C</text>
<text y="1204.67">C</text>
<text y="198.22">D</text>
<text y="391.76">E</text>
<text y="507.89">F</text>
<text y="701.44">G</text>
<text y="894.99">A</text>
<text y="1088.54">B</text>
</g>
</g>
<g transform="translate(405 0)">
<g font-size="10">
<text y="31.24">Dğ„«</text>
<text y="59.15">Bğ„ª</text>
<text y="170.78">Cğ„ª</text>
<text y="226.59">Eğ„«</text>
<text y="338.22">Fğ„«</text>
<text y="366.12">Dğ„ª</text>
<text y="533.57">Gğ„«</text>
<text y="561.47">Eğ„ª</text>
<text y="673.1">Fğ„ª</text>
<text y="728.91">Ağ„«</text>
<text y="868.45">Gğ„ª</text>
<text y="924.26">Bğ„«</text>
<text y="1035.89">Cğ„«</text>
<text y="1063.8">Ağ„ª</text>
</g>
<g font-size="12">
<text y="87.72">Câ™¯</text>
<text y="115.63">Dâ™­</text>
<text y="283.07">Dâ™¯</text>
<text y="310.98">Eâ™­</text>
<text y="422.6">Fâ™­</text>
<text y="478.42">Eâ™¯</text>
<text y="590.05">Fâ™¯</text>
<text y="617.95">Gâ™­</text>
<text y="785.4">Gâ™¯</text>
<text y="813.3">Aâ™­</text>
<text y="980.74">Aâ™¯</text>
<text y="1008.65">Bâ™­</text>
<text y="1120.28">Câ™­</text>
<text y="1176.09">Bâ™¯</text>
</g>
<g font-size="14">
<text y="4.67">C</text>
<text y="1204.67">C</text>
<text y="200.02">D</text>
<text y="395.36">E</text>
<text y="506.99">F</text>
<text y="702.34">G</text>
<text y="897.69">A</text>
<text y="1093.04">B</text>
</g>
</g>
<g transform="translate(435 0)">
<g font-size="10">
<text y="25.15">Dğ„«</text>
<text y="68.79">Bğ„ª</text>
<text y="177.88">Cğ„ª</text>
<text y="221.52">Eğ„«</text>
<text y="330.61">Fğ„«</text>
<text y="374.24">Dğ„ª</text>
<text y="526.97">Gğ„«</text>
<text y="570.61">Eğ„ª</text>
<text y="679.7">Fğ„ª</text>
<text y="723.33">Ağ„«</text>
<text y="876.06">Gğ„ª</text>
<text y="919.7">Bğ„«</text>
<text y="1028.79">Cğ„«</text>
<text y="1072.42">Ağ„ª</text>
</g>
<g font-size="12">
<text y="91.27">Câ™¯</text>
<text y="113.09">Dâ™­</text>
<text y="287.64">Dâ™¯</text>
<text y="309.45">Eâ™­</text>
<text y="418.55">Fâ™­</text>
<text y="484">Eâ™¯</text>
<text y="593.09">Fâ™¯</text>
<text y="614.91">Gâ™­</text>
<text y="789.45">Gâ™¯</text>
<text y="811.27">Aâ™­</text>
<text y="985.82">Aâ™¯</text>
<text y="1007.64">Bâ™­</text>
<text y="1116.73">Câ™­</text>
<text y="1182.18">Bâ™¯</text>
</g>
<g font-size="14">
<text y="4.67">C</text>
<text y="1204.67">C</text>
<text y="201.03">D</text>
<text y="397.39">E</text>
<text y="506.48">F</text>
<text y="702.85">G</text>
<text y="899.21">A</text>
<text y="1095.58">B</text>
</g>
</g>
<g transform="translate(480 0)">
<g font-size="10">
<text y="98.33">Câ™¯</text>
<text y="108.33">Dâ™­</text>
<text y="298.33">Dâ™¯</text>
<text y="308.33">Eâ™­</text>
<text y="598.33">Fâ™¯</text>
<text y="608.33">Gâ™­</text>
<text y="798.33">Gâ™¯</text>
<text y="808.33">Aâ™­</text>
<text y="998.33">Aâ™¯</text>
<text y="1008.33">Bâ™­</text>
</g>
<g font-size="14">
<text y="4.67">C</text>
<text y="1204.67">C</text>
<text y="204.67">D</text>
<text y="404.67">E</text>
<text y="504.67">F</text>
<text y="704.67">G</text>
<text y="904.67">A</text>
<text y="1104.67">B</text>
</g>
</g>
<g transform="translate(510 0)">
<g font-size="12">
<text y="454">10</text>
<text y="504">11</text>
<text y="554">12</text>
<text y="604">13</text>
<text y="654">14</text>
<text y="704">15</text>
<text y="754">16</text>
<text y="804">17</text>
<text y="854">18</text>
<text y="904">19</text>
<text y="954">20</text>
<text y="1004">21</text>
<text y="1054">22</text>
<text y="1104">23</text>
<text y="1154">24</text>
</g>
<g font-size="14">
<text y="4.67">1</text>
<text y="1204.67">1</text>
<text y="54.67">2</text>
<text y="104.67">3</text>
<text y="154.67">4</text>
<text y="204.67">5</text>
<text y="254.67">6</text>
<text y="304.67">7</text>
<text y="354.67">8</text>
<text y="404.67">9</text>
</g>
</g>
<g transform="translate(540 0)">
<g font-size="12">
<text y="304">10</text>
<text y="337.33">11</text>
<text y="370.67">12</text>
<text y="404">13</text>
<text y="437.33">14</text>
<text y="470.67">15</text>
<text y="504">16</text>
<text y="537.33">17</text>
<text y="570.67">18</text>
<text y="604">19</text>
<text y="637.33">20</text>
<text y="670.67">21</text>
<text y="704">22</text>
<text y="737.33">23</text>
<text y="770.67">24</text>
<text y="804">25</text>
<text y="837.33">26</text>
<text y="870.67">27</text>
<text y="904">28</text>
<text y="937.33">29</text>
<text y="970.67">30</text>
<text y="1004">31</text>
<text y="1037.33">32</text>
<text y="1070.67">33</text>
<text y="1104">34</text>
<text y="1137.33">35</text>
<text y="1170.67">36</text>
</g>
<g font-size="14">
<text y="4.67">1</text>
<text y="1204.67">1</text>
<text y="38">2</text>
<text y="71.33">3</text>
<text y="104.67">4</text>
<text y="138">5</text>
<text y="171.33">6</text>
<text y="204.67">7</text>
<text y="238">8</text>
<text y="271.33">9</text>
</g>
</g>
<g transform="translate(585 0)">
<g font-size="12">
<text y="419.38">10</text>
<text y="465.54">11</text>
<text y="511.69">12</text>
<text y="557.85">13</text>
<text y="604">14</text>
<text y="650.15">15</text>
<text y="696.31">16</text>
<text y="742.46">17</text>
<text y="788.62">18</text>
<text y="834.77">19</text>
<text y="880.92">20</text>
<text y="927.08">21</text>
<text y="973.23">22</text>
<text y="1019.38">23</text>
<text y="1065.54">24</text>
<text y="1111.69">25</text>
<text y="1157.85">26</text>
</g>
<g font-size="14">
<text y="4.67">1</text>
<text y="1204.67">1</text>
<text y="50.82">2</text>
<text y="96.97">3</text>
<text y="143.13">4</text>
<text y="189.28">5</text>
<text y="235.44">6</text>
<text y="281.59">7</text>
<text y="327.74">8</text>
<text y="373.9">9</text>
</g>
</g>
<g transform="translate(630 0)">
<g font-size="12">
<text y="267.41">10</text>
<text y="296.68">11</text>
<text y="325.95">12</text>
<text y="355.22">13</text>
<text y="384.49">14</text>
<text y="413.76">15</text>
<text y="443.02">16</text>
<text y="472.29">17</text>
<text y="501.56">18</text>
<text y="530.83">19</text>
<text y="560.1">20</text>
<text y="589.37">21</text>
<text y="618.63">22</text>
<text y="647.9">23</text>
<text y="677.17">24</text>
<text y="706.44">25</text>
<text y="735.71">26</text>
<text y="764.98">27</text>
<text y="794.24">28</text>
<text y="823.51">29</text>
<text y="852.78">30</text>
<text y="882.05">31</text>
<text y="911.32">32</text>
<text y="940.59">33</text>
<text y="969.85">34</text>
<text y="999.12">35</text>
<text y="1028.39">36</text>
<text y="1057.66">37</text>
<text y="1086.93">38</text>
<text y="1116.2">39</text>
<text y="1145.46">40</text>
<text y="1174.73">41</text>
</g>
<g font-size="14">
<text y="4.67">1</text>
<text y="1204.67">1</text>
<text y="33.93">2</text>
<text y="63.2">3</text>
<text y="92.47">4</text>
<text y="121.74">5</text>
<text y="151.01">6</text>
<text y="180.28">7</text>
<text y="209.54">8</text>
<text y="238.81">9</text>
</g>
</g>
<g transform="translate(675 0)">
<g font-size="12">
<text y="207.77">10</text>
<text y="230.42">11</text>
<text y="253.06">12</text>
<text y="275.7">13</text>
<text y="298.34">14</text>
<text y="320.98">15</text>
<text y="343.62">16</text>
<text y="366.26">17</text>
<text y="388.91">18</text>
<text y="411.55">19</text>
<text y="434.19">20</text>
<text y="456.83">21</text>
<text y="479.47">22</text>
<text y="502.11">23</text>
<text y="524.75">24</text>
<text y="547.4">25</text>
<text y="570.04">26</text>
<text y="592.68">27</text>
<text y="615.32">28</text>
<text y="637.96">29</text>
<text y="660.6">30</text>
<text y="683.25">31</text>
<text y="705.89">32</text>
<text y="728.53">33</text>
<text y="751.17">34</text>
<text y="773.81">35</text>
<text y="796.45">36</text>
<text y="819.09">37</text>
<text y="841.74">38</text>
<text y="864.38">39</text>
<text y="887.02">40</text>
<text y="909.66">41</text>
<text y="932.3">42</text>
<text y="954.94">43</text>
<text y="977.58">44</text>
<text y="1000.23">45</text>
<text y="1022.87">46</text>
<text y="1045.51">47</text>
<text y="1068.15">48</text>
<text y="1090.79">49</text>
<text y="1113.43">50</text>
<text y="1136.08">51</text>
<text y="1158.72">52</text>
<text y="1181.36">53</text>
</g>
<g font-size="14">
<text y="4.67">1</text>
<text y="1204.67">1</text>
<text y="27.31">2</text>
<text y="49.95">3</text>
<text y="72.59">4</text>
<text y="95.23">5</text>
<text y="117.87">6</text>
<text y="140.52">7</text>
<text y="163.16">8</text>
<text y="185.8">9</text>
</g>
</g>
</g>
</g>
<a href="https://www.fidolab.org">
<text fill="grey" font-size="20" font-style="italic" text-anchor="middle" x="555" y="1378">www.FidoLab.org</text>
</a>
</g>
</svg>
