<?xml version="1.0"?>
<!DOCTYPE svg PUBLIC "-//W3C//DTD SVG 1.1//EN" "http://www.w3.org/Graphics/SVG/1.1/DTD/svg11.dtd">
<svg xmlns="http://www.w3.org/2000/svg" xmlns:xlink="http://www.w3.org/1999/xlink" width="870" height="1593">
<g style="font-family: Times New Roman;">
<text font-size="36" text-anchor="middle" x="435" y="36">Meantone Temperaments</text>
<g transform="translate(100 347)">
<g fill="transparent" stroke="black" stroke-width="1">
<path d="M0 0 H20 V1200 H0"/>
<path d="M0 100 H20"/>
<path d="M0 200 H20"/>
<path d="M0 300 H20"/>
<path d="M0 400 H20"/>
<path d="M0 500 H20"/>
<path d="M0 600 H20"/>
<path d="M0 700 H20"/>
<path d="M0 800 H20"/>
<path d="M0 900 H20"/>
<path d="M0 1000 H20"/>
<path d="M0 1100 H20"/>
<g transform="translate(7 0)">
<path d="M0 10 H13"/>
<path d="M0 20 H13"/>
<path d="M0 30 H13"/>
<path d="M0 40 H13"/>
<path d="M0 50 H13"/>
<path d="M0 60 H13"/>
<path d="M0 70 H13"/>
<path d="M0 80 H13"/>
<path d="M0 90 H13"/>
<path d="M0 110 H13"/>
<path d="M0 120 H13"/>
<path d="M0 130 H13"/>
<path d="M0 140 H13"/>
<path d="M0 150 H13"/>
<path d="M0 160 H13"/>
<path d="M0 170 H13"/>
<path d="M0 180 H13"/>
<path d="M0 190 H13"/>
<path d="M0 210 H13"/>
<path d="M0 220 H13"/>
<path d="M0 230 H13"/>
<path d="M0 240 H13"/>
<path d="M0 250 H13"/>
<path d="M0 260 H13"/>
<path d="M0 270 H13"/>
<path d="M0 280 H13"/>
<path d="M0 290 H13"/>
<path d="M0 310 H13"/>
<path d="M0 320 H13"/>
<path d="M0 330 H13"/>
<path d="M0 340 H13"/>
<path d="M0 350 H13"/>
<path d="M0 360 H13"/>
<path d="M0 370 H13"/>
<path d="M0 380 H13"/>
<path d="M0 390 H13"/>
<path d="M0 410 H13"/>
<path d="M0 420 H13"/>
<path d="M0 430 H13"/>
<path d="M0 440 H13"/>
<path d="M0 450 H13"/>
<path d="M0 460 H13"/>
<path d="M0 470 H13"/>
<path d="M0 480 H13"/>
<path d="M0 490 H13"/>
<path d="M0 510 H13"/>
<path d="M0 520 H13"/>
<path d="M0 530 H13"/>
<path d="M0 540 H13"/>
<path d="M0 550 H13"/>
<path d="M0 560 H13"/>
<path d="M0 570 H13"/>
<path d="M0 580 H13"/>
<path d="M0 590 H13"/>
<path d="M0 610 H13"/>
<path d="M0 620 H13"/>
<path d="M0 630 H13"/>
<path d="M0 640 H13"/>
<path d="M0 650 H13"/>
<path d="M0 660 H13"/>
<path d="M0 670 H13"/>
<path d="M0 680 H13"/>
<path d="M0 690 H13"/>
<path d="M0 710 H13"/>
<path d="M0 720 H13"/>
<path d="M0 730 H13"/>
<path d="M0 740 H13"/>
<path d="M0 750 H13"/>
<path d="M0 760 H13"/>
<path d="M0 770 H13"/>
<path d="M0 780 H13"/>
<path d="M0 790 H13"/>
<path d="M0 810 H13"/>
<path d="M0 820 H13"/>
<path d="M0 830 H13"/>
<path d="M0 840 H13"/>
<path d="M0 850 H13"/>
<path d="M0 860 H13"/>
<path d="M0 870 H13"/>
<path d="M0 880 H13"/>
<path d="M0 890 H13"/>
<path d="M0 910 H13"/>
<path d="M0 920 H13"/>
<path d="M0 930 H13"/>
<path d="M0 940 H13"/>
<path d="M0 950 H13"/>
<path d="M0 960 H13"/>
<path d="M0 970 H13"/>
<path d="M0 980 H13"/>
<path d="M0 990 H13"/>
<path d="M0 1010 H13"/>
<path d="M0 1020 H13"/>
<path d="M0 1030 H13"/>
<path d="M0 1040 H13"/>
<path d="M0 1050 H13"/>
<path d="M0 1060 H13"/>
<path d="M0 1070 H13"/>
<path d="M0 1080 H13"/>
<path d="M0 1090 H13"/>
<path d="M0 1110 H13"/>
<path d="M0 1120 H13"/>
<path d="M0 1130 H13"/>
<path d="M0 1140 H13"/>
<path d="M0 1150 H13"/>
<path d="M0 1160 H13"/>
<path d="M0 1170 H13"/>
<path d="M0 1180 H13"/>
<path d="M0 1190 H13"/>
</g>
<g transform="translate(13 0)">
<path d="M0 5 H7"/>
<path d="M0 15 H7"/>
<path d="M0 25 H7"/>
<path d="M0 35 H7"/>
<path d="M0 45 H7"/>
<path d="M0 55 H7"/>
<path d="M0 65 H7"/>
<path d="M0 75 H7"/>
<path d="M0 85 H7"/>
<path d="M0 95 H7"/>
<path d="M0 105 H7"/>
<path d="M0 115 H7"/>
<path d="M0 125 H7"/>
<path d="M0 135 H7"/>
<path d="M0 145 H7"/>
<path d="M0 155 H7"/>
<path d="M0 165 H7"/>
<path d="M0 175 H7"/>
<path d="M0 185 H7"/>
<path d="M0 195 H7"/>
<path d="M0 205 H7"/>
<path d="M0 215 H7"/>
<path d="M0 225 H7"/>
<path d="M0 235 H7"/>
<path d="M0 245 H7"/>
<path d="M0 255 H7"/>
<path d="M0 265 H7"/>
<path d="M0 275 H7"/>
<path d="M0 285 H7"/>
<path d="M0 295 H7"/>
<path d="M0 305 H7"/>
<path d="M0 315 H7"/>
<path d="M0 325 H7"/>
<path d="M0 335 H7"/>
<path d="M0 345 H7"/>
<path d="M0 355 H7"/>
<path d="M0 365 H7"/>
<path d="M0 375 H7"/>
<path d="M0 385 H7"/>
<path d="M0 395 H7"/>
<path d="M0 405 H7"/>
<path d="M0 415 H7"/>
<path d="M0 425 H7"/>
<path d="M0 435 H7"/>
<path d="M0 445 H7"/>
<path d="M0 455 H7"/>
<path d="M0 465 H7"/>
<path d="M0 475 H7"/>
<path d="M0 485 H7"/>
<path d="M0 495 H7"/>
<path d="M0 505 H7"/>
<path d="M0 515 H7"/>
<path d="M0 525 H7"/>
<path d="M0 535 H7"/>
<path d="M0 545 H7"/>
<path d="M0 555 H7"/>
<path d="M0 565 H7"/>
<path d="M0 575 H7"/>
<path d="M0 585 H7"/>
<path d="M0 595 H7"/>
<path d="M0 605 H7"/>
<path d="M0 615 H7"/>
<path d="M0 625 H7"/>
<path d="M0 635 H7"/>
<path d="M0 645 H7"/>
<path d="M0 655 H7"/>
<path d="M0 665 H7"/>
<path d="M0 675 H7"/>
<path d="M0 685 H7"/>
<path d="M0 695 H7"/>
<path d="M0 705 H7"/>
<path d="M0 715 H7"/>
<path d="M0 725 H7"/>
<path d="M0 735 H7"/>
<path d="M0 745 H7"/>
<path d="M0 755 H7"/>
<path d="M0 765 H7"/>
<path d="M0 775 H7"/>
<path d="M0 785 H7"/>
<path d="M0 795 H7"/>
<path d="M0 805 H7"/>
<path d="M0 815 H7"/>
<path d="M0 825 H7"/>
<path d="M0 835 H7"/>
<path d="M0 845 H7"/>
<path d="M0 855 H7"/>
<path d="M0 865 H7"/>
<path d="M0 875 H7"/>
<path d="M0 885 H7"/>
<path d="M0 895 H7"/>
<path d="M0 905 H7"/>
<path d="M0 915 H7"/>
<path d="M0 925 H7"/>
<path d="M0 935 H7"/>
<path d="M0 945 H7"/>
<path d="M0 955 H7"/>
<path d="M0 965 H7"/>
<path d="M0 975 H7"/>
<path d="M0 985 H7"/>
<path d="M0 995 H7"/>
<path d="M0 1005 H7"/>
<path d="M0 1015 H7"/>
<path d="M0 1025 H7"/>
<path d="M0 1035 H7"/>
<path d="M0 1045 H7"/>
<path d="M0 1055 H7"/>
<path d="M0 1065 H7"/>
<path d="M0 1075 H7"/>
<path d="M0 1085 H7"/>
<path d="M0 1095 H7"/>
<path d="M0 1105 H7"/>
<path d="M0 1115 H7"/>
<path d="M0 1125 H7"/>
<path d="M0 1135 H7"/>
<path d="M0 1145 H7"/>
<path d="M0 1155 H7"/>
<path d="M0 1165 H7"/>
<path d="M0 1175 H7"/>
<path d="M0 1185 H7"/>
<path d="M0 1195 H7"/>
</g>
</g>
<g fill="black" font-size="20" text-anchor="end" transform="translate(-5 6.7)">
<text y="0">0</text>
<text y="100">100</text>
<text y="200">200</text>
<text y="300">300</text>
<text y="400">400</text>
<text y="500">500</text>
<text y="600">600</text>
<text y="700">700</text>
<text y="800">800</text>
<text y="900">900</text>
<text y="1000">1000</text>
<text y="1100">1100</text>
<text y="1200">1200</text>
</g>
<g fill="black" font-size="13" text-anchor="end" transform="translate(2 4.3)">
<text y="20">20</text>
<text y="40">40</text>
<text y="60">60</text>
<text y="80">80</text>
<text y="120">120</text>
<text y="140">140</text>
<text y="160">160</text>
<text y="180">180</text>
<text y="220">220</text>
<text y="240">240</text>
<text y="260">260</text>
<text y="280">280</text>
<text y="320">320</text>
<text y="340">340</text>
<text y="360">360</text>
<text y="380">380</text>
<text y="420">420</text>
<text y="440">440</text>
<text y="460">460</text>
<text y="480">480</text>
<text y="520">520</text>
<text y="540">540</text>
<text y="560">560</text>
<text y="580">580</text>
<text y="620">620</text>
<text y="640">640</text>
<text y="660">660</text>
<text y="680">680</text>
<text y="720">720</text>
<text y="740">740</text>
<text y="760">760</text>
<text y="780">780</text>
<text y="820">820</text>
<text y="840">840</text>
<text y="860">860</text>
<text y="880">880</text>
<text y="920">920</text>
<text y="940">940</text>
<text y="960">960</text>
<text y="980">980</text>
<text y="1020">1020</text>
<text y="1040">1040</text>
<text y="1060">1060</text>
<text y="1080">1080</text>
<text y="1120">1120</text>
<text y="1140">1140</text>
<text y="1160">1160</text>
<text y="1180">1180</text>
</g>
</g>
<g transform="translate(125 347)">
<g fill="transparent" stroke="black">
<g stroke-width="1">
<path d="M0 21.51 H520"/>
<path d="M0 41.06 H520"/>
<path d="M0 70.67 H520"/>
<path d="M0 92.18 H520"/>
<path d="M0 111.73 H520"/>
<path d="M0 133.24 H520"/>
<path d="M0 294.13 H520"/>
<path d="M0 407.82 H518.58 L520 404.98"/>
<path d="M0 427.37 H516.8 L520 420.98"/>
<path d="M0 456.99 H520"/>
<path d="M0 519.55 H520"/>
<path d="M0 568.72 H513 L520 554.72"/>
<path d="M0 590.22 H520"/>
<path d="M0 609.78 H520"/>
<path d="M0 631.28 H513.09 L520 645.11"/>
<path d="M0 680.45 H520"/>
<path d="M0 743.01 H520"/>
<path d="M0 772.63 H520"/>
<path d="M0 792.18 H520"/>
<path d="M0 840.53 H520"/>
<path d="M0 905.87 H520"/>
<path d="M0 1049.36 H520"/>
<path d="M0 1066.76 H520"/>
<path d="M0 1088.27 H520"/>
<path d="M0 1109.78 H520"/>
<path d="M0 1137.04 H520"/>
<path d="M0 1158.94 H520"/>
<path d="M0 1178.49 H520"/>
</g>
<g stroke-width="2">
<path d="M0 182.4 H520"/>
<path d="M0 203.91 H520"/>
<path d="M0 231.17 H520"/>
<path d="M0 266.87 H520"/>
<path d="M0 435.08 H518.55 L520 437.98"/>
<path d="M0 582.51 H514.94 L520 572.38"/>
<path d="M0 617.49 H515.02 L520 627.44"/>
<path d="M0 933.13 H520"/>
<path d="M0 968.83 H520"/>
<path d="M0 996.09 H520"/>
<path d="M0 1017.6 H520"/>
</g>
<g stroke-width="3">
<path d="M0 0 H520"/>
<path d="M0 315.64 H520"/>
<path d="M0 386.31 H520"/>
<path d="M0 498.04 H520"/>
<path d="M0 701.96 H520"/>
<path d="M0 813.69 H520"/>
<path d="M0 884.36 H520"/>
<path d="M0 1200 H520"/>
</g>
</g>
<g transform="translate(524 0)">
<g font-size="12">
<text y="25.51">81/80 syntonic comma</text>
<text y="45.06">128/125 diminished 2nd</text>
<text y="74.67">25/24 chromatic semitone</text>
<text y="96.18">135/128</text>
<text y="115.73">16/15 diatonic semitone</text>
<text y="137.24">27/25</text>
<text y="298.13">32/27 Pythagorean minor 3rd</text>
<text y="408.98">81/64 ditone</text>
<text y="424.98">32/25 diminished 4th</text>
<text y="460.99">125/96 augmented 3rd</text>
<text y="523.55">27/20</text>
<text y="558.72">25/18 augmented 4th </text>
<text y="594.22">45/32 high / diatonic tritone</text>
<text y="613.78">64/45 low tritone</text>
<text y="649.11">36/25 diminished 5th</text>
<text y="684.45">40/27 dissonant "wolf" 5th</text>
<text y="747.01">192/125 diminished 6th</text>
<text y="776.63">25/16 augmented 5th</text>
<text y="796.18">128/81 Pythagorean minor 6th</text>
<text y="844.53">13/8 overtone 6th</text>
<text y="909.87">27/16 Pythagorean major 6th</text>
<text y="1053.36">11/6 undecimal "median" 7th</text>
<text y="1070.76">50/27</text>
<text y="1092.27">15/8 major 7th</text>
<text y="1113.78">243/128 Pythagorean major 7th</text>
<text y="1141.04">27/14 septimal major 7th</text>
<text y="1162.94">125/64 augmented 7th</text>
<text y="1182.49">160/81</text>
</g>
<g font-size="15">
<text y="187.4">10/9 minor 2nd</text>
<text y="208.91">9/8 major 2nd</text>
<text y="442.98">9/7 septimal major 3rd</text>
<text y="1001.09">16/9 Pythagorean small min. 7th</text>
<text y="1022.6">9/5 minor 7th</text>
</g>
<g font-size="17">
<text y="236.84">8/7 septimal major 2nd</text>
<text y="272.54">7/6 septimal minor 3rd</text>
<text y="578.05">7/5 septimal tritone</text>
<text y="633.11">10/7 septimal tritone</text>
<text y="938.8">12/7 septimal major 6th</text>
<text y="974.49">7/4 harmonic 7th</text>
</g>
<g font-size="20">
<text y="6.67">1/1 tonic</text>
<text y="322.31">6/5 minor 3rd</text>
<text y="392.98">5/4 major 3rd</text>
<text y="504.71">4/3 major 4th</text>
<text y="708.62">3/2 perfect 5th</text>
<text y="820.35">8/5 minor 6th</text>
<text y="891.03">5/3 major 6th</text>
<text y="1206.67">2/1 octave</text>
</g>
</g>
<g stroke="lightgrey" stroke-dasharray="3 3">
<path d="M0 100 H520"/>
<path d="M0 200 H520"/>
<path d="M0 300 H520"/>
<path d="M0 400 H520"/>
<path d="M0 500 H520"/>
<path d="M0 600 H520"/>
<path d="M0 700 H520"/>
<path d="M0 800 H520"/>
<path d="M0 900 H520"/>
<path d="M0 1000 H520"/>
<path d="M0 1100 H520"/>
</g>
</g>
<g font-size="20" text-anchor="left" transform="translate(150 327) rotate(270)">
<text y="0">12-TET (1/11 SC, 1/12 PC)</text>
<text y="30">1/7 SC Meantone</text>
<text y="60">1/7 PC Meantone</text>
<text y="90">1/6 SC Meantone</text>
<text y="120">55-TET</text>
<text y="150">1/6 PC Meantone</text>
<text y="180">43-TET</text>
<text y="210">1/5 SC Meantone</text>
<text y="240">1/5 PC Meantone</text>
<text y="270">31-TET</text>
<text y="300">1/4 SC Meantone</text>
<text y="330">1/4 PC Meantone</text>
<text y="360">50-TET</text>
<text y="390">2/7 SC Meantone</text>
<text y="420">2/7 PC Meantone</text>
<text y="450">1/3 SC Meantone</text>
<text y="480">19-TET</text>
</g>
<g transform="translate(145 347)">
<g stroke="grey">
<path d="M0 0 V1200"/>
<path d="M30 0 V1200"/>
<path d="M60 0 V1200"/>
<path d="M90 0 V1200"/>
<path d="M120 0 V1200"/>
<path d="M150 0 V1200"/>
<path d="M180 0 V1200"/>
<path d="M210 0 V1200"/>
<path d="M240 0 V1200"/>
<path d="M270 0 V1200"/>
<path d="M300 0 V1200"/>
<path d="M330 0 V1200"/>
<path d="M360 0 V1200"/>
<path d="M390 0 V1200"/>
<path d="M420 0 V1200"/>
<path d="M450 0 V1200"/>
<path d="M480 0 V1200"/>
</g>
<g fill="#404040">
<circle cy="100" r="11.5"/>
<circle cy="300" r="11.5"/>
<circle cy="600" r="11.5"/>
<circle cy="800" r="11.5"/>
<circle cy="1000" r="11.5"/>
</g>
<g fill="#2020ff">
<circle cy="0" r="11.5"/>
<circle cy="1200" r="11.5"/>
<circle cy="200" r="11.5"/>
<circle cy="400" r="11.5"/>
<circle cy="500" r="11.5"/>
<circle cy="700" r="11.5"/>
<circle cy="900" r="11.5"/>
<circle cy="1100" r="11.5"/>
</g>
<g transform="translate(30 0)">
<g fill="#808080">
<circle cy="13.41" r="11.5"/>
<circle cy="78.77" r="11.5"/>
<circle cy="184.36" r="11.5"/>
<circle cy="211.17" r="11.5"/>
<circle cy="316.76" r="11.5"/>
<circle cy="382.12" r="11.5"/>
<circle cy="514.53" r="11.5"/>
<circle cy="579.89" r="11.5"/>
<circle cy="685.47" r="11.5"/>
<circle cy="712.29" r="11.5"/>
<circle cy="883.24" r="11.5"/>
<circle cy="910.06" r="11.5"/>
<circle cy="1015.64" r="11.5"/>
<circle cy="1081.01" r="11.5"/>
</g>
<g fill="#404040">
<circle cy="92.18" r="11.5"/>
<circle cy="105.59" r="11.5"/>
<circle cy="289.94" r="11.5"/>
<circle cy="303.35" r="11.5"/>
<circle cy="408.94" r="11.5"/>
<circle cy="487.71" r="11.5"/>
<circle cy="593.3" r="11.5"/>
<circle cy="606.7" r="11.5"/>
<circle cy="791.06" r="11.5"/>
<circle cy="804.47" r="11.5"/>
<circle cy="988.83" r="11.5"/>
<circle cy="1002.23" r="11.5"/>
<circle cy="1107.82" r="11.5"/>
<circle cy="1186.59" r="11.5"/>
</g>
<g fill="#2020ff">
<circle cy="0" r="11.5"/>
<circle cy="1200" r="11.5"/>
<circle cy="197.77" r="11.5"/>
<circle cy="395.53" r="11.5"/>
<circle cy="501.12" r="11.5"/>
<circle cy="698.88" r="11.5"/>
<circle cy="896.65" r="11.5"/>
<circle cy="1094.41" r="11.5"/>
</g>
</g>
<g transform="translate(60 0)">
<g fill="#808080">
<circle cy="16.76" r="11.5"/>
<circle cy="73.47" r="11.5"/>
<circle cy="180.45" r="11.5"/>
<circle cy="213.96" r="11.5"/>
<circle cy="320.95" r="11.5"/>
<circle cy="377.66" r="11.5"/>
<circle cy="518.15" r="11.5"/>
<circle cy="574.86" r="11.5"/>
<circle cy="681.85" r="11.5"/>
<circle cy="715.36" r="11.5"/>
<circle cy="879.05" r="11.5"/>
<circle cy="912.57" r="11.5"/>
<circle cy="1019.55" r="11.5"/>
<circle cy="1076.26" r="11.5"/>
</g>
<g fill="#404040">
<circle cy="90.22" r="11.5"/>
<circle cy="106.98" r="11.5"/>
<circle cy="287.43" r="11.5"/>
<circle cy="304.19" r="11.5"/>
<circle cy="411.17" r="11.5"/>
<circle cy="484.64" r="11.5"/>
<circle cy="591.62" r="11.5"/>
<circle cy="608.38" r="11.5"/>
<circle cy="788.83" r="11.5"/>
<circle cy="805.59" r="11.5"/>
<circle cy="986.04" r="11.5"/>
<circle cy="1002.79" r="11.5"/>
<circle cy="1109.78" r="11.5"/>
<circle cy="1183.24" r="11.5"/>
</g>
<g fill="#2020ff">
<circle cy="0" r="11.5"/>
<circle cy="1200" r="11.5"/>
<circle cy="197.21" r="11.5"/>
<circle cy="394.41" r="11.5"/>
<circle cy="501.4" r="11.5"/>
<circle cy="698.6" r="11.5"/>
<circle cy="895.81" r="11.5"/>
<circle cy="1093.02" r="11.5"/>
</g>
</g>
<g transform="translate(90 0)">
<g fill="#808080">
<circle cy="19.55" r="11.5"/>
<circle cy="69.04" r="11.5"/>
<circle cy="177.19" r="11.5"/>
<circle cy="216.29" r="11.5"/>
<circle cy="324.44" r="11.5"/>
<circle cy="373.93" r="11.5"/>
<circle cy="521.18" r="11.5"/>
<circle cy="570.67" r="11.5"/>
<circle cy="678.82" r="11.5"/>
<circle cy="717.92" r="11.5"/>
<circle cy="875.56" r="11.5"/>
<circle cy="914.66" r="11.5"/>
<circle cy="1022.81" r="11.5"/>
<circle cy="1072.3" r="11.5"/>
</g>
<g fill="#404040">
<circle cy="88.59" r="11.5"/>
<circle cy="108.15" r="11.5"/>
<circle cy="285.34" r="11.5"/>
<circle cy="304.89" r="11.5"/>
<circle cy="413.04" r="11.5"/>
<circle cy="482.08" r="11.5"/>
<circle cy="590.22" r="11.5"/>
<circle cy="609.78" r="11.5"/>
<circle cy="786.96" r="11.5"/>
<circle cy="806.52" r="11.5"/>
<circle cy="983.71" r="11.5"/>
<circle cy="1003.26" r="11.5"/>
<circle cy="1111.41" r="11.5"/>
<circle cy="1180.45" r="11.5"/>
</g>
<g fill="#2020ff">
<circle cy="0" r="11.5"/>
<circle cy="1200" r="11.5"/>
<circle cy="196.74" r="11.5"/>
<circle cy="393.48" r="11.5"/>
<circle cy="501.63" r="11.5"/>
<circle cy="698.37" r="11.5"/>
<circle cy="895.11" r="11.5"/>
<circle cy="1091.85" r="11.5"/>
</g>
</g>
<g transform="translate(120 0)">
<g fill="#808080">
<circle cy="21.82" r="11.5"/>
<circle cy="65.45" r="11.5"/>
<circle cy="174.55" r="11.5"/>
<circle cy="218.18" r="11.5"/>
<circle cy="327.27" r="11.5"/>
<circle cy="370.91" r="11.5"/>
<circle cy="523.64" r="11.5"/>
<circle cy="567.27" r="11.5"/>
<circle cy="676.36" r="11.5"/>
<circle cy="720" r="11.5"/>
<circle cy="872.73" r="11.5"/>
<circle cy="916.36" r="11.5"/>
<circle cy="1025.45" r="11.5"/>
<circle cy="1069.09" r="11.5"/>
</g>
<g fill="#404040">
<circle cy="87.27" r="11.5"/>
<circle cy="109.09" r="11.5"/>
<circle cy="283.64" r="11.5"/>
<circle cy="305.45" r="11.5"/>
<circle cy="414.55" r="11.5"/>
<circle cy="480" r="11.5"/>
<circle cy="589.09" r="11.5"/>
<circle cy="610.91" r="11.5"/>
<circle cy="785.45" r="11.5"/>
<circle cy="807.27" r="11.5"/>
<circle cy="981.82" r="11.5"/>
<circle cy="1003.64" r="11.5"/>
<circle cy="1112.73" r="11.5"/>
<circle cy="1178.18" r="11.5"/>
</g>
<g fill="#2020ff">
<circle cy="0" r="11.5"/>
<circle cy="1200" r="11.5"/>
<circle cy="196.36" r="11.5"/>
<circle cy="392.73" r="11.5"/>
<circle cy="501.82" r="11.5"/>
<circle cy="698.18" r="11.5"/>
<circle cy="894.55" r="11.5"/>
<circle cy="1090.91" r="11.5"/>
</g>
</g>
<g transform="translate(150 0)">
<g fill="#808080">
<circle cy="23.46" r="11.5"/>
<circle cy="62.85" r="11.5"/>
<circle cy="172.63" r="11.5"/>
<circle cy="219.55" r="11.5"/>
<circle cy="329.33" r="11.5"/>
<circle cy="368.72" r="11.5"/>
<circle cy="525.42" r="11.5"/>
<circle cy="564.81" r="11.5"/>
<circle cy="674.58" r="11.5"/>
<circle cy="721.51" r="11.5"/>
<circle cy="870.67" r="11.5"/>
<circle cy="917.6" r="11.5"/>
<circle cy="1027.37" r="11.5"/>
<circle cy="1066.76" r="11.5"/>
</g>
<g fill="#404040">
<circle cy="86.31" r="11.5"/>
<circle cy="109.78" r="11.5"/>
<circle cy="282.4" r="11.5"/>
<circle cy="305.87" r="11.5"/>
<circle cy="415.64" r="11.5"/>
<circle cy="478.49" r="11.5"/>
<circle cy="588.27" r="11.5"/>
<circle cy="611.73" r="11.5"/>
<circle cy="784.36" r="11.5"/>
<circle cy="807.82" r="11.5"/>
<circle cy="980.45" r="11.5"/>
<circle cy="1003.91" r="11.5"/>
<circle cy="1113.69" r="11.5"/>
<circle cy="1176.54" r="11.5"/>
</g>
<g fill="#2020ff">
<circle cy="0" r="11.5"/>
<circle cy="1200" r="11.5"/>
<circle cy="196.09" r="11.5"/>
<circle cy="392.18" r="11.5"/>
<circle cy="501.96" r="11.5"/>
<circle cy="698.04" r="11.5"/>
<circle cy="894.13" r="11.5"/>
<circle cy="1090.22" r="11.5"/>
</g>
</g>
<g transform="translate(180 0)">
<g fill="#808080">
<circle cy="27.91" r="11.5"/>
<circle cy="55.81" r="11.5"/>
<circle cy="167.44" r="11.5"/>
<circle cy="223.26" r="11.5"/>
<circle cy="334.88" r="11.5"/>
<circle cy="362.79" r="11.5"/>
<circle cy="530.23" r="11.5"/>
<circle cy="558.14" r="11.5"/>
<circle cy="669.77" r="11.5"/>
<circle cy="725.58" r="11.5"/>
<circle cy="865.12" r="11.5"/>
<circle cy="920.93" r="11.5"/>
<circle cy="1032.56" r="11.5"/>
<circle cy="1060.47" r="11.5"/>
</g>
<g fill="#404040">
<circle cy="83.72" r="11.5"/>
<circle cy="111.63" r="11.5"/>
<circle cy="279.07" r="11.5"/>
<circle cy="306.98" r="11.5"/>
<circle cy="418.6" r="11.5"/>
<circle cy="474.42" r="11.5"/>
<circle cy="586.05" r="11.5"/>
<circle cy="613.95" r="11.5"/>
<circle cy="781.4" r="11.5"/>
<circle cy="809.3" r="11.5"/>
<circle cy="976.74" r="11.5"/>
<circle cy="1004.65" r="11.5"/>
<circle cy="1116.28" r="11.5"/>
<circle cy="1172.09" r="11.5"/>
</g>
<g fill="#2020ff">
<circle cy="0" r="11.5"/>
<circle cy="1200" r="11.5"/>
<circle cy="195.35" r="11.5"/>
<circle cy="390.7" r="11.5"/>
<circle cy="502.33" r="11.5"/>
<circle cy="697.67" r="11.5"/>
<circle cy="893.02" r="11.5"/>
<circle cy="1088.37" r="11.5"/>
</g>
</g>
<g transform="translate(210 0)">
<g fill="#808080">
<circle cy="28.16" r="11.5"/>
<circle cy="55.42" r="11.5"/>
<circle cy="167.15" r="11.5"/>
<circle cy="223.46" r="11.5"/>
<circle cy="335.19" r="11.5"/>
<circle cy="362.46" r="11.5"/>
<circle cy="530.5" r="11.5"/>
<circle cy="557.77" r="11.5"/>
<circle cy="669.5" r="11.5"/>
<circle cy="725.81" r="11.5"/>
<circle cy="864.81" r="11.5"/>
<circle cy="921.12" r="11.5"/>
<circle cy="1032.85" r="11.5"/>
<circle cy="1060.11" r="11.5"/>
</g>
<g fill="#404040">
<circle cy="83.58" r="11.5"/>
<circle cy="111.73" r="11.5"/>
<circle cy="278.88" r="11.5"/>
<circle cy="307.04" r="11.5"/>
<circle cy="418.77" r="11.5"/>
<circle cy="474.19" r="11.5"/>
<circle cy="585.92" r="11.5"/>
<circle cy="614.08" r="11.5"/>
<circle cy="781.23" r="11.5"/>
<circle cy="809.39" r="11.5"/>
<circle cy="976.54" r="11.5"/>
<circle cy="1004.69" r="11.5"/>
<circle cy="1116.42" r="11.5"/>
<circle cy="1171.84" r="11.5"/>
</g>
<g fill="#2020ff">
<circle cy="0" r="11.5"/>
<circle cy="1200" r="11.5"/>
<circle cy="195.31" r="11.5"/>
<circle cy="390.61" r="11.5"/>
<circle cy="502.35" r="11.5"/>
<circle cy="697.65" r="11.5"/>
<circle cy="892.96" r="11.5"/>
<circle cy="1088.27" r="11.5"/>
</g>
</g>
<g transform="translate(240 0)">
<g fill="#808080">
<circle cy="32.84" r="11.5"/>
<circle cy="48" r="11.5"/>
<circle cy="161.68" r="11.5"/>
<circle cy="227.37" r="11.5"/>
<circle cy="341.06" r="11.5"/>
<circle cy="356.21" r="11.5"/>
<circle cy="535.58" r="11.5"/>
<circle cy="550.73" r="11.5"/>
<circle cy="664.42" r="11.5"/>
<circle cy="730.11" r="11.5"/>
<circle cy="858.94" r="11.5"/>
<circle cy="924.63" r="11.5"/>
<circle cy="1038.32" r="11.5"/>
<circle cy="1053.47" r="11.5"/>
</g>
<g fill="#404040">
<circle cy="80.84" r="11.5"/>
<circle cy="113.69" r="11.5"/>
<circle cy="275.37" r="11.5"/>
<circle cy="308.21" r="11.5"/>
<circle cy="421.9" r="11.5"/>
<circle cy="469.89" r="11.5"/>
<circle cy="583.58" r="11.5"/>
<circle cy="616.42" r="11.5"/>
<circle cy="778.1" r="11.5"/>
<circle cy="810.95" r="11.5"/>
<circle cy="972.63" r="11.5"/>
<circle cy="1005.47" r="11.5"/>
<circle cy="1119.16" r="11.5"/>
<circle cy="1167.16" r="11.5"/>
</g>
<g fill="#2020ff">
<circle cy="0" r="11.5"/>
<circle cy="1200" r="11.5"/>
<circle cy="194.53" r="11.5"/>
<circle cy="389.05" r="11.5"/>
<circle cy="502.74" r="11.5"/>
<circle cy="697.26" r="11.5"/>
<circle cy="891.79" r="11.5"/>
<circle cy="1086.31" r="11.5"/>
</g>
</g>
<g transform="translate(270 0)">
<g fill="#808080">
<circle cy="38.71" r="11.5"/>
<circle cy="154.84" r="11.5"/>
<circle cy="232.26" r="11.5"/>
<circle cy="348.39" r="11.5"/>
<circle cy="541.94" r="11.5"/>
<circle cy="658.06" r="11.5"/>
<circle cy="735.48" r="11.5"/>
<circle cy="851.61" r="11.5"/>
<circle cy="929.03" r="11.5"/>
<circle cy="1045.16" r="11.5"/>
</g>
<g fill="#404040">
<circle cy="77.42" r="11.5"/>
<circle cy="116.13" r="11.5"/>
<circle cy="270.97" r="11.5"/>
<circle cy="309.68" r="11.5"/>
<circle cy="425.81" r="11.5"/>
<circle cy="464.52" r="11.5"/>
<circle cy="580.65" r="11.5"/>
<circle cy="619.35" r="11.5"/>
<circle cy="774.19" r="11.5"/>
<circle cy="812.9" r="11.5"/>
<circle cy="967.74" r="11.5"/>
<circle cy="1006.45" r="11.5"/>
<circle cy="1122.58" r="11.5"/>
<circle cy="1161.29" r="11.5"/>
</g>
<g fill="#2020ff">
<circle cy="0" r="11.5"/>
<circle cy="1200" r="11.5"/>
<circle cy="193.55" r="11.5"/>
<circle cy="387.1" r="11.5"/>
<circle cy="503.23" r="11.5"/>
<circle cy="696.77" r="11.5"/>
<circle cy="890.32" r="11.5"/>
<circle cy="1083.87" r="11.5"/>
</g>
</g>
<g transform="translate(300 0)">
<g fill="#808080">
<circle cy="34.99" r="11.5"/>
<circle cy="41.06" r="11.5"/>
<circle cy="152.1" r="11.5"/>
<circle cy="234.22" r="11.5"/>
<circle cy="345.25" r="11.5"/>
<circle cy="351.32" r="11.5"/>
<circle cy="538.41" r="11.5"/>
<circle cy="544.48" r="11.5"/>
<circle cy="655.52" r="11.5"/>
<circle cy="737.64" r="11.5"/>
<circle cy="848.68" r="11.5"/>
<circle cy="930.79" r="11.5"/>
<circle cy="1041.83" r="11.5"/>
<circle cy="1047.9" r="11.5"/>
</g>
<g fill="#404040">
<circle cy="76.05" r="11.5"/>
<circle cy="117.11" r="11.5"/>
<circle cy="269.21" r="11.5"/>
<circle cy="310.26" r="11.5"/>
<circle cy="427.37" r="11.5"/>
<circle cy="462.36" r="11.5"/>
<circle cy="579.47" r="11.5"/>
<circle cy="620.53" r="11.5"/>
<circle cy="772.63" r="11.5"/>
<circle cy="813.69" r="11.5"/>
<circle cy="965.78" r="11.5"/>
<circle cy="1006.84" r="11.5"/>
<circle cy="1123.95" r="11.5"/>
<circle cy="1158.94" r="11.5"/>
</g>
<g fill="#2020ff">
<circle cy="0" r="11.5"/>
<circle cy="1200" r="11.5"/>
<circle cy="193.16" r="11.5"/>
<circle cy="386.31" r="11.5"/>
<circle cy="503.42" r="11.5"/>
<circle cy="696.58" r="11.5"/>
<circle cy="889.74" r="11.5"/>
<circle cy="1082.89" r="11.5"/>
</g>
</g>
<g transform="translate(330 0)">
<g fill="#808080">
<circle cy="25.71" r="11.5"/>
<circle cy="46.92" r="11.5"/>
<circle cy="145.26" r="11.5"/>
<circle cy="239.1" r="11.5"/>
<circle cy="337.44" r="11.5"/>
<circle cy="358.65" r="11.5"/>
<circle cy="529.62" r="11.5"/>
<circle cy="550.83" r="11.5"/>
<circle cy="649.17" r="11.5"/>
<circle cy="743.01" r="11.5"/>
<circle cy="841.35" r="11.5"/>
<circle cy="935.19" r="11.5"/>
<circle cy="1033.53" r="11.5"/>
<circle cy="1054.74" r="11.5"/>
</g>
<g fill="#404040">
<circle cy="72.63" r="11.5"/>
<circle cy="119.55" r="11.5"/>
<circle cy="264.81" r="11.5"/>
<circle cy="311.73" r="11.5"/>
<circle cy="431.28" r="11.5"/>
<circle cy="456.99" r="11.5"/>
<circle cy="576.54" r="11.5"/>
<circle cy="623.46" r="11.5"/>
<circle cy="768.72" r="11.5"/>
<circle cy="815.64" r="11.5"/>
<circle cy="960.9" r="11.5"/>
<circle cy="1007.82" r="11.5"/>
<circle cy="1127.37" r="11.5"/>
<circle cy="1153.08" r="11.5"/>
</g>
<g fill="#2020ff">
<circle cy="0" r="11.5"/>
<circle cy="1200" r="11.5"/>
<circle cy="192.18" r="11.5"/>
<circle cy="384.36" r="11.5"/>
<circle cy="503.91" r="11.5"/>
<circle cy="696.09" r="11.5"/>
<circle cy="888.27" r="11.5"/>
<circle cy="1080.45" r="11.5"/>
</g>
</g>
<g transform="translate(360 0)">
<g fill="#808080">
<circle cy="24" r="11.5"/>
<circle cy="48" r="11.5"/>
<circle cy="144" r="11.5"/>
<circle cy="240" r="11.5"/>
<circle cy="336" r="11.5"/>
<circle cy="360" r="11.5"/>
<circle cy="528" r="11.5"/>
<circle cy="552" r="11.5"/>
<circle cy="648" r="11.5"/>
<circle cy="744" r="11.5"/>
<circle cy="840" r="11.5"/>
<circle cy="936" r="11.5"/>
<circle cy="1032" r="11.5"/>
<circle cy="1056" r="11.5"/>
</g>
<g fill="#404040">
<circle cy="72" r="11.5"/>
<circle cy="120" r="11.5"/>
<circle cy="264" r="11.5"/>
<circle cy="312" r="11.5"/>
<circle cy="432" r="11.5"/>
<circle cy="456" r="11.5"/>
<circle cy="576" r="11.5"/>
<circle cy="624" r="11.5"/>
<circle cy="768" r="11.5"/>
<circle cy="816" r="11.5"/>
<circle cy="960" r="11.5"/>
<circle cy="1008" r="11.5"/>
<circle cy="1128" r="11.5"/>
<circle cy="1152" r="11.5"/>
</g>
<g fill="#2020ff">
<circle cy="0" r="11.5"/>
<circle cy="1200" r="11.5"/>
<circle cy="192" r="11.5"/>
<circle cy="384" r="11.5"/>
<circle cy="504" r="11.5"/>
<circle cy="696" r="11.5"/>
<circle cy="888" r="11.5"/>
<circle cy="1080" r="11.5"/>
</g>
</g>
<g transform="translate(390 0)">
<g fill="#808080">
<circle cy="20.4" r="11.5"/>
<circle cy="50.28" r="11.5"/>
<circle cy="141.34" r="11.5"/>
<circle cy="241.9" r="11.5"/>
<circle cy="332.97" r="11.5"/>
<circle cy="362.84" r="11.5"/>
<circle cy="524.59" r="11.5"/>
<circle cy="554.47" r="11.5"/>
<circle cy="645.53" r="11.5"/>
<circle cy="746.09" r="11.5"/>
<circle cy="837.16" r="11.5"/>
<circle cy="937.71" r="11.5"/>
<circle cy="1028.78" r="11.5"/>
<circle cy="1058.66" r="11.5"/>
</g>
<g fill="#404040">
<circle cy="70.67" r="11.5"/>
<circle cy="120.95" r="11.5"/>
<circle cy="262.29" r="11.5"/>
<circle cy="312.57" r="11.5"/>
<circle cy="433.52" r="11.5"/>
<circle cy="453.91" r="11.5"/>
<circle cy="574.86" r="11.5"/>
<circle cy="625.14" r="11.5"/>
<circle cy="766.48" r="11.5"/>
<circle cy="816.76" r="11.5"/>
<circle cy="958.1" r="11.5"/>
<circle cy="1008.38" r="11.5"/>
<circle cy="1129.33" r="11.5"/>
<circle cy="1149.72" r="11.5"/>
</g>
<g fill="#2020ff">
<circle cy="0" r="11.5"/>
<circle cy="1200" r="11.5"/>
<circle cy="191.62" r="11.5"/>
<circle cy="383.24" r="11.5"/>
<circle cy="504.19" r="11.5"/>
<circle cy="695.81" r="11.5"/>
<circle cy="887.43" r="11.5"/>
<circle cy="1079.05" r="11.5"/>
</g>
</g>
<g transform="translate(420 0)">
<g fill="#808080">
<circle cy="9.79" r="11.5"/>
<circle cy="56.97" r="11.5"/>
<circle cy="133.53" r="11.5"/>
<circle cy="247.48" r="11.5"/>
<circle cy="324.03" r="11.5"/>
<circle cy="371.22" r="11.5"/>
<circle cy="514.54" r="11.5"/>
<circle cy="561.72" r="11.5"/>
<circle cy="638.28" r="11.5"/>
<circle cy="752.23" r="11.5"/>
<circle cy="828.78" r="11.5"/>
<circle cy="942.73" r="11.5"/>
<circle cy="1019.29" r="11.5"/>
<circle cy="1066.47" r="11.5"/>
</g>
<g fill="#404040">
<circle cy="66.76" r="11.5"/>
<circle cy="123.74" r="11.5"/>
<circle cy="257.27" r="11.5"/>
<circle cy="314.24" r="11.5"/>
<circle cy="437.98" r="11.5"/>
<circle cy="447.77" r="11.5"/>
<circle cy="571.51" r="11.5"/>
<circle cy="628.49" r="11.5"/>
<circle cy="762.02" r="11.5"/>
<circle cy="818.99" r="11.5"/>
<circle cy="952.52" r="11.5"/>
<circle cy="1009.5" r="11.5"/>
<circle cy="1133.24" r="11.5"/>
<circle cy="1143.03" r="11.5"/>
</g>
<g fill="#2020ff">
<circle cy="0" r="11.5"/>
<circle cy="1200" r="11.5"/>
<circle cy="190.5" r="11.5"/>
<circle cy="381.01" r="11.5"/>
<circle cy="504.75" r="11.5"/>
<circle cy="695.25" r="11.5"/>
<circle cy="885.76" r="11.5"/>
<circle cy="1076.26" r="11.5"/>
</g>
</g>
<g transform="translate(450 0)">
<g fill="#404040">
<circle cy="63.5" r="11.5"/>
<circle cy="126.07" r="11.5"/>
<circle cy="253.08" r="11.5"/>
<circle cy="315.64" r="11.5"/>
<circle cy="441.71" r="11.5"/>
<circle cy="442.65" r="11.5"/>
<circle cy="568.72" r="11.5"/>
<circle cy="631.28" r="11.5"/>
<circle cy="758.29" r="11.5"/>
<circle cy="820.86" r="11.5"/>
<circle cy="947.86" r="11.5"/>
<circle cy="1010.43" r="11.5"/>
<circle cy="1136.5" r="11.5"/>
<circle cy="1137.43" r="11.5"/>
</g>
<g fill="#2020ff">
<circle cy="0" r="11.5"/>
<circle cy="1200" r="11.5"/>
<circle cy="189.57" r="11.5"/>
<circle cy="379.14" r="11.5"/>
<circle cy="505.21" r="11.5"/>
<circle cy="694.79" r="11.5"/>
<circle cy="884.36" r="11.5"/>
<circle cy="1073.93" r="11.5"/>
</g>
</g>
<g transform="translate(480 0)">
<g fill="#404040">
<circle cy="63.16" r="11.5"/>
<circle cy="126.32" r="11.5"/>
<circle cy="252.63" r="11.5"/>
<circle cy="315.79" r="11.5"/>
<circle cy="442.11" r="11.5"/>
<circle cy="568.42" r="11.5"/>
<circle cy="631.58" r="11.5"/>
<circle cy="757.89" r="11.5"/>
<circle cy="821.05" r="11.5"/>
<circle cy="947.37" r="11.5"/>
<circle cy="1010.53" r="11.5"/>
<circle cy="1136.84" r="11.5"/>
</g>
<g fill="#2020ff">
<circle cy="0" r="11.5"/>
<circle cy="1200" r="11.5"/>
<circle cy="189.47" r="11.5"/>
<circle cy="378.95" r="11.5"/>
<circle cy="505.26" r="11.5"/>
<circle cy="694.74" r="11.5"/>
<circle cy="884.21" r="11.5"/>
<circle cy="1073.68" r="11.5"/>
</g>
</g>
<g fill="white" text-anchor="middle">
<g font-size="10">
<text y="98.33">C♯</text>
<text y="108.33">D♭</text>
<text y="298.33">D♯</text>
<text y="308.33">E♭</text>
<text y="598.33">F♯</text>
<text y="608.33">G♭</text>
<text y="798.33">G♯</text>
<text y="808.33">A♭</text>
<text y="998.33">A♯</text>
<text y="1008.33">B♭</text>
</g>
<g font-size="14">
<text y="4.67">C</text>
<text y="1204.67">C</text>
<text y="204.67">D</text>
<text y="404.67">E</text>
<text y="504.67">F</text>
<text y="704.67">G</text>
<text y="904.67">A</text>
<text y="1104.67">B</text>
</g>
<g transform="translate(30 0)">
<g font-size="10">
<text y="16.74">D𝄫</text>
<text y="82.1">B𝄪</text>
<text y="187.69">C𝄪</text>
<text y="214.51">E𝄫</text>
<text y="320.09">F𝄫</text>
<text y="385.46">D𝄪</text>
<text y="517.86">G𝄫</text>
<text y="583.22">E𝄪</text>
<text y="688.81">F𝄪</text>
<text y="715.62">A𝄫</text>
<text y="886.57">G𝄪</text>
<text y="913.39">B𝄫</text>
<text y="1018.98">C𝄫</text>
<text y="1084.34">A𝄪</text>
</g>
<g font-size="12">
<text y="96.18">C♯</text>
<text y="109.59">D♭</text>
<text y="293.94">D♯</text>
<text y="307.35">E♭</text>
<text y="412.94">F♭</text>
<text y="491.71">E♯</text>
<text y="597.3">F♯</text>
<text y="610.7">G♭</text>
<text y="795.06">G♯</text>
<text y="808.47">A♭</text>
<text y="992.83">A♯</text>
<text y="1006.23">B♭</text>
<text y="1111.82">C♭</text>
<text y="1190.59">B♯</text>
</g>
<g font-size="14">
<text y="4.67">C</text>
<text y="1204.67">C</text>
<text y="202.43">D</text>
<text y="400.2">E</text>
<text y="505.78">F</text>
<text y="703.55">G</text>
<text y="901.31">A</text>
<text y="1099.08">B</text>
</g>
</g>
<g transform="translate(60 0)">
<g font-size="10">
<text y="20.09">D𝄫</text>
<text y="76.8">B𝄪</text>
<text y="183.78">C𝄪</text>
<text y="217.3">E𝄫</text>
<text y="324.28">F𝄫</text>
<text y="380.99">D𝄪</text>
<text y="521.49">G𝄫</text>
<text y="578.2">E𝄪</text>
<text y="685.18">F𝄪</text>
<text y="718.69">A𝄫</text>
<text y="882.39">G𝄪</text>
<text y="915.9">B𝄫</text>
<text y="1022.88">C𝄫</text>
<text y="1079.59">A𝄪</text>
</g>
<g font-size="12">
<text y="94.22">C♯</text>
<text y="110.98">D♭</text>
<text y="291.43">D♯</text>
<text y="308.19">E♭</text>
<text y="415.17">F♭</text>
<text y="488.64">E♯</text>
<text y="595.62">F♯</text>
<text y="612.38">G♭</text>
<text y="792.83">G♯</text>
<text y="809.59">A♭</text>
<text y="990.04">A♯</text>
<text y="1006.79">B♭</text>
<text y="1113.78">C♭</text>
<text y="1187.24">B♯</text>
</g>
<g font-size="14">
<text y="4.67">C</text>
<text y="1204.67">C</text>
<text y="201.87">D</text>
<text y="399.08">E</text>
<text y="506.06">F</text>
<text y="703.27">G</text>
<text y="900.48">A</text>
<text y="1097.68">B</text>
</g>
</g>
<g transform="translate(90 0)">
<g font-size="10">
<text y="22.89">D𝄫</text>
<text y="72.38">B𝄪</text>
<text y="180.52">C𝄪</text>
<text y="219.63">E𝄫</text>
<text y="327.77">F𝄫</text>
<text y="377.26">D𝄪</text>
<text y="524.52">G𝄫</text>
<text y="574">E𝄪</text>
<text y="682.15">F𝄪</text>
<text y="721.26">A𝄫</text>
<text y="878.89">G𝄪</text>
<text y="918">B𝄫</text>
<text y="1026.14">C𝄫</text>
<text y="1075.63">A𝄪</text>
</g>
<g font-size="12">
<text y="92.59">C♯</text>
<text y="112.15">D♭</text>
<text y="289.34">D♯</text>
<text y="308.89">E♭</text>
<text y="417.04">F♭</text>
<text y="486.08">E♯</text>
<text y="594.22">F♯</text>
<text y="613.78">G♭</text>
<text y="790.96">G♯</text>
<text y="810.52">A♭</text>
<text y="987.71">A♯</text>
<text y="1007.26">B♭</text>
<text y="1115.41">C♭</text>
<text y="1184.45">B♯</text>
</g>
<g font-size="14">
<text y="4.67">C</text>
<text y="1204.67">C</text>
<text y="201.41">D</text>
<text y="398.15">E</text>
<text y="506.3">F</text>
<text y="703.04">G</text>
<text y="899.78">A</text>
<text y="1096.52">B</text>
</g>
</g>
<g transform="translate(120 0)">
<g font-size="10">
<text y="25.15">D𝄫</text>
<text y="68.79">B𝄪</text>
<text y="177.88">C𝄪</text>
<text y="221.52">E𝄫</text>
<text y="330.61">F𝄫</text>
<text y="374.24">D𝄪</text>
<text y="526.97">G𝄫</text>
<text y="570.61">E𝄪</text>
<text y="679.7">F𝄪</text>
<text y="723.33">A𝄫</text>
<text y="876.06">G𝄪</text>
<text y="919.7">B𝄫</text>
<text y="1028.79">C𝄫</text>
<text y="1072.42">A𝄪</text>
</g>
<g font-size="12">
<text y="91.27">C♯</text>
<text y="113.09">D♭</text>
<text y="287.64">D♯</text>
<text y="309.45">E♭</text>
<text y="418.55">F♭</text>
<text y="484">E♯</text>
<text y="593.09">F♯</text>
<text y="614.91">G♭</text>
<text y="789.45">G♯</text>
<text y="811.27">A♭</text>
<text y="985.82">A♯</text>
<text y="1007.64">B♭</text>
<text y="1116.73">C♭</text>
<text y="1182.18">B♯</text>
</g>
<g font-size="14">
<text y="4.67">C</text>
<text y="1204.67">C</text>
<text y="201.03">D</text>
<text y="397.39">E</text>
<text y="506.48">F</text>
<text y="702.85">G</text>
<text y="899.21">A</text>
<text y="1095.58">B</text>
</g>
</g>
<g transform="translate(150 0)">
<g font-size="10">
<text y="26.79">D𝄫</text>
<text y="66.19">B𝄪</text>
<text y="175.96">C𝄪</text>
<text y="222.88">E𝄫</text>
<text y="332.66">F𝄫</text>
<text y="372.05">D𝄪</text>
<text y="528.75">G𝄫</text>
<text y="568.14">E𝄪</text>
<text y="677.92">F𝄪</text>
<text y="724.84">A𝄫</text>
<text y="874.01">G𝄪</text>
<text y="920.93">B𝄫</text>
<text y="1030.7">C𝄫</text>
<text y="1070.1">A𝄪</text>
</g>
<g font-size="12">
<text y="90.31">C♯</text>
<text y="113.78">D♭</text>
<text y="286.4">D♯</text>
<text y="309.87">E♭</text>
<text y="419.64">F♭</text>
<text y="482.49">E♯</text>
<text y="592.27">F♯</text>
<text y="615.73">G♭</text>
<text y="788.36">G♯</text>
<text y="811.82">A♭</text>
<text y="984.45">A♯</text>
<text y="1007.91">B♭</text>
<text y="1117.69">C♭</text>
<text y="1180.54">B♯</text>
</g>
<g font-size="14">
<text y="4.67">C</text>
<text y="1204.67">C</text>
<text y="200.76">D</text>
<text y="396.85">E</text>
<text y="506.62">F</text>
<text y="702.71">G</text>
<text y="898.8">A</text>
<text y="1094.89">B</text>
</g>
</g>
<g transform="translate(180 0)">
<g font-size="10">
<text y="31.24">D𝄫</text>
<text y="59.15">B𝄪</text>
<text y="170.78">C𝄪</text>
<text y="226.59">E𝄫</text>
<text y="338.22">F𝄫</text>
<text y="366.12">D𝄪</text>
<text y="533.57">G𝄫</text>
<text y="561.47">E𝄪</text>
<text y="673.1">F𝄪</text>
<text y="728.91">A𝄫</text>
<text y="868.45">G𝄪</text>
<text y="924.26">B𝄫</text>
<text y="1035.89">C𝄫</text>
<text y="1063.8">A𝄪</text>
</g>
<g font-size="12">
<text y="87.72">C♯</text>
<text y="115.63">D♭</text>
<text y="283.07">D♯</text>
<text y="310.98">E♭</text>
<text y="422.6">F♭</text>
<text y="478.42">E♯</text>
<text y="590.05">F♯</text>
<text y="617.95">G♭</text>
<text y="785.4">G♯</text>
<text y="813.3">A♭</text>
<text y="980.74">A♯</text>
<text y="1008.65">B♭</text>
<text y="1120.28">C♭</text>
<text y="1176.09">B♯</text>
</g>
<g font-size="14">
<text y="4.67">C</text>
<text y="1204.67">C</text>
<text y="200.02">D</text>
<text y="395.36">E</text>
<text y="506.99">F</text>
<text y="702.34">G</text>
<text y="897.69">A</text>
<text y="1093.04">B</text>
</g>
</g>
<g transform="translate(210 0)">
<g font-size="10">
<text y="31.49">D𝄫</text>
<text y="58.75">B𝄪</text>
<text y="170.49">C𝄪</text>
<text y="226.8">E𝄫</text>
<text y="338.53">F𝄫</text>
<text y="365.79">D𝄪</text>
<text y="533.83">G𝄫</text>
<text y="561.1">E𝄪</text>
<text y="672.83">F𝄪</text>
<text y="729.14">A𝄫</text>
<text y="868.14">G𝄪</text>
<text y="924.45">B𝄫</text>
<text y="1036.18">C𝄫</text>
<text y="1063.45">A𝄪</text>
</g>
<g font-size="12">
<text y="87.58">C♯</text>
<text y="115.73">D♭</text>
<text y="282.88">D♯</text>
<text y="311.04">E♭</text>
<text y="422.77">F♭</text>
<text y="478.19">E♯</text>
<text y="589.92">F♯</text>
<text y="618.08">G♭</text>
<text y="785.23">G♯</text>
<text y="813.39">A♭</text>
<text y="980.54">A♯</text>
<text y="1008.69">B♭</text>
<text y="1120.42">C♭</text>
<text y="1175.84">B♯</text>
</g>
<g font-size="14">
<text y="4.67">C</text>
<text y="1204.67">C</text>
<text y="199.97">D</text>
<text y="395.28">E</text>
<text y="507.01">F</text>
<text y="702.32">G</text>
<text y="897.63">A</text>
<text y="1092.94">B</text>
</g>
</g>
<g transform="translate(240 0)">
<g font-size="10">
<text y="36.18">D𝄫</text>
<text y="51.33">B𝄪</text>
<text y="165.02">C𝄪</text>
<text y="230.7">E𝄫</text>
<text y="344.39">F𝄫</text>
<text y="359.54">D𝄪</text>
<text y="538.91">G𝄫</text>
<text y="554.07">E𝄪</text>
<text y="667.75">F𝄪</text>
<text y="733.44">A𝄫</text>
<text y="862.28">G𝄪</text>
<text y="927.97">B𝄫</text>
<text y="1041.65">C𝄫</text>
<text y="1056.8">A𝄪</text>
</g>
<g font-size="12">
<text y="84.84">C♯</text>
<text y="117.69">D♭</text>
<text y="279.37">D♯</text>
<text y="312.21">E♭</text>
<text y="425.9">F♭</text>
<text y="473.89">E♯</text>
<text y="587.58">F♯</text>
<text y="620.42">G♭</text>
<text y="782.1">G♯</text>
<text y="814.95">A♭</text>
<text y="976.63">A♯</text>
<text y="1009.47">B♭</text>
<text y="1123.16">C♭</text>
<text y="1171.16">B♯</text>
</g>
<g font-size="14">
<text y="4.67">C</text>
<text y="1204.67">C</text>
<text y="199.19">D</text>
<text y="393.72">E</text>
<text y="507.4">F</text>
<text y="701.93">G</text>
<text y="896.46">A</text>
<text y="1090.98">B</text>
</g>
</g>
<g transform="translate(270 0)">
<g font-size="10">
<text y="37.04">B𝄪</text>
<text y="47.04">D𝄫</text>
<text y="158.17">C𝄪</text>
<text y="235.59">E𝄫</text>
<text y="346.72">D𝄪</text>
<text y="356.72">F𝄫</text>
<text y="540.27">E𝄪</text>
<text y="550.27">G𝄫</text>
<text y="661.4">F𝄪</text>
<text y="738.82">A𝄫</text>
<text y="854.95">G𝄪</text>
<text y="932.37">B𝄫</text>
<text y="1043.49">A𝄪</text>
<text y="1053.49">C𝄫</text>
</g>
<g font-size="12">
<text y="81.42">C♯</text>
<text y="120.13">D♭</text>
<text y="274.97">D♯</text>
<text y="313.68">E♭</text>
<text y="429.81">F♭</text>
<text y="468.52">E♯</text>
<text y="584.65">F♯</text>
<text y="623.35">G♭</text>
<text y="778.19">G♯</text>
<text y="816.9">A♭</text>
<text y="971.74">A♯</text>
<text y="1010.45">B♭</text>
<text y="1126.58">C♭</text>
<text y="1165.29">B♯</text>
</g>
<g font-size="14">
<text y="4.67">C</text>
<text y="1204.67">C</text>
<text y="198.22">D</text>
<text y="391.76">E</text>
<text y="507.89">F</text>
<text y="701.44">G</text>
<text y="894.99">A</text>
<text y="1088.54">B</text>
</g>
</g>
<g transform="translate(300 0)">
<g font-size="10">
<text y="38.32">B𝄪</text>
<text y="44.39">D𝄫</text>
<text y="155.43">C𝄪</text>
<text y="237.55">E𝄫</text>
<text y="348.59">D𝄪</text>
<text y="354.66">F𝄫</text>
<text y="541.75">E𝄪</text>
<text y="547.81">G𝄫</text>
<text y="658.85">F𝄪</text>
<text y="740.97">A𝄫</text>
<text y="852.01">G𝄪</text>
<text y="934.13">B𝄫</text>
<text y="1045.17">A𝄪</text>
<text y="1051.24">C𝄫</text>
</g>
<g font-size="12">
<text y="80.05">C♯</text>
<text y="121.11">D♭</text>
<text y="273.21">D♯</text>
<text y="314.26">E♭</text>
<text y="431.37">F♭</text>
<text y="466.36">E♯</text>
<text y="583.47">F♯</text>
<text y="624.53">G♭</text>
<text y="776.63">G♯</text>
<text y="817.69">A♭</text>
<text y="969.78">A♯</text>
<text y="1010.84">B♭</text>
<text y="1127.95">C♭</text>
<text y="1162.94">B♯</text>
</g>
<g font-size="14">
<text y="4.67">C</text>
<text y="1204.67">C</text>
<text y="197.82">D</text>
<text y="390.98">E</text>
<text y="508.09">F</text>
<text y="701.25">G</text>
<text y="894.4">A</text>
<text y="1087.56">B</text>
</g>
</g>
<g transform="translate(330 0)">
<g font-size="10">
<text y="29.04">B𝄪</text>
<text y="50.25">D𝄫</text>
<text y="148.59">C𝄪</text>
<text y="242.43">E𝄫</text>
<text y="340.77">D𝄪</text>
<text y="361.98">F𝄫</text>
<text y="532.95">E𝄪</text>
<text y="554.16">G𝄫</text>
<text y="652.5">F𝄪</text>
<text y="746.34">A𝄫</text>
<text y="844.68">G𝄪</text>
<text y="938.52">B𝄫</text>
<text y="1036.86">A𝄪</text>
<text y="1058.07">C𝄫</text>
</g>
<g font-size="12">
<text y="76.63">C♯</text>
<text y="123.55">D♭</text>
<text y="268.81">D♯</text>
<text y="315.73">E♭</text>
<text y="435.28">F♭</text>
<text y="460.99">E♯</text>
<text y="580.54">F♯</text>
<text y="627.46">G♭</text>
<text y="772.72">G♯</text>
<text y="819.64">A♭</text>
<text y="964.9">A♯</text>
<text y="1011.82">B♭</text>
<text y="1131.37">C♭</text>
<text y="1157.08">B♯</text>
</g>
<g font-size="14">
<text y="4.67">C</text>
<text y="1204.67">C</text>
<text y="196.85">D</text>
<text y="389.03">E</text>
<text y="508.58">F</text>
<text y="700.76">G</text>
<text y="892.94">A</text>
<text y="1085.12">B</text>
</g>
</g>
<g transform="translate(360 0)">
<g font-size="10">
<text y="27.33">B𝄪</text>
<text y="51.33">D𝄫</text>
<text y="147.33">C𝄪</text>
<text y="243.33">E𝄫</text>
<text y="339.33">D𝄪</text>
<text y="363.33">F𝄫</text>
<text y="531.33">E𝄪</text>
<text y="555.33">G𝄫</text>
<text y="651.33">F𝄪</text>
<text y="747.33">A𝄫</text>
<text y="843.33">G𝄪</text>
<text y="939.33">B𝄫</text>
<text y="1035.33">A𝄪</text>
<text y="1059.33">C𝄫</text>
</g>
<g font-size="12">
<text y="76">C♯</text>
<text y="124">D♭</text>
<text y="268">D♯</text>
<text y="316">E♭</text>
<text y="436">F♭</text>
<text y="460">E♯</text>
<text y="580">F♯</text>
<text y="628">G♭</text>
<text y="772">G♯</text>
<text y="820">A♭</text>
<text y="964">A♯</text>
<text y="1012">B♭</text>
<text y="1132">C♭</text>
<text y="1156">B♯</text>
</g>
<g font-size="14">
<text y="4.67">C</text>
<text y="1204.67">C</text>
<text y="196.67">D</text>
<text y="388.67">E</text>
<text y="508.67">F</text>
<text y="700.67">G</text>
<text y="892.67">A</text>
<text y="1084.67">B</text>
</g>
</g>
<g transform="translate(390 0)">
<g font-size="10">
<text y="23.73">B𝄪</text>
<text y="53.61">D𝄫</text>
<text y="144.68">C𝄪</text>
<text y="245.23">E𝄫</text>
<text y="336.3">D𝄪</text>
<text y="366.18">F𝄫</text>
<text y="527.92">E𝄪</text>
<text y="557.8">G𝄫</text>
<text y="648.87">F𝄪</text>
<text y="749.42">A𝄫</text>
<text y="840.49">G𝄪</text>
<text y="941.04">B𝄫</text>
<text y="1032.11">A𝄪</text>
<text y="1061.99">C𝄫</text>
</g>
<g font-size="12">
<text y="74.67">C♯</text>
<text y="124.95">D♭</text>
<text y="266.29">D♯</text>
<text y="316.57">E♭</text>
<text y="437.52">F♭</text>
<text y="457.91">E♯</text>
<text y="578.86">F♯</text>
<text y="629.14">G♭</text>
<text y="770.48">G♯</text>
<text y="820.76">A♭</text>
<text y="962.1">A♯</text>
<text y="1012.38">B♭</text>
<text y="1133.33">C♭</text>
<text y="1153.72">B♯</text>
</g>
<g font-size="14">
<text y="4.67">C</text>
<text y="1204.67">C</text>
<text y="196.29">D</text>
<text y="387.91">E</text>
<text y="508.86">F</text>
<text y="700.48">G</text>
<text y="892.1">A</text>
<text y="1083.72">B</text>
</g>
</g>
<g transform="translate(420 0)">
<g font-size="10">
<text y="13.12">B𝄪</text>
<text y="60.31">D𝄫</text>
<text y="136.86">C𝄪</text>
<text y="250.81">E𝄫</text>
<text y="327.37">D𝄪</text>
<text y="374.55">F𝄫</text>
<text y="517.87">E𝄪</text>
<text y="565.06">G𝄫</text>
<text y="641.61">F𝄪</text>
<text y="755.56">A𝄫</text>
<text y="832.12">G𝄪</text>
<text y="946.06">B𝄫</text>
<text y="1022.62">A𝄪</text>
<text y="1069.8">C𝄫</text>
</g>
<g font-size="12">
<text y="70.76">C♯</text>
<text y="127.74">D♭</text>
<text y="261.27">D♯</text>
<text y="318.24">E♭</text>
<text y="441.98">F♭</text>
<text y="451.77">E♯</text>
<text y="575.51">F♯</text>
<text y="632.49">G♭</text>
<text y="766.02">G♯</text>
<text y="822.99">A♭</text>
<text y="956.52">A♯</text>
<text y="1013.5">B♭</text>
<text y="1137.24">C♭</text>
<text y="1147.03">B♯</text>
</g>
<g font-size="14">
<text y="4.67">C</text>
<text y="1204.67">C</text>
<text y="195.17">D</text>
<text y="385.68">E</text>
<text y="509.41">F</text>
<text y="699.92">G</text>
<text y="890.42">A</text>
<text y="1080.93">B</text>
</g>
</g>
<g transform="translate(450 0)">
<g font-size="12">
<text y="67.5">C♯</text>
<text y="130.07">D♭</text>
<text y="257.08">D♯</text>
<text y="319.64">E♭</text>
<text y="445.71">F♭</text>
<text y="446.65">E♯</text>
<text y="572.72">F♯</text>
<text y="635.28">G♭</text>
<text y="762.29">G♯</text>
<text y="824.86">A♭</text>
<text y="951.86">A♯</text>
<text y="1014.43">B♭</text>
<text y="1140.5">C♭</text>
<text y="1141.43">B♯</text>
</g>
<g font-size="14">
<text y="4.67">C</text>
<text y="1204.67">C</text>
<text y="194.24">D</text>
<text y="383.81">E</text>
<text y="509.88">F</text>
<text y="699.45">G</text>
<text y="889.03">A</text>
<text y="1078.6">B</text>
</g>
</g>
<g transform="translate(480 0)">
<g font-size="10">
<text y="440.44">E♯</text>
<text y="450.44">F♭</text>
<text y="1135.18">B♯</text>
<text y="1145.18">C♭</text>
</g>
<g font-size="12">
<text y="67.16">C♯</text>
<text y="130.32">D♭</text>
<text y="256.63">D♯</text>
<text y="319.79">E♭</text>
<text y="572.42">F♯</text>
<text y="635.58">G♭</text>
<text y="761.89">G♯</text>
<text y="825.05">A♭</text>
<text y="951.37">A♯</text>
<text y="1014.53">B♭</text>
</g>
<g font-size="14">
<text y="4.67">C</text>
<text y="1204.67">C</text>
<text y="194.14">D</text>
<text y="383.61">E</text>
<text y="509.93">F</text>
<text y="699.4">G</text>
<text y="888.88">A</text>
<text y="1078.35">B</text>
</g>
</g>
</g>
</g>
<a href="https://www.fidolab.org">
<text fill="grey" font-size="20" font-style="italic" text-anchor="middle" x="457.5" y="1587">www.FidoLab.org</text>
</a>
</g>
</svg>
