<?xml version="1.0"?>
<!DOCTYPE svg PUBLIC "-//W3C//DTD SVG 1.1//EN" "http://www.w3.org/Graphics/SVG/1.1/DTD/svg11.dtd">
<svg xmlns="http://www.w3.org/2000/svg" xmlns:xlink="http://www.w3.org/1999/xlink" width="750" height="1318">
<g style="font-family: Times New Roman;">
<text font-size="36" text-anchor="middle" x="375" y="36">La Monte Young's Well Tuned Piano Temperament</text>
<g transform="translate(100 72)">
<g fill="transparent" stroke="black" stroke-width="1">
<path d="M0 0 H20 V1200 H0"/>
<path d="M0 100 H20"/>
<path d="M0 200 H20"/>
<path d="M0 300 H20"/>
<path d="M0 400 H20"/>
<path d="M0 500 H20"/>
<path d="M0 600 H20"/>
<path d="M0 700 H20"/>
<path d="M0 800 H20"/>
<path d="M0 900 H20"/>
<path d="M0 1000 H20"/>
<path d="M0 1100 H20"/>
<g transform="translate(7 0)">
<path d="M0 10 H13"/>
<path d="M0 20 H13"/>
<path d="M0 30 H13"/>
<path d="M0 40 H13"/>
<path d="M0 50 H13"/>
<path d="M0 60 H13"/>
<path d="M0 70 H13"/>
<path d="M0 80 H13"/>
<path d="M0 90 H13"/>
<path d="M0 110 H13"/>
<path d="M0 120 H13"/>
<path d="M0 130 H13"/>
<path d="M0 140 H13"/>
<path d="M0 150 H13"/>
<path d="M0 160 H13"/>
<path d="M0 170 H13"/>
<path d="M0 180 H13"/>
<path d="M0 190 H13"/>
<path d="M0 210 H13"/>
<path d="M0 220 H13"/>
<path d="M0 230 H13"/>
<path d="M0 240 H13"/>
<path d="M0 250 H13"/>
<path d="M0 260 H13"/>
<path d="M0 270 H13"/>
<path d="M0 280 H13"/>
<path d="M0 290 H13"/>
<path d="M0 310 H13"/>
<path d="M0 320 H13"/>
<path d="M0 330 H13"/>
<path d="M0 340 H13"/>
<path d="M0 350 H13"/>
<path d="M0 360 H13"/>
<path d="M0 370 H13"/>
<path d="M0 380 H13"/>
<path d="M0 390 H13"/>
<path d="M0 410 H13"/>
<path d="M0 420 H13"/>
<path d="M0 430 H13"/>
<path d="M0 440 H13"/>
<path d="M0 450 H13"/>
<path d="M0 460 H13"/>
<path d="M0 470 H13"/>
<path d="M0 480 H13"/>
<path d="M0 490 H13"/>
<path d="M0 510 H13"/>
<path d="M0 520 H13"/>
<path d="M0 530 H13"/>
<path d="M0 540 H13"/>
<path d="M0 550 H13"/>
<path d="M0 560 H13"/>
<path d="M0 570 H13"/>
<path d="M0 580 H13"/>
<path d="M0 590 H13"/>
<path d="M0 610 H13"/>
<path d="M0 620 H13"/>
<path d="M0 630 H13"/>
<path d="M0 640 H13"/>
<path d="M0 650 H13"/>
<path d="M0 660 H13"/>
<path d="M0 670 H13"/>
<path d="M0 680 H13"/>
<path d="M0 690 H13"/>
<path d="M0 710 H13"/>
<path d="M0 720 H13"/>
<path d="M0 730 H13"/>
<path d="M0 740 H13"/>
<path d="M0 750 H13"/>
<path d="M0 760 H13"/>
<path d="M0 770 H13"/>
<path d="M0 780 H13"/>
<path d="M0 790 H13"/>
<path d="M0 810 H13"/>
<path d="M0 820 H13"/>
<path d="M0 830 H13"/>
<path d="M0 840 H13"/>
<path d="M0 850 H13"/>
<path d="M0 860 H13"/>
<path d="M0 870 H13"/>
<path d="M0 880 H13"/>
<path d="M0 890 H13"/>
<path d="M0 910 H13"/>
<path d="M0 920 H13"/>
<path d="M0 930 H13"/>
<path d="M0 940 H13"/>
<path d="M0 950 H13"/>
<path d="M0 960 H13"/>
<path d="M0 970 H13"/>
<path d="M0 980 H13"/>
<path d="M0 990 H13"/>
<path d="M0 1010 H13"/>
<path d="M0 1020 H13"/>
<path d="M0 1030 H13"/>
<path d="M0 1040 H13"/>
<path d="M0 1050 H13"/>
<path d="M0 1060 H13"/>
<path d="M0 1070 H13"/>
<path d="M0 1080 H13"/>
<path d="M0 1090 H13"/>
<path d="M0 1110 H13"/>
<path d="M0 1120 H13"/>
<path d="M0 1130 H13"/>
<path d="M0 1140 H13"/>
<path d="M0 1150 H13"/>
<path d="M0 1160 H13"/>
<path d="M0 1170 H13"/>
<path d="M0 1180 H13"/>
<path d="M0 1190 H13"/>
</g>
<g transform="translate(13 0)">
<path d="M0 5 H7"/>
<path d="M0 15 H7"/>
<path d="M0 25 H7"/>
<path d="M0 35 H7"/>
<path d="M0 45 H7"/>
<path d="M0 55 H7"/>
<path d="M0 65 H7"/>
<path d="M0 75 H7"/>
<path d="M0 85 H7"/>
<path d="M0 95 H7"/>
<path d="M0 105 H7"/>
<path d="M0 115 H7"/>
<path d="M0 125 H7"/>
<path d="M0 135 H7"/>
<path d="M0 145 H7"/>
<path d="M0 155 H7"/>
<path d="M0 165 H7"/>
<path d="M0 175 H7"/>
<path d="M0 185 H7"/>
<path d="M0 195 H7"/>
<path d="M0 205 H7"/>
<path d="M0 215 H7"/>
<path d="M0 225 H7"/>
<path d="M0 235 H7"/>
<path d="M0 245 H7"/>
<path d="M0 255 H7"/>
<path d="M0 265 H7"/>
<path d="M0 275 H7"/>
<path d="M0 285 H7"/>
<path d="M0 295 H7"/>
<path d="M0 305 H7"/>
<path d="M0 315 H7"/>
<path d="M0 325 H7"/>
<path d="M0 335 H7"/>
<path d="M0 345 H7"/>
<path d="M0 355 H7"/>
<path d="M0 365 H7"/>
<path d="M0 375 H7"/>
<path d="M0 385 H7"/>
<path d="M0 395 H7"/>
<path d="M0 405 H7"/>
<path d="M0 415 H7"/>
<path d="M0 425 H7"/>
<path d="M0 435 H7"/>
<path d="M0 445 H7"/>
<path d="M0 455 H7"/>
<path d="M0 465 H7"/>
<path d="M0 475 H7"/>
<path d="M0 485 H7"/>
<path d="M0 495 H7"/>
<path d="M0 505 H7"/>
<path d="M0 515 H7"/>
<path d="M0 525 H7"/>
<path d="M0 535 H7"/>
<path d="M0 545 H7"/>
<path d="M0 555 H7"/>
<path d="M0 565 H7"/>
<path d="M0 575 H7"/>
<path d="M0 585 H7"/>
<path d="M0 595 H7"/>
<path d="M0 605 H7"/>
<path d="M0 615 H7"/>
<path d="M0 625 H7"/>
<path d="M0 635 H7"/>
<path d="M0 645 H7"/>
<path d="M0 655 H7"/>
<path d="M0 665 H7"/>
<path d="M0 675 H7"/>
<path d="M0 685 H7"/>
<path d="M0 695 H7"/>
<path d="M0 705 H7"/>
<path d="M0 715 H7"/>
<path d="M0 725 H7"/>
<path d="M0 735 H7"/>
<path d="M0 745 H7"/>
<path d="M0 755 H7"/>
<path d="M0 765 H7"/>
<path d="M0 775 H7"/>
<path d="M0 785 H7"/>
<path d="M0 795 H7"/>
<path d="M0 805 H7"/>
<path d="M0 815 H7"/>
<path d="M0 825 H7"/>
<path d="M0 835 H7"/>
<path d="M0 845 H7"/>
<path d="M0 855 H7"/>
<path d="M0 865 H7"/>
<path d="M0 875 H7"/>
<path d="M0 885 H7"/>
<path d="M0 895 H7"/>
<path d="M0 905 H7"/>
<path d="M0 915 H7"/>
<path d="M0 925 H7"/>
<path d="M0 935 H7"/>
<path d="M0 945 H7"/>
<path d="M0 955 H7"/>
<path d="M0 965 H7"/>
<path d="M0 975 H7"/>
<path d="M0 985 H7"/>
<path d="M0 995 H7"/>
<path d="M0 1005 H7"/>
<path d="M0 1015 H7"/>
<path d="M0 1025 H7"/>
<path d="M0 1035 H7"/>
<path d="M0 1045 H7"/>
<path d="M0 1055 H7"/>
<path d="M0 1065 H7"/>
<path d="M0 1075 H7"/>
<path d="M0 1085 H7"/>
<path d="M0 1095 H7"/>
<path d="M0 1105 H7"/>
<path d="M0 1115 H7"/>
<path d="M0 1125 H7"/>
<path d="M0 1135 H7"/>
<path d="M0 1145 H7"/>
<path d="M0 1155 H7"/>
<path d="M0 1165 H7"/>
<path d="M0 1175 H7"/>
<path d="M0 1185 H7"/>
<path d="M0 1195 H7"/>
</g>
</g>
<g fill="black" font-size="20" text-anchor="end" transform="translate(-5 6.7)">
<text y="0">0</text>
<text y="100">100</text>
<text y="200">200</text>
<text y="300">300</text>
<text y="400">400</text>
<text y="500">500</text>
<text y="600">600</text>
<text y="700">700</text>
<text y="800">800</text>
<text y="900">900</text>
<text y="1000">1000</text>
<text y="1100">1100</text>
<text y="1200">1200</text>
</g>
<g fill="black" font-size="13" text-anchor="end" transform="translate(2 4.3)">
<text y="20">20</text>
<text y="40">40</text>
<text y="60">60</text>
<text y="80">80</text>
<text y="120">120</text>
<text y="140">140</text>
<text y="160">160</text>
<text y="180">180</text>
<text y="220">220</text>
<text y="240">240</text>
<text y="260">260</text>
<text y="280">280</text>
<text y="320">320</text>
<text y="340">340</text>
<text y="360">360</text>
<text y="380">380</text>
<text y="420">420</text>
<text y="440">440</text>
<text y="460">460</text>
<text y="480">480</text>
<text y="520">520</text>
<text y="540">540</text>
<text y="560">560</text>
<text y="580">580</text>
<text y="620">620</text>
<text y="640">640</text>
<text y="660">660</text>
<text y="680">680</text>
<text y="720">720</text>
<text y="740">740</text>
<text y="760">760</text>
<text y="780">780</text>
<text y="820">820</text>
<text y="840">840</text>
<text y="860">860</text>
<text y="880">880</text>
<text y="920">920</text>
<text y="940">940</text>
<text y="960">960</text>
<text y="980">980</text>
<text y="1020">1020</text>
<text y="1040">1040</text>
<text y="1060">1060</text>
<text y="1080">1080</text>
<text y="1120">1120</text>
<text y="1140">1140</text>
<text y="1160">1160</text>
<text y="1180">1180</text>
</g>
</g>
<g transform="translate(125 72)">
<g fill="transparent" stroke="black">
<g stroke-width="1">
<path d="M0 21.51 H400"/>
<path d="M0 41.06 H400"/>
<path d="M0 70.67 H400"/>
<path d="M0 92.18 H400"/>
<path d="M0 111.73 H400"/>
<path d="M0 133.24 H400"/>
<path d="M0 294.13 H400"/>
<path d="M0 407.82 H398.58 L400 404.98"/>
<path d="M0 427.37 H396.8 L400 420.98"/>
<path d="M0 456.99 H400"/>
<path d="M0 568.72 H393 L400 554.72"/>
<path d="M0 590.22 H400"/>
<path d="M0 609.78 H400"/>
<path d="M0 631.28 H393.09 L400 645.11"/>
<path d="M0 680.45 H400"/>
<path d="M0 743.01 H400"/>
<path d="M0 772.63 H400"/>
<path d="M0 792.18 H400"/>
<path d="M0 840.53 H400"/>
<path d="M0 905.87 H400"/>
<path d="M0 1049.36 H400"/>
<path d="M0 1088.27 H400"/>
<path d="M0 1109.78 H400"/>
<path d="M0 1137.04 H400"/>
<path d="M0 1158.94 H400"/>
</g>
<g stroke-width="2">
<path d="M0 182.4 H400"/>
<path d="M0 203.91 H400"/>
<path d="M0 231.17 H400"/>
<path d="M0 266.87 H400"/>
<path d="M0 435.08 H398.55 L400 437.98"/>
<path d="M0 582.51 H394.94 L400 572.38"/>
<path d="M0 617.49 H395.02 L400 627.44"/>
<path d="M0 933.13 H400"/>
<path d="M0 968.83 H400"/>
<path d="M0 996.09 H400"/>
<path d="M0 1017.6 H400"/>
</g>
<g stroke-width="3">
<path d="M0 0 H400"/>
<path d="M0 315.64 H400"/>
<path d="M0 386.31 H400"/>
<path d="M0 498.04 H400"/>
<path d="M0 701.96 H400"/>
<path d="M0 813.69 H400"/>
<path d="M0 884.36 H400"/>
<path d="M0 1200 H400"/>
</g>
</g>
<g transform="translate(404 0)">
<g font-size="12">
<text y="25.51">81/80 syntonic comma</text>
<text y="45.06">128/125 diminished 2nd</text>
<text y="74.67">25/24 chromatic semitone</text>
<text y="96.18">135/128</text>
<text y="115.73">16/15 diatonic semitone</text>
<text y="137.24">27/25</text>
<text y="298.13">32/27 Pythagorean minor 3rd</text>
<text y="408.98">81/64 ditone</text>
<text y="424.98">32/25 diminished 4th</text>
<text y="460.99">125/96 augmented 3rd</text>
<text y="558.72">25/18 augmented 4th </text>
<text y="594.22">45/32 high / diatonic tritone</text>
<text y="613.78">64/45 low tritone</text>
<text y="649.11">36/25 diminished 5th</text>
<text y="684.45">40/27 dissonant "wolf" 5th</text>
<text y="747.01">192/125 diminished 6th</text>
<text y="776.63">25/16 augmented 5th</text>
<text y="796.18">128/81 Pythagorean minor 6th</text>
<text y="844.53">13/8 overtone 6th</text>
<text y="909.87">27/16 Pythagorean major 6th</text>
<text y="1053.36">11/6 undecimal "median" 7th</text>
<text y="1092.27">15/8 major 7th</text>
<text y="1113.78">243/128 Pythagorean major 7th</text>
<text y="1141.04">27/14 septimal major 7th</text>
<text y="1162.94">125/64 augmented 7th</text>
</g>
<g font-size="15">
<text y="187.4">10/9 minor 2nd</text>
<text y="208.91">9/8 major 2nd</text>
<text y="442.98">9/7 septimal major 3rd</text>
<text y="1001.09">16/9 Pythagorean small min. 7th</text>
<text y="1022.6">9/5 large minor 7th</text>
</g>
<g font-size="17">
<text y="236.84">8/7 septimal major 2nd</text>
<text y="272.54">7/6 septimal minor 3rd</text>
<text y="578.05">7/5 septimal tritone</text>
<text y="633.11">10/7 septimal tritone</text>
<text y="938.8">12/7 septimal major 6th</text>
<text y="974.49">7/4 septimal minor 7th</text>
</g>
<g font-size="20">
<text y="6.67">1/1 tonic</text>
<text y="322.31">6/5 minor 3rd</text>
<text y="392.98">5/4 major 3rd</text>
<text y="504.71">4/3 major 4th</text>
<text y="708.62">3/2 perfect 5th</text>
<text y="820.35">8/5 minor 6th</text>
<text y="891.03">5/3 major 6th</text>
<text y="1206.67">2/1 octave</text>
</g>
</g>
<g stroke="lightgrey" stroke-dasharray="3 3">
<path d="M0 100 H400"/>
<path d="M0 200 H400"/>
<path d="M0 300 H400"/>
<path d="M0 400 H400"/>
<path d="M0 500 H400"/>
<path d="M0 600 H400"/>
<path d="M0 700 H400"/>
<path d="M0 800 H400"/>
<path d="M0 900 H400"/>
<path d="M0 1000 H400"/>
<path d="M0 1100 H400"/>
</g>
</g>
<g font-size="20" text-anchor="left" transform="translate(150 52) rotate(270)">
</g>
<g transform="translate(145 72)">
<g stroke="grey">
<path d="M0 0 V1200"/>
<path d="M30 0 V1200"/>
<path d="M60 0 V1200"/>
<path d="M105 0 V1200"/>
<path d="M135 0 V1200"/>
<path d="M165 0 V1200"/>
<path d="M195 0 V1200"/>
<path d="M225 0 V1200"/>
<path d="M270 0 V1200"/>
<path d="M300 0 V1200"/>
<path d="M330 0 V1200"/>
<path d="M360 0 V1200"/>
</g>
<g fill="#404040">
<circle cy="0" r="11.5"/>
<circle cy="1200" r="11.5"/>
<circle cy="701.96" r="11.5"/>
<circle cy="239.61" r="11.5"/>
<circle cy="941.56" r="11.5"/>
<circle cy="443.52" r="11.5"/>
</g>
<g fill="#2020ff">
<circle cy="203.91" r="11.5"/>
<circle cy="968.83" r="11.5"/>
<circle cy="470.78" r="11.5"/>
<circle cy="1172.74" r="11.5"/>
<circle cy="674.69" r="11.5"/>
<circle cy="176.65" r="11.5"/>
<circle cy="737.65" r="11.5"/>
</g>
<g transform="translate(30 0)">
<g fill="#404040">
<circle cy="498.04" r="11.5"/>
<circle cy="0" r="11.5"/>
<circle cy="1200" r="11.5"/>
<circle cy="737.65" r="11.5"/>
<circle cy="239.61" r="11.5"/>
<circle cy="941.56" r="11.5"/>
</g>
<g fill="#2020ff">
<circle cy="701.96" r="11.5"/>
<circle cy="266.87" r="11.5"/>
<circle cy="968.83" r="11.5"/>
<circle cy="470.78" r="11.5"/>
<circle cy="1172.74" r="11.5"/>
<circle cy="674.69" r="11.5"/>
<circle cy="35.7" r="11.5"/>
</g>
</g>
<g transform="translate(60 0)">
<g fill="#404040">
<circle cy="996.09" r="11.5"/>
<circle cy="498.04" r="11.5"/>
<circle cy="35.7" r="11.5"/>
<circle cy="737.65" r="11.5"/>
<circle cy="239.61" r="11.5"/>
</g>
<g fill="#2020ff">
<circle cy="0" r="11.5"/>
<circle cy="1200" r="11.5"/>
<circle cy="764.92" r="11.5"/>
<circle cy="266.87" r="11.5"/>
<circle cy="968.83" r="11.5"/>
<circle cy="470.78" r="11.5"/>
<circle cy="1172.74" r="11.5"/>
<circle cy="533.74" r="11.5"/>
</g>
</g>
<g transform="translate(105 0)">
<g fill="#404040">
<circle cy="231.17" r="11.5"/>
<circle cy="933.13" r="11.5"/>
<circle cy="470.78" r="11.5"/>
<circle cy="1172.74" r="11.5"/>
<circle cy="674.69" r="11.5"/>
</g>
<g fill="#2020ff">
<circle cy="435.08" r="11.5"/>
<circle cy="0" r="11.5"/>
<circle cy="1200" r="11.5"/>
<circle cy="701.96" r="11.5"/>
<circle cy="203.91" r="11.5"/>
<circle cy="905.87" r="11.5"/>
<circle cy="407.82" r="11.5"/>
<circle cy="968.83" r="11.5"/>
</g>
</g>
<g transform="translate(135 0)">
<g fill="#404040">
<circle cy="729.22" r="11.5"/>
<circle cy="231.17" r="11.5"/>
<circle cy="968.83" r="11.5"/>
<circle cy="470.78" r="11.5"/>
<circle cy="1172.74" r="11.5"/>
</g>
<g fill="#2020ff">
<circle cy="933.13" r="11.5"/>
<circle cy="498.04" r="11.5"/>
<circle cy="0" r="11.5"/>
<circle cy="1200" r="11.5"/>
<circle cy="701.96" r="11.5"/>
<circle cy="203.91" r="11.5"/>
<circle cy="905.87" r="11.5"/>
<circle cy="266.87" r="11.5"/>
</g>
</g>
<g transform="translate(165 0)">
<g fill="#404040">
<circle cy="27.26" r="11.5"/>
<circle cy="729.22" r="11.5"/>
<circle cy="266.87" r="11.5"/>
<circle cy="968.83" r="11.5"/>
<circle cy="470.78" r="11.5"/>
</g>
<g fill="#2020ff">
<circle cy="231.17" r="11.5"/>
<circle cy="996.09" r="11.5"/>
<circle cy="498.04" r="11.5"/>
<circle cy="0" r="11.5"/>
<circle cy="1200" r="11.5"/>
<circle cy="701.96" r="11.5"/>
<circle cy="203.91" r="11.5"/>
<circle cy="764.92" r="11.5"/>
</g>
</g>
<g transform="translate(195 0)">
<g fill="#404040">
<circle cy="525.31" r="11.5"/>
<circle cy="27.26" r="11.5"/>
<circle cy="764.92" r="11.5"/>
<circle cy="266.87" r="11.5"/>
<circle cy="968.83" r="11.5"/>
</g>
<g fill="#2020ff">
<circle cy="729.22" r="11.5"/>
<circle cy="294.13" r="11.5"/>
<circle cy="996.09" r="11.5"/>
<circle cy="498.04" r="11.5"/>
<circle cy="0" r="11.5"/>
<circle cy="1200" r="11.5"/>
<circle cy="701.96" r="11.5"/>
<circle cy="62.96" r="11.5"/>
</g>
</g>
<g transform="translate(225 0)">
<g fill="#404040">
<circle cy="1023.35" r="11.5"/>
<circle cy="525.31" r="11.5"/>
<circle cy="62.96" r="11.5"/>
<circle cy="764.92" r="11.5"/>
<circle cy="266.87" r="11.5"/>
</g>
<g fill="#2020ff">
<circle cy="27.26" r="11.5"/>
<circle cy="792.18" r="11.5"/>
<circle cy="294.13" r="11.5"/>
<circle cy="996.09" r="11.5"/>
<circle cy="498.04" r="11.5"/>
<circle cy="0" r="11.5"/>
<circle cy="1200" r="11.5"/>
<circle cy="561.01" r="11.5"/>
</g>
</g>
<g transform="translate(270 0)">
<g fill="#404040">
<circle cy="462.35" r="11.5"/>
<circle cy="1164.3" r="11.5"/>
<circle cy="701.96" r="11.5"/>
<circle cy="203.91" r="11.5"/>
<circle cy="905.87" r="11.5"/>
</g>
<g fill="#2020ff">
<circle cy="666.26" r="11.5"/>
<circle cy="231.17" r="11.5"/>
<circle cy="933.13" r="11.5"/>
<circle cy="435.08" r="11.5"/>
<circle cy="1137.04" r="11.5"/>
<circle cy="638.99" r="11.5"/>
<circle cy="0" r="11.5"/>
<circle cy="1200" r="11.5"/>
</g>
</g>
<g transform="translate(300 0)">
<g fill="#404040">
<circle cy="960.39" r="11.5"/>
<circle cy="462.35" r="11.5"/>
<circle cy="0" r="11.5"/>
<circle cy="1200" r="11.5"/>
<circle cy="701.96" r="11.5"/>
<circle cy="203.91" r="11.5"/>
</g>
<g fill="#2020ff">
<circle cy="1164.3" r="11.5"/>
<circle cy="729.22" r="11.5"/>
<circle cy="231.17" r="11.5"/>
<circle cy="933.13" r="11.5"/>
<circle cy="435.08" r="11.5"/>
<circle cy="1137.04" r="11.5"/>
<circle cy="498.04" r="11.5"/>
</g>
</g>
<g transform="translate(330 0)">
<g fill="#404040">
<circle cy="258.44" r="11.5"/>
<circle cy="960.39" r="11.5"/>
<circle cy="498.04" r="11.5"/>
<circle cy="0" r="11.5"/>
<circle cy="1200" r="11.5"/>
<circle cy="701.96" r="11.5"/>
</g>
<g fill="#2020ff">
<circle cy="462.35" r="11.5"/>
<circle cy="27.26" r="11.5"/>
<circle cy="729.22" r="11.5"/>
<circle cy="231.17" r="11.5"/>
<circle cy="933.13" r="11.5"/>
<circle cy="435.08" r="11.5"/>
<circle cy="996.09" r="11.5"/>
</g>
</g>
<g transform="translate(360 0)">
<g fill="#404040">
<circle cy="756.48" r="11.5"/>
<circle cy="258.44" r="11.5"/>
<circle cy="996.09" r="11.5"/>
<circle cy="498.04" r="11.5"/>
<circle cy="0" r="11.5"/>
<circle cy="1200" r="11.5"/>
</g>
<g fill="#2020ff">
<circle cy="960.39" r="11.5"/>
<circle cy="525.31" r="11.5"/>
<circle cy="27.26" r="11.5"/>
<circle cy="729.22" r="11.5"/>
<circle cy="231.17" r="11.5"/>
<circle cy="933.13" r="11.5"/>
<circle cy="294.13" r="11.5"/>
</g>
</g>
<g fill="white" text-anchor="middle">
<g font-size="12">
<text y="4">E♭</text>
<text y="1204">E♭</text>
<text y="705.96">B♭</text>
<text y="243.61">F♯</text>
<text y="945.56">C♯</text>
<text y="447.52">G♯</text>
</g>
<g font-size="14">
<text y="208.58">F</text>
<text y="973.49">C</text>
<text y="475.45">G</text>
<text y="1177.4">D</text>
<text y="679.36">A</text>
<text y="181.31">E</text>
<text y="742.32">B</text>
</g>
<g transform="translate(30 0)">
<g font-size="12">
<text y="502.04">E♭</text>
<text y="4">B♭</text>
<text y="1204">B♭</text>
<text y="741.65">F♯</text>
<text y="243.61">C♯</text>
<text y="945.56">G♯</text>
</g>
<g font-size="14">
<text y="706.62">F</text>
<text y="271.54">C</text>
<text y="973.49">G</text>
<text y="475.45">D</text>
<text y="1177.4">A</text>
<text y="679.36">E</text>
<text y="40.36">B</text>
</g>
</g>
<g transform="translate(60 0)">
<g font-size="12">
<text y="1000.09">E♭</text>
<text y="502.04">B♭</text>
<text y="39.7">F♯</text>
<text y="741.65">C♯</text>
<text y="243.61">G♯</text>
</g>
<g font-size="14">
<text y="4.67">F</text>
<text y="1204.67">F</text>
<text y="769.58">C</text>
<text y="271.54">G</text>
<text y="973.49">D</text>
<text y="475.45">A</text>
<text y="1177.4">E</text>
<text y="538.41">B</text>
</g>
</g>
<g transform="translate(105 0)">
<g font-size="12">
<text y="235.17">E♭</text>
<text y="937.13">B♭</text>
<text y="474.78">F♯</text>
<text y="1176.74">C♯</text>
<text y="678.69">G♯</text>
</g>
<g font-size="14">
<text y="439.75">F</text>
<text y="4.67">C</text>
<text y="1204.67">C</text>
<text y="706.62">G</text>
<text y="208.58">D</text>
<text y="910.53">A</text>
<text y="412.49">E</text>
<text y="973.49">B</text>
</g>
</g>
<g transform="translate(135 0)">
<g font-size="12">
<text y="733.22">E♭</text>
<text y="235.17">B♭</text>
<text y="972.83">F♯</text>
<text y="474.78">C♯</text>
<text y="1176.74">G♯</text>
</g>
<g font-size="14">
<text y="937.8">F</text>
<text y="502.71">C</text>
<text y="4.67">G</text>
<text y="1204.67">G</text>
<text y="706.62">D</text>
<text y="208.58">A</text>
<text y="910.53">E</text>
<text y="271.54">B</text>
</g>
</g>
<g transform="translate(165 0)">
<g font-size="12">
<text y="31.26">E♭</text>
<text y="733.22">B♭</text>
<text y="270.87">F♯</text>
<text y="972.83">C♯</text>
<text y="474.78">G♯</text>
</g>
<g font-size="14">
<text y="235.84">F</text>
<text y="1000.76">C</text>
<text y="502.71">G</text>
<text y="4.67">D</text>
<text y="1204.67">D</text>
<text y="706.62">A</text>
<text y="208.58">E</text>
<text y="769.58">B</text>
</g>
</g>
<g transform="translate(195 0)">
<g font-size="12">
<text y="529.31">E♭</text>
<text y="31.26">B♭</text>
<text y="768.92">F♯</text>
<text y="270.87">C♯</text>
<text y="972.83">G♯</text>
</g>
<g font-size="14">
<text y="733.89">F</text>
<text y="298.8">C</text>
<text y="1000.76">G</text>
<text y="502.71">D</text>
<text y="4.67">A</text>
<text y="1204.67">A</text>
<text y="706.62">E</text>
<text y="67.63">B</text>
</g>
</g>
<g transform="translate(225 0)">
<g font-size="12">
<text y="1027.35">E♭</text>
<text y="529.31">B♭</text>
<text y="66.96">F♯</text>
<text y="768.92">C♯</text>
<text y="270.87">G♯</text>
</g>
<g font-size="14">
<text y="31.93">F</text>
<text y="796.85">C</text>
<text y="298.8">G</text>
<text y="1000.76">D</text>
<text y="502.71">A</text>
<text y="4.67">E</text>
<text y="1204.67">E</text>
<text y="565.67">B</text>
</g>
</g>
<g transform="translate(270 0)">
<g font-size="12">
<text y="466.35">E♭</text>
<text y="1168.3">B♭</text>
<text y="705.96">F♯</text>
<text y="207.91">C♯</text>
<text y="909.87">G♯</text>
</g>
<g font-size="14">
<text y="670.92">F</text>
<text y="235.84">C</text>
<text y="937.8">G</text>
<text y="439.75">D</text>
<text y="1141.71">A</text>
<text y="643.66">E</text>
<text y="4.67">B</text>
<text y="1204.67">B</text>
</g>
</g>
<g transform="translate(300 0)">
<g font-size="12">
<text y="964.39">E♭</text>
<text y="466.35">B♭</text>
<text y="4">F♯</text>
<text y="1204">F♯</text>
<text y="705.96">C♯</text>
<text y="207.91">G♯</text>
</g>
<g font-size="14">
<text y="1168.97">F</text>
<text y="733.89">C</text>
<text y="235.84">G</text>
<text y="937.8">D</text>
<text y="439.75">A</text>
<text y="1141.71">E</text>
<text y="502.71">B</text>
</g>
</g>
<g transform="translate(330 0)">
<g font-size="12">
<text y="262.44">E♭</text>
<text y="964.39">B♭</text>
<text y="502.04">F♯</text>
<text y="4">C♯</text>
<text y="1204">C♯</text>
<text y="705.96">G♯</text>
</g>
<g font-size="14">
<text y="467.01">F</text>
<text y="31.93">C</text>
<text y="733.89">G</text>
<text y="235.84">D</text>
<text y="937.8">A</text>
<text y="439.75">E</text>
<text y="1000.76">B</text>
</g>
</g>
<g transform="translate(360 0)">
<g font-size="12">
<text y="760.48">E♭</text>
<text y="262.44">B♭</text>
<text y="1000.09">F♯</text>
<text y="502.04">C♯</text>
<text y="4">G♯</text>
<text y="1204">G♯</text>
</g>
<g font-size="14">
<text y="965.06">F</text>
<text y="529.98">C</text>
<text y="31.93">G</text>
<text y="733.89">D</text>
<text y="235.84">A</text>
<text y="937.8">E</text>
<text y="298.8">B</text>
</g>
</g>
</g>
</g>
<a href="https://www.fidolab.org">
<text fill="grey" font-size="20" font-style="italic" text-anchor="middle" x="397.5" y="1312">www.FidoLab.org</text>
</a>
</g>
</svg>
