<?xml version="1.0"?>
<!DOCTYPE svg PUBLIC "-//W3C//DTD SVG 1.1//EN" "http://www.w3.org/Graphics/SVG/1.1/DTD/svg11.dtd">
<svg xmlns="http://www.w3.org/2000/svg" xmlns:xlink="http://www.w3.org/1999/xlink"
width="735" height="1318"
>
<g style="font-family: Times New Roman;">
<text font-size="36" text-anchor="middle" x="367.5" y="36">Michael Harrison's Revelation Temperament</text>
<g transform="translate(100 72)">
<g stroke="black" stroke-width="1">
<path d="M20 0 V1200"/>
<path d="M0 0 H20"/>
<path d="M0 100 H20"/>
<path d="M0 200 H20"/>
<path d="M0 300 H20"/>
<path d="M0 400 H20"/>
<path d="M0 500 H20"/>
<path d="M0 600 H20"/>
<path d="M0 700 H20"/>
<path d="M0 800 H20"/>
<path d="M0 900 H20"/>
<path d="M0 1000 H20"/>
<path d="M0 1100 H20"/>
<path d="M0 1200 H20"/>
<g transform="translate(7 0)">
<path d="M0 10 H13"/>
<path d="M0 20 H13"/>
<path d="M0 30 H13"/>
<path d="M0 40 H13"/>
<path d="M0 50 H13"/>
<path d="M0 60 H13"/>
<path d="M0 70 H13"/>
<path d="M0 80 H13"/>
<path d="M0 90 H13"/>
<path d="M0 110 H13"/>
<path d="M0 120 H13"/>
<path d="M0 130 H13"/>
<path d="M0 140 H13"/>
<path d="M0 150 H13"/>
<path d="M0 160 H13"/>
<path d="M0 170 H13"/>
<path d="M0 180 H13"/>
<path d="M0 190 H13"/>
<path d="M0 210 H13"/>
<path d="M0 220 H13"/>
<path d="M0 230 H13"/>
<path d="M0 240 H13"/>
<path d="M0 250 H13"/>
<path d="M0 260 H13"/>
<path d="M0 270 H13"/>
<path d="M0 280 H13"/>
<path d="M0 290 H13"/>
<path d="M0 310 H13"/>
<path d="M0 320 H13"/>
<path d="M0 330 H13"/>
<path d="M0 340 H13"/>
<path d="M0 350 H13"/>
<path d="M0 360 H13"/>
<path d="M0 370 H13"/>
<path d="M0 380 H13"/>
<path d="M0 390 H13"/>
<path d="M0 410 H13"/>
<path d="M0 420 H13"/>
<path d="M0 430 H13"/>
<path d="M0 440 H13"/>
<path d="M0 450 H13"/>
<path d="M0 460 H13"/>
<path d="M0 470 H13"/>
<path d="M0 480 H13"/>
<path d="M0 490 H13"/>
<path d="M0 510 H13"/>
<path d="M0 520 H13"/>
<path d="M0 530 H13"/>
<path d="M0 540 H13"/>
<path d="M0 550 H13"/>
<path d="M0 560 H13"/>
<path d="M0 570 H13"/>
<path d="M0 580 H13"/>
<path d="M0 590 H13"/>
<path d="M0 610 H13"/>
<path d="M0 620 H13"/>
<path d="M0 630 H13"/>
<path d="M0 640 H13"/>
<path d="M0 650 H13"/>
<path d="M0 660 H13"/>
<path d="M0 670 H13"/>
<path d="M0 680 H13"/>
<path d="M0 690 H13"/>
<path d="M0 710 H13"/>
<path d="M0 720 H13"/>
<path d="M0 730 H13"/>
<path d="M0 740 H13"/>
<path d="M0 750 H13"/>
<path d="M0 760 H13"/>
<path d="M0 770 H13"/>
<path d="M0 780 H13"/>
<path d="M0 790 H13"/>
<path d="M0 810 H13"/>
<path d="M0 820 H13"/>
<path d="M0 830 H13"/>
<path d="M0 840 H13"/>
<path d="M0 850 H13"/>
<path d="M0 860 H13"/>
<path d="M0 870 H13"/>
<path d="M0 880 H13"/>
<path d="M0 890 H13"/>
<path d="M0 910 H13"/>
<path d="M0 920 H13"/>
<path d="M0 930 H13"/>
<path d="M0 940 H13"/>
<path d="M0 950 H13"/>
<path d="M0 960 H13"/>
<path d="M0 970 H13"/>
<path d="M0 980 H13"/>
<path d="M0 990 H13"/>
<path d="M0 1010 H13"/>
<path d="M0 1020 H13"/>
<path d="M0 1030 H13"/>
<path d="M0 1040 H13"/>
<path d="M0 1050 H13"/>
<path d="M0 1060 H13"/>
<path d="M0 1070 H13"/>
<path d="M0 1080 H13"/>
<path d="M0 1090 H13"/>
<path d="M0 1110 H13"/>
<path d="M0 1120 H13"/>
<path d="M0 1130 H13"/>
<path d="M0 1140 H13"/>
<path d="M0 1150 H13"/>
<path d="M0 1160 H13"/>
<path d="M0 1170 H13"/>
<path d="M0 1180 H13"/>
<path d="M0 1190 H13"/>
</g>
<g transform="translate(13 0)">
<path d="M0 5 H7"/>
<path d="M0 15 H7"/>
<path d="M0 25 H7"/>
<path d="M0 35 H7"/>
<path d="M0 45 H7"/>
<path d="M0 55 H7"/>
<path d="M0 65 H7"/>
<path d="M0 75 H7"/>
<path d="M0 85 H7"/>
<path d="M0 95 H7"/>
<path d="M0 105 H7"/>
<path d="M0 115 H7"/>
<path d="M0 125 H7"/>
<path d="M0 135 H7"/>
<path d="M0 145 H7"/>
<path d="M0 155 H7"/>
<path d="M0 165 H7"/>
<path d="M0 175 H7"/>
<path d="M0 185 H7"/>
<path d="M0 195 H7"/>
<path d="M0 205 H7"/>
<path d="M0 215 H7"/>
<path d="M0 225 H7"/>
<path d="M0 235 H7"/>
<path d="M0 245 H7"/>
<path d="M0 255 H7"/>
<path d="M0 265 H7"/>
<path d="M0 275 H7"/>
<path d="M0 285 H7"/>
<path d="M0 295 H7"/>
<path d="M0 305 H7"/>
<path d="M0 315 H7"/>
<path d="M0 325 H7"/>
<path d="M0 335 H7"/>
<path d="M0 345 H7"/>
<path d="M0 355 H7"/>
<path d="M0 365 H7"/>
<path d="M0 375 H7"/>
<path d="M0 385 H7"/>
<path d="M0 395 H7"/>
<path d="M0 405 H7"/>
<path d="M0 415 H7"/>
<path d="M0 425 H7"/>
<path d="M0 435 H7"/>
<path d="M0 445 H7"/>
<path d="M0 455 H7"/>
<path d="M0 465 H7"/>
<path d="M0 475 H7"/>
<path d="M0 485 H7"/>
<path d="M0 495 H7"/>
<path d="M0 505 H7"/>
<path d="M0 515 H7"/>
<path d="M0 525 H7"/>
<path d="M0 535 H7"/>
<path d="M0 545 H7"/>
<path d="M0 555 H7"/>
<path d="M0 565 H7"/>
<path d="M0 575 H7"/>
<path d="M0 585 H7"/>
<path d="M0 595 H7"/>
<path d="M0 605 H7"/>
<path d="M0 615 H7"/>
<path d="M0 625 H7"/>
<path d="M0 635 H7"/>
<path d="M0 645 H7"/>
<path d="M0 655 H7"/>
<path d="M0 665 H7"/>
<path d="M0 675 H7"/>
<path d="M0 685 H7"/>
<path d="M0 695 H7"/>
<path d="M0 705 H7"/>
<path d="M0 715 H7"/>
<path d="M0 725 H7"/>
<path d="M0 735 H7"/>
<path d="M0 745 H7"/>
<path d="M0 755 H7"/>
<path d="M0 765 H7"/>
<path d="M0 775 H7"/>
<path d="M0 785 H7"/>
<path d="M0 795 H7"/>
<path d="M0 805 H7"/>
<path d="M0 815 H7"/>
<path d="M0 825 H7"/>
<path d="M0 835 H7"/>
<path d="M0 845 H7"/>
<path d="M0 855 H7"/>
<path d="M0 865 H7"/>
<path d="M0 875 H7"/>
<path d="M0 885 H7"/>
<path d="M0 895 H7"/>
<path d="M0 905 H7"/>
<path d="M0 915 H7"/>
<path d="M0 925 H7"/>
<path d="M0 935 H7"/>
<path d="M0 945 H7"/>
<path d="M0 955 H7"/>
<path d="M0 965 H7"/>
<path d="M0 975 H7"/>
<path d="M0 985 H7"/>
<path d="M0 995 H7"/>
<path d="M0 1005 H7"/>
<path d="M0 1015 H7"/>
<path d="M0 1025 H7"/>
<path d="M0 1035 H7"/>
<path d="M0 1045 H7"/>
<path d="M0 1055 H7"/>
<path d="M0 1065 H7"/>
<path d="M0 1075 H7"/>
<path d="M0 1085 H7"/>
<path d="M0 1095 H7"/>
<path d="M0 1105 H7"/>
<path d="M0 1115 H7"/>
<path d="M0 1125 H7"/>
<path d="M0 1135 H7"/>
<path d="M0 1145 H7"/>
<path d="M0 1155 H7"/>
<path d="M0 1165 H7"/>
<path d="M0 1175 H7"/>
<path d="M0 1185 H7"/>
<path d="M0 1195 H7"/>
</g>
</g>
<g fill="black" font-size="20" text-anchor="end" transform="translate(-5 6.7)">
<text y="0">0</text>
<text y="100">100</text>
<text y="200">200</text>
<text y="300">300</text>
<text y="400">400</text>
<text y="500">500</text>
<text y="600">600</text>
<text y="700">700</text>
<text y="800">800</text>
<text y="900">900</text>
<text y="1000">1000</text>
<text y="1100">1100</text>
<text y="1200">1200</text>
</g>
<g fill="black" font-size="13" text-anchor="end" transform="translate(2 4.3)">
<text y="20">20</text>
<text y="40">40</text>
<text y="60">60</text>
<text y="80">80</text>
<text y="120">120</text>
<text y="140">140</text>
<text y="160">160</text>
<text y="180">180</text>
<text y="220">220</text>
<text y="240">240</text>
<text y="260">260</text>
<text y="280">280</text>
<text y="320">320</text>
<text y="340">340</text>
<text y="360">360</text>
<text y="380">380</text>
<text y="420">420</text>
<text y="440">440</text>
<text y="460">460</text>
<text y="480">480</text>
<text y="520">520</text>
<text y="540">540</text>
<text y="560">560</text>
<text y="580">580</text>
<text y="620">620</text>
<text y="640">640</text>
<text y="660">660</text>
<text y="680">680</text>
<text y="720">720</text>
<text y="740">740</text>
<text y="760">760</text>
<text y="780">780</text>
<text y="820">820</text>
<text y="840">840</text>
<text y="860">860</text>
<text y="880">880</text>
<text y="920">920</text>
<text y="940">940</text>
<text y="960">960</text>
<text y="980">980</text>
<text y="1020">1020</text>
<text y="1040">1040</text>
<text y="1060">1060</text>
<text y="1080">1080</text>
<text y="1120">1120</text>
<text y="1140">1140</text>
<text y="1160">1160</text>
<text y="1180">1180</text>
</g>
</g>
<g transform="translate(125 72)">
<line stroke="black" stroke-width="3" x1="0" x2="385" y1="0" y2="0"/>

<g transform="translate(389,6.67)"><text  fill="black" font-size="20" text-anchor="start">1/1 tonic</text></g>

<line stroke="black" stroke-width="1" x1="0" x2="385" y1="21.51" y2="21.51"/>

<g transform="translate(389,25.51)"><text  fill="black" font-size="12" text-anchor="start">81/80 syntonic comma</text></g>

<line stroke="black" stroke-width="1" x1="0" x2="385" y1="41.06" y2="41.06"/>

<g transform="translate(389,45.06)"><text  fill="black" font-size="12" text-anchor="start">128/125 diminished 2nd</text></g>

<line stroke="black" stroke-width="1" x1="0" x2="385" y1="70.67" y2="70.67"/>

<g transform="translate(389,74.67)"><text  fill="black" font-size="12" text-anchor="start">25/24 chromatic semitone</text></g>

<line stroke="black" stroke-width="1" x1="0" x2="385" y1="92.18" y2="92.18"/>

<g transform="translate(389,96.18)"><text  fill="black" font-size="12" text-anchor="start">135/128</text></g>

<line stroke="black" stroke-width="1" x1="0" x2="385" y1="111.73" y2="111.73"/>

<g transform="translate(389,115.73)"><text  fill="black" font-size="12" text-anchor="start">16/15 diatonic semitone</text></g>

<line stroke="black" stroke-width="1" x1="0" x2="385" y1="133.24" y2="133.24"/>

<g transform="translate(389,137.24)"><text  fill="black" font-size="12" text-anchor="start">27/25</text></g>

<line stroke="black" stroke-width="2" x1="0" x2="385" y1="182.4" y2="182.4"/>

<g transform="translate(389,187.4)"><text  fill="black" font-size="15" text-anchor="start">10/9 minor 2nd</text></g>

<line stroke="black" stroke-width="2" x1="0" x2="385" y1="203.91" y2="203.91"/>

<g transform="translate(389,208.91)"><text  fill="black" font-size="15" text-anchor="start">9/8 major 2nd</text></g>

<line stroke="black" stroke-width="2" x1="0" x2="385" y1="231.17" y2="231.17"/>

<g transform="translate(389,236.84)"><text  fill="black" font-size="17" text-anchor="start">8/7 septimal major 2nd</text></g>

<line stroke="black" stroke-width="2" x1="0" x2="385" y1="266.87" y2="266.87"/>

<g transform="translate(389,272.54)"><text  fill="black" font-size="17" text-anchor="start">7/6 septimal minor 3rd</text></g>

<line stroke="black" stroke-width="1" x1="0" x2="385" y1="294.13" y2="294.13"/>

<g transform="translate(389,298.13)"><text  fill="black" font-size="12" text-anchor="start">32/27 Pythagorean minor 3rd</text></g>

<line stroke="black" stroke-width="3" x1="0" x2="385" y1="315.64" y2="315.64"/>

<g transform="translate(389,322.31)"><text  fill="black" font-size="20" text-anchor="start">6/5 minor 3rd</text></g>

<line stroke="black" stroke-width="3" x1="0" x2="385" y1="386.31" y2="386.31"/>

<g transform="translate(389,392.98)"><text  fill="black" font-size="20" text-anchor="start">5/4 major 3rd</text></g>

<line stroke="black" stroke-width="1" x1="0" x2="383.58" y1="407.82" y2="407.82"/>

<line stroke="black" stroke-width="1" x1="383.58" x2="385" y1="407.82" y2="404.98"/>

<g transform="translate(389,408.98)"><text  fill="black" font-size="12" text-anchor="start">81/64 ditone</text></g>

<line stroke="black" stroke-width="1" x1="0" x2="381.8" y1="427.37" y2="427.37"/>

<line stroke="black" stroke-width="1" x1="381.8" x2="385" y1="427.37" y2="420.98"/>

<g transform="translate(389,424.98)"><text  fill="black" font-size="12" text-anchor="start">32/25 diminished 4th</text></g>

<line stroke="black" stroke-width="2" x1="0" x2="383.55" y1="435.08" y2="435.08"/>

<line stroke="black" stroke-width="2" x1="383.55" x2="385" y1="435.08" y2="437.98"/>

<g transform="translate(389,442.98)"><text  fill="black" font-size="15" text-anchor="start">9/7 septimal major 3rd</text></g>

<line stroke="black" stroke-width="1" x1="0" x2="385" y1="456.99" y2="456.99"/>

<g transform="translate(389,460.99)"><text  fill="black" font-size="12" text-anchor="start">125/96 augmented 3rd</text></g>

<line stroke="black" stroke-width="3" x1="0" x2="385" y1="498.04" y2="498.04"/>

<g transform="translate(389,504.71)"><text  fill="black" font-size="20" text-anchor="start">4/3 major 4th</text></g>

<line stroke="black" stroke-width="1" x1="0" x2="378" y1="568.72" y2="568.72"/>

<line stroke="black" stroke-width="1" x1="378" x2="385" y1="568.72" y2="554.72"/>

<g transform="translate(389,558.72)"><text  fill="black" font-size="12" text-anchor="start">25/18 augmented 4th </text></g>

<line stroke="black" stroke-width="2" x1="0" x2="379.94" y1="582.51" y2="582.51"/>

<line stroke="black" stroke-width="2" x1="379.94" x2="385" y1="582.51" y2="572.38"/>

<g transform="translate(389,578.05)"><text  fill="black" font-size="17" text-anchor="start">7/5 septimal tritone</text></g>

<line stroke="black" stroke-width="1" x1="0" x2="385" y1="590.22" y2="590.22"/>

<g transform="translate(389,594.22)"><text  fill="black" font-size="12" text-anchor="start">45/32 high / diatonic tritone</text></g>

<line stroke="black" stroke-width="1" x1="0" x2="385" y1="609.78" y2="609.78"/>

<g transform="translate(389,613.78)"><text  fill="black" font-size="12" text-anchor="start">64/45 low tritone</text></g>

<line stroke="black" stroke-width="2" x1="0" x2="380.02" y1="617.49" y2="617.49"/>

<line stroke="black" stroke-width="2" x1="380.02" x2="385" y1="617.49" y2="627.44"/>

<g transform="translate(389,633.11)"><text  fill="black" font-size="17" text-anchor="start">10/7 septimal tritone</text></g>

<line stroke="black" stroke-width="1" x1="0" x2="378.09" y1="631.28" y2="631.28"/>

<line stroke="black" stroke-width="1" x1="378.09" x2="385" y1="631.28" y2="645.11"/>

<g transform="translate(389,649.11)"><text  fill="black" font-size="12" text-anchor="start">36/25 diminished 5th</text></g>

<line stroke="black" stroke-width="1" x1="0" x2="385" y1="680.45" y2="680.45"/>

<g transform="translate(389,684.45)"><text  fill="black" font-size="12" text-anchor="start">40/27 dissonant "wolf" 5th</text></g>

<line stroke="black" stroke-width="3" x1="0" x2="385" y1="701.96" y2="701.96"/>

<g transform="translate(389,708.62)"><text  fill="black" font-size="20" text-anchor="start">3/2 perfect 5th</text></g>

<line stroke="black" stroke-width="1" x1="0" x2="385" y1="743.01" y2="743.01"/>

<g transform="translate(389,747.01)"><text  fill="black" font-size="12" text-anchor="start">192/125 diminished 6th</text></g>

<line stroke="black" stroke-width="1" x1="0" x2="385" y1="772.63" y2="772.63"/>

<g transform="translate(389,776.63)"><text  fill="black" font-size="12" text-anchor="start">25/16 augmented 5th</text></g>

<line stroke="black" stroke-width="1" x1="0" x2="385" y1="792.18" y2="792.18"/>

<g transform="translate(389,796.18)"><text  fill="black" font-size="12" text-anchor="start">128/81 Pythagorean minor 6th</text></g>

<line stroke="black" stroke-width="3" x1="0" x2="385" y1="813.69" y2="813.69"/>

<g transform="translate(389,820.35)"><text  fill="black" font-size="20" text-anchor="start">8/5 minor 6th</text></g>

<line stroke="black" stroke-width="1" x1="0" x2="385" y1="840.53" y2="840.53"/>

<g transform="translate(389,844.53)"><text  fill="black" font-size="12" text-anchor="start">13/8 overtone 6th</text></g>

<line stroke="black" stroke-width="3" x1="0" x2="385" y1="884.36" y2="884.36"/>

<g transform="translate(389,891.03)"><text  fill="black" font-size="20" text-anchor="start">5/3 major 6th</text></g>

<line stroke="black" stroke-width="1" x1="0" x2="385" y1="905.87" y2="905.87"/>

<g transform="translate(389,909.87)"><text  fill="black" font-size="12" text-anchor="start">27/16 Pythagorean major 6th</text></g>

<line stroke="black" stroke-width="2" x1="0" x2="385" y1="933.13" y2="933.13"/>

<g transform="translate(389,938.8)"><text  fill="black" font-size="17" text-anchor="start">12/7 septimal major 6th</text></g>

<line stroke="black" stroke-width="2" x1="0" x2="385" y1="968.83" y2="968.83"/>

<g transform="translate(389,974.49)"><text  fill="black" font-size="17" text-anchor="start">7/4 septimal minor 7th</text></g>

<line stroke="black" stroke-width="2" x1="0" x2="385" y1="996.09" y2="996.09"/>

<g transform="translate(389,1001.09)"><text  fill="black" font-size="15" text-anchor="start">16/9 Pythagorean small min. 7th</text></g>

<line stroke="black" stroke-width="2" x1="0" x2="385" y1="1017.6" y2="1017.6"/>

<g transform="translate(389,1022.6)"><text  fill="black" font-size="15" text-anchor="start">9/5 large minor 7th</text></g>

<line stroke="black" stroke-width="1" x1="0" x2="385" y1="1049.36" y2="1049.36"/>

<g transform="translate(389,1053.36)"><text  fill="black" font-size="12" text-anchor="start">11/6 undecimal "median" 7th</text></g>

<line stroke="black" stroke-width="1" x1="0" x2="385" y1="1088.27" y2="1088.27"/>

<g transform="translate(389,1092.27)"><text  fill="black" font-size="12" text-anchor="start">15/8 major 7th</text></g>

<line stroke="black" stroke-width="1" x1="0" x2="385" y1="1109.78" y2="1109.78"/>

<g transform="translate(389,1113.78)"><text  fill="black" font-size="12" text-anchor="start">243/128 Pythagorean major 7th</text></g>

<line stroke="black" stroke-width="1" x1="0" x2="385" y1="1137.04" y2="1137.04"/>

<g transform="translate(389,1141.04)"><text  fill="black" font-size="12" text-anchor="start">27/14 septimal major 7th</text></g>

<line stroke="black" stroke-width="1" x1="0" x2="385" y1="1158.94" y2="1158.94"/>

<g transform="translate(389,1162.94)"><text  fill="black" font-size="12" text-anchor="start">125/64 augmented 7th</text></g>

<line stroke="black" stroke-width="3" x1="0" x2="385" y1="1200" y2="1200"/>

<g transform="translate(389,1206.67)"><text  fill="black" font-size="20" text-anchor="start">2/1 octave</text></g>

</g>
<g font-size="20" text-anchor="left" transform="translate(150 52) rotate(270)">
</g>
<g stroke="grey" transform="translate(145 72)">
<path d="M0 0 V1200"/>
<path d="M30 0 V1200"/>
<path d="M60 0 V1200"/>
<path d="M90 0 V1200"/>
<path d="M120 0 V1200"/>
<path d="M150 0 V1200"/>
<path d="M180 0 V1200"/>
<path d="M225 0 V1200"/>
<path d="M255 0 V1200"/>
<path d="M285 0 V1200"/>
<path d="M315 0 V1200"/>
<path d="M345 0 V1200"/>
</g>
<g fill="black">
<g transform="translate(145 72)">
</g>
<g transform="translate(175 72)">
</g>
<g transform="translate(205 72)">
</g>
<g transform="translate(235 72)">
</g>
<g transform="translate(265 72)">
</g>
<g transform="translate(295 72)">
</g>
<g transform="translate(325 72)">
</g>
<g transform="translate(370 72)">
</g>
<g transform="translate(400 72)">
</g>
<g transform="translate(430 72)">
</g>
<g transform="translate(460 72)">
</g>
<g transform="translate(490 72)">
</g>
</g>
<g fill="#404040">
<g transform="translate(145 72)">
<circle cy="1172.74" r="11.5"/>
<circle cy="176.65" r="11.5"/>
<circle cy="470.78" r="11.5"/>
<circle cy="674.69" r="11.5"/>
<circle cy="968.83" r="11.5"/>
</g>
<g transform="translate(175 72)">
<circle cy="470.78" r="11.5"/>
<circle cy="674.69" r="11.5"/>
<circle cy="968.83" r="11.5"/>
<circle cy="1172.74" r="11.5"/>
<circle cy="266.87" r="11.5"/>
</g>
<g transform="translate(205 72)">
<circle cy="968.83" r="11.5"/>
<circle cy="1172.74" r="11.5"/>
<circle cy="266.87" r="11.5"/>
<circle cy="470.78" r="11.5"/>
<circle cy="764.92" r="11.5"/>
</g>
<g transform="translate(235 72)">
<circle cy="266.87" r="11.5"/>
<circle cy="470.78" r="11.5"/>
<circle cy="764.92" r="11.5"/>
<circle cy="968.83" r="11.5"/>
<circle cy="62.96" r="11.5"/>
</g>
<g transform="translate(265 72)">
<circle cy="764.92" r="11.5"/>
<circle cy="968.83" r="11.5"/>
<circle cy="62.96" r="11.5"/>
<circle cy="266.87" r="11.5"/>
<circle cy="561.01" r="11.5"/>
</g>
<g transform="translate(295 72)">
<circle cy="62.96" r="11.5"/>
<circle cy="266.87" r="11.5"/>
<circle cy="561.01" r="11.5"/>
<circle cy="764.92" r="11.5"/>
<circle cy="1059.05" r="11.5"/>
</g>
<g transform="translate(325 72)">
<circle cy="561.01" r="11.5"/>
<circle cy="764.92" r="11.5"/>
<circle cy="1059.05" r="11.5"/>
<circle cy="62.96" r="11.5"/>
<circle cy="357.1" r="11.5"/>
</g>
<g transform="translate(370 72)">
<circle cy="203.91" r="11.5"/>
<circle cy="407.82" r="11.5"/>
<circle cy="701.96" r="11.5"/>
<circle cy="905.87" r="11.5"/>
<circle cy="0" r="11.5"/>
<circle cy="1200" r="11.5"/>
</g>
<g transform="translate(400 72)">
<circle cy="701.96" r="11.5"/>
<circle cy="905.87" r="11.5"/>
<circle cy="0" r="11.5"/>
<circle cy="1200" r="11.5"/>
<circle cy="203.91" r="11.5"/>
<circle cy="498.04" r="11.5"/>
</g>
<g transform="translate(430 72)">
<circle cy="0" r="11.5"/>
<circle cy="1200" r="11.5"/>
<circle cy="203.91" r="11.5"/>
<circle cy="498.04" r="11.5"/>
<circle cy="701.96" r="11.5"/>
<circle cy="996.09" r="11.5"/>
</g>
<g transform="translate(460 72)">
<circle cy="498.04" r="11.5"/>
<circle cy="701.96" r="11.5"/>
<circle cy="996.09" r="11.5"/>
<circle cy="0" r="11.5"/>
<circle cy="1200" r="11.5"/>
<circle cy="294.13" r="11.5"/>
</g>
<g transform="translate(490 72)">
<circle cy="996.09" r="11.5"/>
<circle cy="0" r="11.5"/>
<circle cy="1200" r="11.5"/>
<circle cy="294.13" r="11.5"/>
<circle cy="498.04" r="11.5"/>
<circle cy="792.18" r="11.5"/>
</g>
</g>
<g fill="blue">
<g transform="translate(145 72)">
<circle cy="0" r="11.5"/>
<circle cy="1200" r="11.5"/>
<circle cy="203.91" r="11.5"/>
<circle cy="407.82" r="11.5"/>
<circle cy="611.73" r="11.5"/>
<circle cy="701.96" r="11.5"/>
<circle cy="905.87" r="11.5"/>
<circle cy="1109.78" r="11.5"/>
</g>
<g transform="translate(175 72)">
<circle cy="498.04" r="11.5"/>
<circle cy="701.96" r="11.5"/>
<circle cy="905.87" r="11.5"/>
<circle cy="1109.78" r="11.5"/>
<circle cy="0" r="11.5"/>
<circle cy="1200" r="11.5"/>
<circle cy="203.91" r="11.5"/>
<circle cy="407.82" r="11.5"/>
</g>
<g transform="translate(205 72)">
<circle cy="996.09" r="11.5"/>
<circle cy="0" r="11.5"/>
<circle cy="1200" r="11.5"/>
<circle cy="203.91" r="11.5"/>
<circle cy="407.82" r="11.5"/>
<circle cy="498.04" r="11.5"/>
<circle cy="701.96" r="11.5"/>
<circle cy="905.87" r="11.5"/>
</g>
<g transform="translate(235 72)">
<circle cy="294.13" r="11.5"/>
<circle cy="498.04" r="11.5"/>
<circle cy="701.96" r="11.5"/>
<circle cy="905.87" r="11.5"/>
<circle cy="996.09" r="11.5"/>
<circle cy="0" r="11.5"/>
<circle cy="1200" r="11.5"/>
<circle cy="203.91" r="11.5"/>
</g>
<g transform="translate(265 72)">
<circle cy="792.18" r="11.5"/>
<circle cy="996.09" r="11.5"/>
<circle cy="0" r="11.5"/>
<circle cy="1200" r="11.5"/>
<circle cy="203.91" r="11.5"/>
<circle cy="294.13" r="11.5"/>
<circle cy="498.04" r="11.5"/>
<circle cy="701.96" r="11.5"/>
</g>
<g transform="translate(295 72)">
<circle cy="90.22" r="11.5"/>
<circle cy="294.13" r="11.5"/>
<circle cy="498.04" r="11.5"/>
<circle cy="701.96" r="11.5"/>
<circle cy="792.18" r="11.5"/>
<circle cy="996.09" r="11.5"/>
<circle cy="0" r="11.5"/>
<circle cy="1200" r="11.5"/>
</g>
<g transform="translate(325 72)">
<circle cy="588.27" r="11.5"/>
<circle cy="792.18" r="11.5"/>
<circle cy="996.09" r="11.5"/>
<circle cy="0" r="11.5"/>
<circle cy="1200" r="11.5"/>
<circle cy="90.22" r="11.5"/>
<circle cy="294.13" r="11.5"/>
<circle cy="498.04" r="11.5"/>
</g>
<g transform="translate(370 72)">
<circle cy="231.17" r="11.5"/>
<circle cy="435.08" r="11.5"/>
<circle cy="638.99" r="11.5"/>
<circle cy="842.9" r="11.5"/>
<circle cy="933.13" r="11.5"/>
<circle cy="1137.04" r="11.5"/>
<circle cy="140.95" r="11.5"/>
</g>
<g transform="translate(400 72)">
<circle cy="729.22" r="11.5"/>
<circle cy="933.13" r="11.5"/>
<circle cy="1137.04" r="11.5"/>
<circle cy="140.95" r="11.5"/>
<circle cy="231.17" r="11.5"/>
<circle cy="435.08" r="11.5"/>
<circle cy="638.99" r="11.5"/>
</g>
<g transform="translate(430 72)">
<circle cy="27.26" r="11.5"/>
<circle cy="231.17" r="11.5"/>
<circle cy="435.08" r="11.5"/>
<circle cy="638.99" r="11.5"/>
<circle cy="729.22" r="11.5"/>
<circle cy="933.13" r="11.5"/>
<circle cy="1137.04" r="11.5"/>
</g>
<g transform="translate(460 72)">
<circle cy="525.31" r="11.5"/>
<circle cy="729.22" r="11.5"/>
<circle cy="933.13" r="11.5"/>
<circle cy="1137.04" r="11.5"/>
<circle cy="27.26" r="11.5"/>
<circle cy="231.17" r="11.5"/>
<circle cy="435.08" r="11.5"/>
</g>
<g transform="translate(490 72)">
<circle cy="1023.35" r="11.5"/>
<circle cy="27.26" r="11.5"/>
<circle cy="231.17" r="11.5"/>
<circle cy="435.08" r="11.5"/>
<circle cy="525.31" r="11.5"/>
<circle cy="729.22" r="11.5"/>
<circle cy="933.13" r="11.5"/>
</g>
</g>
<g fill="white" text-anchor="middle">
<g transform="translate(145 72)">
<text font-size="14" y="4.67">F</text>
<text font-size="14" y="1204.67">F</text>
<text font-size="12" y="1176.74">F♯</text>
<text font-size="14" y="208.58">G</text>
<text font-size="12" y="180.65">G♯</text>
<text font-size="14" y="412.49">A</text>
<text font-size="12" y="474.78">B♭</text>
<text font-size="14" y="616.4">B</text>
<text font-size="14" y="706.62">C</text>
<text font-size="12" y="678.69">C♯</text>
<text font-size="14" y="910.53">D</text>
<text font-size="12" y="972.83">E♭</text>
<text font-size="14" y="1114.44">E</text>
</g>
<g transform="translate(175 72)">
<text font-size="14" y="502.71">F</text>
<text font-size="12" y="474.78">F♯</text>
<text font-size="14" y="706.62">G</text>
<text font-size="12" y="678.69">G♯</text>
<text font-size="14" y="910.53">A</text>
<text font-size="12" y="972.83">B♭</text>
<text font-size="14" y="1114.44">B</text>
<text font-size="14" y="4.67">C</text>
<text font-size="14" y="1204.67">C</text>
<text font-size="12" y="1176.74">C♯</text>
<text font-size="14" y="208.58">D</text>
<text font-size="12" y="270.87">E♭</text>
<text font-size="14" y="412.49">E</text>
</g>
<g transform="translate(205 72)">
<text font-size="14" y="1000.76">F</text>
<text font-size="12" y="972.83">F♯</text>
<text font-size="14" y="4.67">G</text>
<text font-size="14" y="1204.67">G</text>
<text font-size="12" y="1176.74">G♯</text>
<text font-size="14" y="208.58">A</text>
<text font-size="12" y="270.87">B♭</text>
<text font-size="14" y="412.49">B</text>
<text font-size="14" y="502.71">C</text>
<text font-size="12" y="474.78">C♯</text>
<text font-size="14" y="706.62">D</text>
<text font-size="12" y="768.92">E♭</text>
<text font-size="14" y="910.53">E</text>
</g>
<g transform="translate(235 72)">
<text font-size="14" y="298.8">F</text>
<text font-size="12" y="270.87">F♯</text>
<text font-size="14" y="502.71">G</text>
<text font-size="12" y="474.78">G♯</text>
<text font-size="14" y="706.62">A</text>
<text font-size="12" y="768.92">B♭</text>
<text font-size="14" y="910.53">B</text>
<text font-size="14" y="1000.76">C</text>
<text font-size="12" y="972.83">C♯</text>
<text font-size="14" y="4.67">D</text>
<text font-size="14" y="1204.67">D</text>
<text font-size="12" y="66.96">E♭</text>
<text font-size="14" y="208.58">E</text>
</g>
<g transform="translate(265 72)">
<text font-size="14" y="796.85">F</text>
<text font-size="12" y="768.92">F♯</text>
<text font-size="14" y="1000.76">G</text>
<text font-size="12" y="972.83">G♯</text>
<text font-size="14" y="4.67">A</text>
<text font-size="14" y="1204.67">A</text>
<text font-size="12" y="66.96">B♭</text>
<text font-size="14" y="208.58">B</text>
<text font-size="14" y="298.8">C</text>
<text font-size="12" y="270.87">C♯</text>
<text font-size="14" y="502.71">D</text>
<text font-size="12" y="565.01">E♭</text>
<text font-size="14" y="706.62">E</text>
</g>
<g transform="translate(295 72)">
<text font-size="14" y="94.89">F</text>
<text font-size="12" y="66.96">F♯</text>
<text font-size="14" y="298.8">G</text>
<text font-size="12" y="270.87">G♯</text>
<text font-size="14" y="502.71">A</text>
<text font-size="12" y="565.01">B♭</text>
<text font-size="14" y="706.62">B</text>
<text font-size="14" y="796.85">C</text>
<text font-size="12" y="768.92">C♯</text>
<text font-size="14" y="1000.76">D</text>
<text font-size="12" y="1063.05">E♭</text>
<text font-size="14" y="4.67">E</text>
<text font-size="14" y="1204.67">E</text>
</g>
<g transform="translate(325 72)">
<text font-size="14" y="592.94">F</text>
<text font-size="12" y="565.01">F♯</text>
<text font-size="14" y="796.85">G</text>
<text font-size="12" y="768.92">G♯</text>
<text font-size="14" y="1000.76">A</text>
<text font-size="12" y="1063.05">B♭</text>
<text font-size="14" y="4.67">B</text>
<text font-size="14" y="1204.67">B</text>
<text font-size="14" y="94.89">C</text>
<text font-size="12" y="66.96">C♯</text>
<text font-size="14" y="298.8">D</text>
<text font-size="12" y="361.1">E♭</text>
<text font-size="14" y="502.71">E</text>
</g>
<g transform="translate(370 72)">
<text font-size="14" y="235.84">F</text>
<text font-size="12" y="207.91">F♯</text>
<text font-size="14" y="439.75">G</text>
<text font-size="12" y="411.82">G♯</text>
<text font-size="14" y="643.66">A</text>
<text font-size="12" y="705.96">B♭</text>
<text font-size="14" y="847.57">B</text>
<text font-size="14" y="937.8">C</text>
<text font-size="12" y="909.87">C♯</text>
<text font-size="14" y="1141.71">D</text>
<text font-size="12" y="4">E♭</text>
<text font-size="12" y="1204">E♭</text>
<text font-size="14" y="145.62">E</text>
</g>
<g transform="translate(400 72)">
<text font-size="14" y="733.89">F</text>
<text font-size="12" y="705.96">F♯</text>
<text font-size="14" y="937.8">G</text>
<text font-size="12" y="909.87">G♯</text>
<text font-size="14" y="1141.71">A</text>
<text font-size="12" y="4">B♭</text>
<text font-size="12" y="1204">B♭</text>
<text font-size="14" y="145.62">B</text>
<text font-size="14" y="235.84">C</text>
<text font-size="12" y="207.91">C♯</text>
<text font-size="14" y="439.75">D</text>
<text font-size="12" y="502.04">E♭</text>
<text font-size="14" y="643.66">E</text>
</g>
<g transform="translate(430 72)">
<text font-size="14" y="31.93">F</text>
<text font-size="12" y="4">F♯</text>
<text font-size="12" y="1204">F♯</text>
<text font-size="14" y="235.84">G</text>
<text font-size="12" y="207.91">G♯</text>
<text font-size="14" y="439.75">A</text>
<text font-size="12" y="502.04">B♭</text>
<text font-size="14" y="643.66">B</text>
<text font-size="14" y="733.89">C</text>
<text font-size="12" y="705.96">C♯</text>
<text font-size="14" y="937.8">D</text>
<text font-size="12" y="1000.09">E♭</text>
<text font-size="14" y="1141.71">E</text>
</g>
<g transform="translate(460 72)">
<text font-size="14" y="529.98">F</text>
<text font-size="12" y="502.04">F♯</text>
<text font-size="14" y="733.89">G</text>
<text font-size="12" y="705.96">G♯</text>
<text font-size="14" y="937.8">A</text>
<text font-size="12" y="1000.09">B♭</text>
<text font-size="14" y="1141.71">B</text>
<text font-size="14" y="31.93">C</text>
<text font-size="12" y="4">C♯</text>
<text font-size="12" y="1204">C♯</text>
<text font-size="14" y="235.84">D</text>
<text font-size="12" y="298.13">E♭</text>
<text font-size="14" y="439.75">E</text>
</g>
<g transform="translate(490 72)">
<text font-size="14" y="1028.02">F</text>
<text font-size="12" y="1000.09">F♯</text>
<text font-size="14" y="31.93">G</text>
<text font-size="12" y="4">G♯</text>
<text font-size="12" y="1204">G♯</text>
<text font-size="14" y="235.84">A</text>
<text font-size="12" y="298.13">B♭</text>
<text font-size="14" y="439.75">B</text>
<text font-size="14" y="529.98">C</text>
<text font-size="12" y="502.04">C♯</text>
<text font-size="14" y="733.89">D</text>
<text font-size="12" y="796.18">E♭</text>
<text font-size="14" y="937.8">E</text>
</g>
</g>
<a href="https://www.fidolab.org">
<text fill="grey" font-size="20" font-style="italic" text-anchor="middle" x="390" y="1312">www.FidoLab.org</text>
</a>
</g>
</svg>
